<svg width="26" height="26" viewBox="0 0 26 26" fill="none" xmlns="http://www.w3.org/2000/svg">
<path d="M3.9399 16.5345C3.61554 15.9831 2.95815 15.834 2.4716 16.2017C1.98505 16.5693 1.85357 17.3143 2.17794 17.8657C2.41741 18.2729 2.70389 18.6073 2.94717 18.8829C2.99202 18.9338 3.0356 18.9829 3.07816 19.0308C3.28195 19.2602 3.46188 19.4628 3.6426 19.7033C4.04231 20.235 4.44107 20.9511 4.6677 22.2354C4.76864 22.8074 5.13145 23.1155 5.33247 23.2502C5.55048 23.3961 5.78868 23.4821 5.9847 23.5382C6.38568 23.6528 6.87245 23.7123 7.33441 23.747C7.84154 23.7851 8.39103 23.7975 8.88239 23.8009C8.88275 24.4631 9.35665 25 9.94119 25C10.526 25 11 24.4628 11 23.8V22.6C11 21.9373 10.526 21.4 9.94119 21.4C9.84137 21.4 9.73339 21.4004 9.619 21.4009C8.99763 21.403 8.18769 21.4058 7.47437 21.3523C7.1304 21.3265 6.84763 21.2899 6.64027 21.2451C6.32096 19.8245 5.80509 18.8792 5.25463 18.1469C5.01129 17.8232 4.75932 17.54 4.55436 17.3096C4.51599 17.2666 4.47927 17.2253 4.44455 17.1859C4.20807 16.918 4.05338 16.7274 3.9399 16.5345Z" fill="white"/>
<path d="M5.10009 2.32366C5.16552 1.15311 5.44203 0.644085 6.23498 0.235324C7.08819 -0.204632 8.43387 0.000110269 10.0173 0.810948C10.6993 1.16036 10.7688 1.16747 11.9641 1.01251C13.5528 0.806448 15.5981 0.807176 17.0645 1.01439C18.1734 1.1711 18.2463 1.16327 18.9299 0.81313C21.1776 -0.337836 22.9521 -0.262528 23.5946 1.01105C23.9153 1.64675 23.9749 3.29629 23.7262 4.65679C23.5883 5.41104 23.6029 5.50521 23.9351 6.00016C26.2722 9.48281 24.5882 15.128 20.5835 17.2347C20.2771 17.3959 20.0189 17.4957 19.8084 17.5769C19.1621 17.8265 18.9659 17.9023 19.2035 19.0509C19.3179 19.6034 19.4556 20.9771 19.5098 22.1037C19.6077 24.14 19.6062 24.1542 19.253 24.5697C18.7723 25.1348 18.0794 25.1443 17.6099 24.5923C17.3037 24.2323 17.2738 24.0623 17.2738 22.6733C17.2738 20.6207 17.0513 19.2564 16.5256 18.0873C15.9004 16.696 16.3639 16.1773 17.7935 15.8664C19.7806 15.4341 21.3326 14.194 22.1977 12.3473C23.0202 10.5918 23.1441 8.16594 21.6572 6.69057C21.2343 6.18241 21.2049 5.72214 21.5068 4.33422C21.6196 3.81548 21.7143 3.14625 21.7171 2.8469C21.7213 2.37415 21.6787 2.30277 21.3916 2.30277C21.2099 2.30277 20.5157 2.57005 19.8491 2.89667L18.7851 3.41815C18.6883 3.46555 18.5801 3.48378 18.4734 3.47139C15.7679 3.15737 13.1973 3.15251 10.4786 3.47262C10.3714 3.48523 10.2627 3.467 10.1657 3.41937L9.10226 2.89755C8.43559 2.57033 7.74137 2.30277 7.55971 2.30277C7.1397 2.30277 7.13339 2.61633 7.51622 4.47932C7.75009 5.6171 7.90746 5.87063 7.2314 6.78039C6.21805 8.14407 5.96492 9.83743 6.50833 11.6166C7.19323 13.8587 8.87038 15.3733 11.2283 15.8787C12.6497 16.1833 13.0212 16.5808 12.4784 18.229C12.0511 19.526 11.781 19.8604 11.1601 19.8604C10.3247 19.8604 9.80136 19.1285 10.0894 18.3627C10.2162 18.0252 10.1785 17.9892 9.39585 17.7006C7.00683 16.8198 5.17958 14.8456 4.34416 12.2424C3.69845 10.2305 3.98256 7.61183 5.01845 6.02904C5.37115 5.49012 5.37661 5.44441 5.21201 4.41272C5.11889 3.82868 5.06852 2.8887 5.10009 2.32366Z" fill="white"/>
</svg>
