<svg width="26" height="27" viewBox="0 0 26 27" fill="none" xmlns="http://www.w3.org/2000/svg">
<path fill-rule="evenodd" clip-rule="evenodd" d="M25.5179 26.2459H20.4594V17.3948C20.4594 14.9668 19.3883 13.6121 17.4674 13.6121C15.3769 13.6121 14.1364 15.0237 14.1364 17.3948V26.2459H9.07789V9.80592H14.1364V11.6547C14.1364 11.6547 15.7234 8.86981 19.2998 8.86981C22.8774 8.86981 25.5179 11.053 25.5179 15.5702V26.2459ZM3.31378 7.17666C1.60781 7.17666 0.225586 5.78313 0.225586 4.06452C0.225586 2.34717 1.60781 0.953613 3.31378 0.953613C5.01848 0.953613 6.4007 2.34717 6.4007 4.06452C6.40196 5.78313 5.01848 7.17666 3.31378 7.17666ZM0.225586 26.2459H6.54866V9.80592H0.225586V26.2459Z" fill="white"/>
</svg>
