<svg width="25" height="30" viewBox="0 0 25 30" fill="none" xmlns="http://www.w3.org/2000/svg">
<path d="M13.9251 14.7852C13.558 14.9077 13.1664 14.9758 12.7587 14.9758C12.351 14.9758 11.9593 14.9077 11.5922 14.7852C8.92546 15.2231 7.52979 17.1831 7.52979 19.5615H12.7587H17.9876C17.9876 17.1831 16.5921 15.2231 13.9251 14.7852Z" fill="white"/>
<path d="M12.7586 14.1285C14.3395 14.1285 15.6205 12.8467 15.6205 11.2661V10.4542C15.6205 8.87362 14.3395 7.59229 12.7586 7.59229C11.1778 7.59229 9.89673 8.87362 9.89673 10.4542V11.2661C9.89673 12.8467 11.1778 14.1285 12.7586 14.1285Z" fill="white"/>
<path d="M19.8129 0.251465H5.70348C2.97471 0.251465 0.753906 2.47273 0.753906 5.20201V24.8096C0.753906 27.5389 2.97471 29.7592 5.70348 29.7592H17.5581H18.3174L18.8545 29.2231L24.2274 23.8501L24.7635 23.3136V22.5543V5.20201C24.7635 2.47273 22.5427 0.251465 19.8129 0.251465ZM22.9306 22.5543H20.1558C18.7218 22.5543 17.5581 23.7175 17.5581 25.1519V27.9263H5.70348C3.98223 27.9263 2.58684 26.5304 2.58684 24.8096V5.20201C2.58684 3.48031 3.98223 2.08434 5.70348 2.08434H19.8129C21.5347 2.08434 22.9305 3.48031 22.9305 5.20201V22.5543H22.9306Z" fill="white"/>
</svg>
