<svg width="78" height="78" viewBox="0 0 78 78" fill="none" xmlns="http://www.w3.org/2000/svg">
<path d="M49.3898 51.6064H26.8582C26.226 51.6064 25.708 51.0885 25.708 50.4562V27.9855C25.708 27.5666 25.3652 27.2238 24.9463 27.2238C24.5273 27.2238 24.1846 27.5666 24.1846 27.9855V50.4562C24.1846 51.934 25.3805 53.1299 26.8582 53.1299H49.3898C49.8088 53.1299 50.1516 52.7871 50.1516 52.3682C50.1516 51.9492 49.8164 51.6064 49.3898 51.6064Z" fill="white"/>
<path d="M65.8887 29.4404C66.7266 29.4404 67.4121 28.7549 67.4121 27.917C67.4121 27.0791 66.7266 26.3935 65.8887 26.3935H60.5795V22.067C60.5795 19.1267 58.1877 16.7349 55.2475 16.7349H53.1299V11.6086C53.1299 10.7707 52.4443 10.0851 51.6064 10.0851C50.7686 10.0851 50.083 10.7707 50.083 11.6086V16.7349H46.541V11.6086C46.541 10.7707 45.8555 10.0851 45.0176 10.0851C44.1797 10.0851 43.4941 10.7707 43.4941 11.6086V16.7349H39.9521V11.6086C39.9521 10.7707 39.2666 10.0851 38.4287 10.0851C37.5908 10.0851 36.9053 10.7707 36.9053 11.6086V16.7349H33.3633V11.6086C33.3633 10.7707 32.6777 10.0851 31.8398 10.0851C31.002 10.0851 30.3164 10.7707 30.3164 11.6086V16.7349H23.7809C20.8406 16.7349 18.4488 19.1267 18.4488 22.067V26.3935H13.1396C12.3018 26.3935 11.6162 27.0791 11.6162 27.917C11.6162 28.7549 12.3018 29.4404 13.1396 29.4404H18.4488V32.9824H13.1396C12.3018 32.9824 11.6162 33.668 11.6162 34.5058C11.6162 35.3437 12.3018 36.0293 13.1396 36.0293H18.4488V39.5713H13.1396C12.3018 39.5713 11.6162 40.2568 11.6162 41.0947C11.6162 41.9326 12.3018 42.6182 13.1396 42.6182H18.4488V46.1601H13.1396C12.3018 46.1601 11.6162 46.8457 11.6162 47.6836C11.6162 48.5215 12.3018 49.207 13.1396 49.207H18.4488V53.5336C18.4488 56.4738 20.8406 58.8656 23.7809 58.8656H26.127V64.3881C26.127 65.226 26.8125 65.9115 27.6504 65.9115C28.4883 65.9115 29.1738 65.226 29.1738 64.3881V58.8656H32.7158V64.3881C32.7158 65.226 33.4014 65.9115 34.2393 65.9115C35.0771 65.9115 35.7627 65.226 35.7627 64.3881V58.8656H39.3047V64.3881C39.3047 65.226 39.9902 65.9115 40.8281 65.9115C41.666 65.9115 42.3516 65.226 42.3516 64.3881V58.8656H45.8936V64.3881C45.8936 65.226 46.5791 65.9115 47.417 65.9115C48.2549 65.9115 48.9404 65.226 48.9404 64.3881V58.8656H55.2475C58.1877 58.8656 60.5795 56.4738 60.5795 53.5336V49.207H65.8887C66.7266 49.207 67.4121 48.5215 67.4121 47.6836C67.4121 46.8457 66.7266 46.1601 65.8887 46.1601H60.5795V42.6182H65.8887C66.7266 42.6182 67.4121 41.9326 67.4121 41.0947C67.4121 40.2568 66.7266 39.5713 65.8887 39.5713H60.5795V36.0293H65.8887C66.7266 36.0293 67.4121 35.3437 67.4121 34.5058C67.4121 33.668 66.7266 32.9824 65.8887 32.9824H60.5795V29.4404H65.8887ZM57.5326 53.526C57.5326 54.7828 56.5043 55.8111 55.2475 55.8111H23.7809C22.524 55.8111 21.4957 54.7828 21.4957 53.526V22.067C21.4957 20.8101 22.524 19.7818 23.7809 19.7818H55.2475C56.5043 19.7818 57.5326 20.8101 57.5326 22.067V53.526Z" fill="white"/>
<path d="M31.0476 39.716H34.879L35.7169 41.8945H37.8192L33.9802 32.3121H31.9312L28.1987 41.8945H30.2554L31.0476 39.716ZM32.9366 34.5439L34.2544 38.1012H31.6417L32.9366 34.5439ZM40.7823 38.284H42.0468C42.9228 38.284 43.5931 38.2383 44.0577 38.1469C44.4005 38.0707 44.7356 37.9184 45.0632 37.6898C45.3907 37.4613 45.6649 37.149 45.8782 36.7453C46.0915 36.3416 46.1981 35.8465 46.1981 35.26C46.1981 34.4982 46.0153 33.8736 45.6421 33.3937C45.2688 32.9139 44.8118 32.6016 44.2634 32.4568C43.9054 32.3578 43.136 32.3121 41.963 32.3121H38.8476V41.8945H40.7823V38.284ZM40.7823 33.9346H41.7192C42.42 33.9346 42.877 33.9574 43.1132 34.0031C43.4255 34.0564 43.6845 34.2012 43.8901 34.4297C44.0958 34.6582 44.1948 34.9476 44.1948 35.2904C44.1948 35.5723 44.1187 35.8236 43.9739 36.0369C43.8292 36.2502 43.6235 36.4101 43.3722 36.5092C43.1132 36.6082 42.6028 36.6615 41.8411 36.6615H40.7823V33.9346ZM47.7216 32.3121H49.6563V41.8945H47.7216V32.3121Z" fill="white"/>
</svg>
