<svg width="47" height="50" viewBox="0 0 47 50" fill="none" xmlns="http://www.w3.org/2000/svg">
<path d="M46.4784 0L42.1204 45.1385L23.2389 50L4.35711 45.1385L0 0H46.4784ZM37.6968 9.17822H23.2219H8.49065L9.19516 14.6291H23.2219H24.0098L23.2219 14.9427L9.70781 20.3249L10.156 25.653L23.2219 25.6935L30.2249 25.7148L29.7766 32.8191L23.2218 34.5838V34.5782L23.1681 34.5925L16.8378 33.0644L16.4537 28.6544H16.4327H10.5611H10.5404L11.309 37.1679L23.222 40.5367V40.5306L23.2435 40.5367L35.0927 37.2292L36.6297 20.3249H23.222H23.189L23.222 20.3112L37.1209 14.6291L37.6968 9.17822Z" fill="white"/>
</svg>
