<svg width="50" height="30" viewBox="0 0 50 30" fill="none" xmlns="http://www.w3.org/2000/svg">
<path d="M50 28.2321C49.2723 28.5073 48.469 28.5067 47.7417 28.2304C47.0144 27.954 46.4134 27.4211 46.0521 26.7321L38.8646 16.7925L37.8229 15.4029L29.4833 26.7446C29.1437 27.4047 28.5753 27.9185 27.8844 28.19C27.1935 28.4614 26.4273 28.472 25.7292 28.2196L36.475 13.8029L26.4792 0.780003C27.1979 0.520993 27.984 0.517559 28.7049 0.77028C29.4259 1.023 30.0378 1.51644 30.4375 2.1675L37.8875 12.23L45.3792 2.20917C45.7214 1.56081 46.29 1.06081 46.9767 0.80423C47.6635 0.547648 48.4206 0.552371 49.1042 0.817504L45.225 5.96542L39.9708 12.805C39.8249 12.9352 39.7082 13.0947 39.6282 13.2731C39.5483 13.4516 39.507 13.6449 39.507 13.8404C39.507 14.0359 39.5483 14.2293 39.6282 14.4077C39.7082 14.5861 39.8249 14.7457 39.9708 14.8758L49.9792 28.2342L50 28.2321ZM0.00419166 13.6237L0.879191 9.30083C3.28336 0.752922 13.0834 -2.80333 19.825 2.48834C23.7729 5.59042 24.7583 9.98208 24.5646 14.9321H2.32502C1.96461 23.7717 8.34377 29.1092 16.5 26.3821C17.8222 25.9061 19.0057 25.1097 19.9445 24.064C20.8833 23.0183 21.548 21.7561 21.8792 20.3904C22.3104 19.0029 23.0208 18.7654 24.325 19.1654C24.1077 20.8579 23.5094 22.479 22.5752 23.9069C21.6409 25.3348 20.3951 26.5322 18.9313 27.4092C16.5134 28.7317 13.7392 29.2559 11.0055 28.9068C8.27173 28.5577 5.71835 27.3532 3.71044 25.4654C1.72509 23.2308 0.525183 20.4081 0.293775 17.4279C0.293775 16.9383 0.127108 16.48 0.0146083 16.0404C0.00446672 15.2356 -0.000394494 14.4307 2.49922e-05 13.6258L0.00419166 13.6237ZM2.35211 13.0279H22.4646C22.3396 6.61958 18.2958 2.07375 12.9021 2.03209C6.89794 1.94875 2.60211 6.39458 2.33752 12.9987L2.35211 13.0279Z" fill="white"/>
</svg>
