<svg width="50" height="50" viewBox="0 0 50 50" fill="none" xmlns="http://www.w3.org/2000/svg">
<path fill-rule="evenodd" clip-rule="evenodd" d="M28.2866 6.00934C26.4715 4.19419 23.5284 4.19419 21.7134 6.00934L20.1526 7.57006L23.7962 11.2135C24.1801 11.1108 24.5835 11.056 25 11.056C27.5671 11.056 29.648 13.137 29.648 15.704C29.648 16.1204 29.5931 16.524 29.4906 16.9079L34.2541 21.6713C34.638 21.5688 35.0415 21.514 35.4579 21.514C38.025 21.514 40.1059 23.5949 40.1059 26.162C40.1059 28.7291 38.025 30.81 35.4579 30.81C32.8909 30.81 30.81 28.7291 30.81 26.162C30.81 25.7455 30.8648 25.3421 30.9673 24.9581L27.324 21.3146V32.5938C28.7132 33.3975 29.648 34.8995 29.648 36.6199C29.648 39.187 27.5671 41.2679 25 41.2679C22.4329 41.2679 20.352 39.187 20.352 36.6199C20.352 34.8995 21.2867 33.3975 22.676 32.5938V19.7302C21.2867 18.9265 20.352 17.4244 20.352 15.704C20.352 15.2877 20.4068 14.8841 20.5093 14.5001L16.866 10.8567L6.00934 21.7134C4.19419 23.5284 4.19419 26.4715 6.00934 28.2866L21.7134 43.9907C23.5284 45.8057 26.4715 45.8057 28.2866 43.9907L43.9907 28.2866C45.8057 26.4715 45.8057 23.5284 43.9907 21.7134L28.2866 6.00934ZM18.4267 2.72271C22.0571 -0.907579 27.9428 -0.90757 31.5731 2.72274L47.2773 18.4267C50.9076 22.0571 50.9076 27.9428 47.2773 31.5731L31.5731 47.2773C27.9428 50.9076 22.0571 50.9076 18.4267 47.2773L2.72271 31.5731C-0.907579 27.9428 -0.90757 22.0571 2.72274 18.4267L18.4267 2.72271Z" fill="white"/>
</svg>
