<svg width="52" height="50" viewBox="0 0 52 50" fill="none" xmlns="http://www.w3.org/2000/svg">
<path fill-rule="evenodd" clip-rule="evenodd" d="M39.7425 46.0803C35.2181 46.0803 32.2934 44.0005 30.8674 41.2805L34.8343 39.0649C35.8792 40.7099 37.2353 41.9177 39.6388 41.9177C41.656 41.9177 42.9446 40.9446 42.9446 39.6021C42.9446 37.5821 40.1496 36.7928 38.1765 35.9778C34.6606 34.5353 32.3271 32.7228 32.3271 28.8953C32.3271 25.3728 35.1118 22.688 39.4651 22.688C42.5609 22.688 44.7907 23.7278 46.3905 26.4453L42.5972 28.7952C41.7623 27.3527 40.8575 26.7822 39.4651 26.7822C38.0365 26.7822 37.1316 27.6552 37.1316 28.7952C37.1316 30.2052 38.0365 30.7754 40.1263 31.6479C44.5056 33.4579 47.8191 34.8799 47.8191 39.5349C47.8191 43.7649 44.3733 46.0803 39.7425 46.0803ZM28.5209 38.9978C28.5209 43.8653 25.4121 46.438 21.095 46.438C17.1955 46.438 14.8594 45 13.7107 42.5H13.6719H13.6537H13.6433L17.6077 39.8279C18.3726 41.1354 19.0623 42.063 20.7321 42.063C22.3344 42.063 23.3353 41.2806 23.3353 38.9331V22.5H28.5209V38.9978ZM0 50H51.8561V0H0V50Z" fill="white"/>
</svg>
