<svg width="46" height="50" viewBox="0 0 46 50" fill="none" xmlns="http://www.w3.org/2000/svg">
<path d="M43.5686 24.6178C43.5668 23.2685 43.0945 21.9621 42.233 20.9236C41.3715 19.8851 40.1748 19.1796 38.849 18.9286L45.2669 0H14.9312L21.3597 18.9661C20.2374 19.2169 19.2153 19.7964 18.4238 20.6306C17.6323 21.4649 17.1072 22.516 16.9156 23.6499C16.724 24.7838 16.8745 25.9491 17.348 26.9971C17.8215 28.0451 18.5965 28.9282 19.574 29.5339C18.7665 30.7336 17.8273 31.8393 16.774 32.8303C15.1436 34.3902 13.2277 35.621 11.1312 36.4553C10.1473 35.8842 9.40147 34.9784 9.02975 33.9032C8.65802 32.828 8.68514 31.6551 9.10618 30.5982L9.1776 30.4321L9.30975 30.1196C10.4999 29.707 11.5232 28.9178 12.2246 27.8715C12.9261 26.8253 13.2675 25.5789 13.1972 24.3212C13.1269 23.0635 12.6486 21.863 11.8349 20.9015C11.0212 19.9399 9.91634 19.2697 8.68761 18.9923C7.45888 18.7149 6.17322 18.8455 5.02534 19.3642C3.87745 19.8829 2.92986 20.7616 2.32605 21.8671C1.72225 22.9726 1.49512 24.2447 1.67906 25.4909C1.86301 26.737 2.44801 27.8893 3.34547 28.7732C3.15261 29.1857 2.94904 29.6035 2.74011 30.0339C1.58231 32.1627 0.740168 34.4485 0.240112 36.8196C-0.590245 41.8196 0.74904 45.825 4.00975 48.0839C5.76018 49.3356 7.8596 50.0059 10.0115 50C13.8187 50 17.6705 48.0875 21.4401 46.216C24.0739 44.7836 26.8526 43.6355 29.7294 42.791C30.7597 42.5375 31.8204 42.3839 32.9437 42.2214C35.2319 42.0386 37.4633 41.4152 39.5151 40.3857C40.6721 39.7248 41.6697 38.8175 42.4372 37.7282C43.2047 36.6389 43.7232 35.3941 43.9562 34.0821C44.3356 31.8531 43.8974 29.562 42.7222 27.6303C43.2781 26.7233 43.5717 25.6799 43.5704 24.6161L43.5686 24.6178ZM41.2954 24.6178C41.2954 25.3136 41.0891 25.9937 40.7026 26.5723C40.316 27.1508 39.7666 27.6017 39.1238 27.8679C38.481 28.1342 37.7737 28.2038 37.0913 28.0681C36.4089 27.9324 35.7821 27.5973 35.2901 27.1053C34.7981 26.6134 34.4631 25.9865 34.3273 25.3041C34.1916 24.6217 34.2612 23.9144 34.5275 23.2716C34.7938 22.6288 35.2447 22.0794 35.8232 21.6928C36.4017 21.3063 37.0818 21.1 37.7776 21.1C38.7103 21.1009 39.6045 21.4719 40.264 22.1314C40.9236 22.7909 41.2945 23.6851 41.2954 24.6178ZM42.0936 2.27321L36.4258 18.9875C36.1831 19.0462 35.9445 19.1208 35.7115 19.2107L30.1133 7.78214L24.4972 19.1428C24.2527 19.0581 24.0027 18.9901 23.749 18.9393L18.1008 2.27321H42.0936ZM22.6169 21.1C23.3126 21.1 23.9928 21.3063 24.5713 21.6928C25.1498 22.0794 25.6007 22.6288 25.867 23.2716C26.1332 23.9144 26.2029 24.6217 26.0671 25.3041C25.9314 25.9865 25.5964 26.6134 25.1044 27.1053C24.6124 27.5973 23.9856 27.9324 23.3032 28.0681C22.6208 28.2038 21.9135 28.1342 21.2707 27.8679C20.6279 27.6017 20.0784 27.1508 19.6919 26.5723C19.3053 25.9937 19.099 25.3136 19.099 24.6178C19.1 23.6851 19.4709 22.7909 20.1304 22.1314C20.7899 21.4719 21.6842 21.1009 22.6169 21.1ZM7.39903 21.1339C8.0951 21.1343 8.77542 21.3411 9.35389 21.7283C9.93235 22.1154 10.383 22.6655 10.6487 23.3089C10.9144 23.9522 10.9833 24.6599 10.8466 25.3425C10.71 26.025 10.3739 26.6516 9.88094 27.1431C9.38799 27.6345 8.76034 27.9687 8.0774 28.1032C7.39447 28.2378 6.68696 28.1668 6.04441 27.8991C5.40187 27.6314 4.85318 27.1791 4.46779 26.5995C4.0824 26.0199 3.87763 25.3389 3.87939 24.6428C3.88034 23.7101 4.25127 22.8159 4.91079 22.1564C5.57031 21.4969 6.46455 21.1259 7.39725 21.125L7.39903 21.1339ZM41.7151 33.6946C41.5386 34.679 41.1478 35.6124 40.5704 36.429C39.9931 37.2455 39.2432 37.9251 38.374 38.4196C36.5706 39.2952 34.6178 39.8218 32.6187 39.9714C31.4901 40.1339 30.324 40.3018 29.1829 40.5839C26.1453 41.4635 23.2116 42.6687 20.433 44.1785C14.783 46.9839 9.89725 49.4071 5.30439 46.2196C1.93475 43.8839 2.09011 39.5625 2.48297 37.1946C2.94528 35.0398 3.71633 32.963 4.77225 31.0285C4.93654 30.691 5.09725 30.3589 5.25439 30.0303C5.73406 30.2221 6.23741 30.3482 6.75082 30.4053C6.29633 32.0106 6.42332 33.7249 7.1094 35.2457C7.79548 36.7665 8.99657 37.9962 10.5008 38.7178L10.9383 38.9428L11.4008 38.7785C13.9806 37.8474 16.3375 36.3876 18.3205 34.4928C19.6303 33.2607 20.7809 31.8695 21.7455 30.3518C22.9796 30.5395 24.2414 30.3231 25.3425 29.735C26.4436 29.1468 27.325 28.2184 27.8552 27.0883C28.3855 25.9581 28.5361 24.6868 28.2846 23.4641C28.0331 22.2413 27.3929 21.1327 26.4597 20.3036L30.099 12.9446L33.7758 20.4446C32.7297 21.4528 32.1011 22.8177 32.0151 24.268C31.9291 25.7184 32.3919 27.148 33.3115 28.2727C34.2311 29.3975 35.5403 30.1352 36.9788 30.339C38.4173 30.5429 39.8798 30.1981 41.0758 29.3732C41.7389 30.7116 41.9608 32.2258 41.7097 33.6982L41.7151 33.6946Z" fill="white"/>
</svg>
