<svg width="50" height="50" viewBox="0 0 50 50" fill="none" xmlns="http://www.w3.org/2000/svg">
<path d="M47.9444 0H23.8655C23.8655 6.00013 28.7303 10.8649 34.7304 10.8649H39.1651V15.1512C39.1701 21.138 44.0165 25.9911 49.9983 26.0078H50V2.09563C50 2.09229 50 2.09063 50 2.08729C50 0.945284 49.0831 0.0183389 47.9461 0.00166724H47.9444V0ZM36.0308 11.9936H11.9519C11.9536 17.9937 16.8167 22.8569 22.8168 22.8569H27.2515V27.1448C27.2565 33.1433 32.118 38.0031 38.1164 38.0081V14.0809C38.1164 12.9289 37.1828 11.9953 36.0308 11.9953V11.9936ZM24.1072 23.9855H0C0.00333433 29.9873 4.86979 34.8505 10.8716 34.8505C10.8816 34.8505 10.8916 34.8505 10.9016 34.8505H15.3379V39.1351C15.3379 45.1335 20.1994 49.9967 26.1979 50V26.0795C26.1979 24.9225 25.2609 23.9855 24.1039 23.9855H24.1072Z" fill="white"/>
</svg>
