<svg width="51" height="50" viewBox="0 0 51 50" fill="none" xmlns="http://www.w3.org/2000/svg">
<path d="M50.2876 48.7831L49.229 47.7745C48.706 47.0848 48.1496 46.4743 47.5432 45.9179L47.5328 45.9096C46.9105 45.3442 46.2638 44.8066 45.5928 44.2967C45.0552 43.9272 44.3162 43.482 43.3757 42.961C42.6026 42.613 41.9983 42.0025 41.6712 41.244L41.6628 41.2232L41.5628 41.1732C42.0046 41.1294 42.4088 41.0481 42.7964 40.9335L42.7485 40.946L43.9362 40.6189C44.428 40.4647 44.9969 40.3647 45.5866 40.3417H45.5991C46.22 40.3167 46.8056 40.2167 47.364 40.0521L47.3119 40.0646C47.5814 39.9979 47.8586 39.9222 48.1434 39.8375C48.4281 39.7527 48.6719 39.677 48.8748 39.6103V39.2582C48.6733 38.9567 48.4295 38.6122 48.1434 38.2246C47.8704 37.8537 47.5641 37.5307 47.2203 37.2494L47.2098 37.2411C46.336 36.4687 45.431 35.7213 44.4947 34.999C43.6695 34.3551 42.7339 33.6987 41.7629 33.0902L41.6212 33.0069C41.1086 32.6693 40.5209 32.3567 39.9021 32.1004L39.8312 32.0754C39.2089 31.8226 38.5955 31.5455 37.9912 31.244C37.7891 31.144 37.5537 31.0565 37.3099 30.996L37.2869 30.9919C37.0431 30.9419 36.8348 30.8168 36.6826 30.6397L36.6806 30.6376C36.393 30.2584 36.1409 29.827 35.9408 29.3686L35.9241 29.3269C35.7227 28.856 35.5046 28.4038 35.2698 27.9704C34.7656 26.9952 34.278 26.004 33.807 24.9969C33.3361 23.9897 32.8839 22.9812 32.4505 21.9712C32.1491 21.2989 31.8719 20.6272 31.6191 19.9562C31.3399 19.2186 31.0252 18.5872 30.6585 17.9933L30.6856 18.0413C29.7854 16.5076 28.8873 15.199 27.9121 13.955L27.9704 14.0342C27.0056 12.8173 26.0054 11.7295 24.9302 10.721L24.9135 10.7064C23.8529 9.71036 22.711 8.76016 21.5128 7.88081L21.4107 7.80788C20.166 6.90352 18.8046 6.01306 17.3265 5.13649C16.7327 4.78641 16.0429 4.50094 15.3157 4.31757L15.2615 4.30506L12.9423 3.72578L11.6316 3.62576C11.1954 3.59242 10.7585 3.57574 10.3209 3.57574C10.0125 3.41321 9.74786 3.21942 9.51448 2.99437C9.28527 2.77558 9.0373 2.56929 8.77891 2.37966L8.75807 2.36508C7.4974 1.62951 6.03251 0.956449 4.50094 0.427172L4.32382 0.372994C3.92165 0.137529 3.43822 0 2.92353 0C2.55678 0 2.20463 0.0708481 1.88373 0.197958L1.90248 0.191707C1.11065 0.506355 0.506355 1.14607 0.245885 1.94207L0.239633 1.96291C0.0875182 2.32132 0 2.73599 0 3.17358C0 3.9404 0.27089 4.64263 0.723067 5.19066L0.7189 5.18441C1.47461 6.19157 2.0539 6.9834 2.45676 7.55991C2.75821 7.96416 3.06939 8.38439 3.39029 8.82059C3.6841 9.21234 3.94457 9.66035 4.15503 10.1334L4.1717 10.1771C4.28839 10.4251 4.3905 10.721 4.46551 11.0252L4.47176 11.0586C4.53845 11.3447 4.62249 11.6559 4.7239 11.9921C5.02535 12.7645 5.31083 13.5563 5.58033 14.3676C5.87414 15.2532 6.19921 16.0033 6.57637 16.7181L6.53678 16.6347C6.73821 17.0042 6.94033 17.3654 7.14315 17.7183C7.34597 18.0711 7.56408 18.4156 7.79746 18.7518C7.9329 18.956 8.10377 19.1248 8.29965 19.2561L8.3059 19.2603C8.51219 19.4103 8.64764 19.6458 8.65805 19.9125C8.4205 20.2626 8.26005 20.6835 8.20588 21.1357L8.20379 21.1482C8.13086 21.6753 8.02667 22.1442 7.88498 22.5964L7.90165 22.5339C7.43697 23.9216 7.17024 25.522 7.17024 27.1827C7.17024 27.7204 7.19733 28.2496 7.25359 28.7727L7.24734 28.7081C7.37237 30.7043 7.97458 32.538 8.93936 34.1259L8.91019 34.0738C9.32069 34.6885 9.76037 35.224 10.2459 35.7137C10.596 36.1054 11.1044 36.3513 11.6712 36.3513C11.9879 36.3513 12.288 36.2742 12.5505 36.1367L12.5401 36.1409C13.2694 35.8783 13.7883 35.2115 13.8258 34.4176V34.4134C13.9258 33.4257 14.0758 32.5422 14.2821 31.6795L14.2551 31.8191C14.3051 31.6879 14.3342 31.5378 14.3342 31.3795C14.3342 31.3482 14.3322 31.3169 14.3301 31.2857V31.2899C14.3134 31.1384 14.4058 30.9953 14.6072 30.8606V30.9606C14.8086 31.4315 15.0184 31.9018 15.2365 32.3713C15.4546 32.8409 15.681 33.3111 15.9158 33.782C16.5305 34.7176 17.1827 35.5345 17.8996 36.2867L17.8933 36.2805C18.6122 37.0556 19.3957 37.7516 20.2417 38.3663L20.2876 38.3976C20.7293 38.7352 21.1169 39.0998 21.467 39.4978L21.4753 39.5061C21.8045 39.8937 22.1984 40.2125 22.6422 40.4522L22.6631 40.4626V40.4126H22.7631C22.6818 40.2313 22.5505 40.0854 22.388 39.9854L22.3838 39.9833C22.2192 39.8916 22.0775 39.8 21.9442 39.6999L21.9546 39.7062C21.6531 39.4047 21.3419 39.0686 21.021 38.6976C20.7001 38.3267 20.4063 37.9739 20.1396 37.6391C19.4339 36.6639 18.7609 35.6449 18.1204 34.5822C17.48 33.5195 16.875 32.4394 16.3055 31.3419C16.036 30.8043 15.7755 30.2501 15.5241 29.6791C15.2726 29.1081 15.0288 28.5539 14.7927 28.0163C14.6906 27.81 14.6197 27.5724 14.5926 27.3203V27.3099C14.5801 27.0702 14.4426 26.8639 14.2425 26.7577L14.2384 26.7556C13.9862 27.1848 13.707 27.5557 13.3882 27.8912L13.3903 27.8891C13.059 28.2371 12.7881 28.6476 12.5943 29.0977L12.5839 29.1248C12.2901 29.8375 12.0754 30.6647 11.9817 31.5295L11.9775 31.5691C11.8775 32.4595 11.7768 33.375 11.6753 34.3155L11.5753 34.3655L11.5253 34.4155C10.9835 34.3051 10.5376 33.9592 10.2959 33.4924L10.2917 33.482C10.0389 32.9944 9.81246 32.5151 9.61242 32.0442C9.09565 30.7168 8.77474 29.1811 8.73099 27.5766V27.5578C8.71223 27.3036 8.7039 27.0056 8.7039 26.7076C8.7039 25.3199 8.92269 23.9821 9.32694 22.7276L9.30194 22.8193C9.40196 22.4498 9.62006 21.8275 9.95624 20.9523C10.2924 20.0771 10.3598 19.4721 10.1584 19.1373C10.0542 18.7935 9.86039 18.5039 9.60617 18.283L9.60408 18.2809C9.34986 18.06 9.11857 17.8287 8.90602 17.5828L8.89977 17.5745C8.665 17.2355 8.43856 16.8743 8.22046 16.4909C8.00236 16.1075 7.80927 15.7297 7.64118 15.3574C7.29735 14.5614 6.9452 13.5632 6.65347 12.538L6.60763 12.3526C6.27631 11.1752 5.90748 10.1792 5.46989 9.22067L5.52407 9.35403C5.29277 8.82892 5.02396 8.37466 4.7114 7.95999L4.7239 7.97666C4.38494 7.52379 4.0821 7.09523 3.81538 6.69098C3.47642 6.25478 3.14024 5.83455 2.80683 5.4303C2.46718 5.0198 2.16503 4.5572 1.91915 4.06126L1.9004 4.01959C1.80038 3.81746 1.71286 3.582 1.65243 3.3382L1.64826 3.31527C1.62534 3.24234 1.61284 3.15691 1.61284 3.07147C1.61284 2.9006 1.66285 2.74015 1.75036 2.60679L1.74828 2.61096C1.7712 2.49427 1.82538 2.39216 1.9004 2.30881C1.98166 2.23588 2.08585 2.1817 2.19837 2.15878H2.20254C2.37966 2.04418 2.59429 1.97541 2.82767 1.97541C3.00271 1.97541 3.17149 2.015 3.31944 2.08585L3.31319 2.08377C3.76954 2.21296 4.13836 2.34215 4.49885 2.4901L4.42384 2.46301C5.06147 2.73251 5.64979 2.99298 6.18879 3.24443C6.80975 3.54032 7.33903 3.85289 7.83913 4.20088L7.80163 4.17587C8.07113 4.34396 8.33993 4.52872 8.60804 4.73015C8.87615 4.93158 9.16163 5.13371 9.46447 5.33653H10.1709C10.7085 5.33653 11.2794 5.36223 11.8837 5.41363C12.4943 5.46155 13.059 5.57616 13.5966 5.75537L13.5466 5.74078C14.5489 6.03876 15.4095 6.39091 16.2263 6.81392L16.1409 6.77433C16.9646 7.19386 17.7461 7.63909 18.4851 8.11002C19.7124 8.87477 20.7731 9.65826 21.7712 10.5147L21.7358 10.4855C22.7777 11.3774 23.7237 12.2921 24.6114 13.259L24.6322 13.284C25.4991 14.23 26.3263 15.2573 27.0827 16.3347L27.1473 16.4326C27.8433 17.4161 28.5455 18.5539 29.1769 19.7333L29.2644 19.9104C29.4332 20.2313 29.6041 20.6251 29.752 21.0273L29.775 21.0961C29.9097 21.4823 30.0604 21.8782 30.2271 22.2838C30.5967 23.1243 30.9926 23.9724 31.4149 24.8281C31.8372 25.6838 32.2331 26.5159 32.6026 27.3244L33.7112 29.7437C34.1009 30.5897 34.5364 31.319 35.0427 31.9921L35.0198 31.9608C35.4428 32.413 36.0075 32.7297 36.641 32.8402L36.6576 32.8423C37.4245 33.034 38.0704 33.2507 38.6956 33.507L38.5976 33.4716C38.8956 33.607 39.279 33.7508 39.6728 33.8779L39.7562 33.9008C40.198 34.0363 40.5814 34.2155 40.9335 34.4405L40.9148 34.4301C41.5962 34.8114 42.1734 35.1865 42.7235 35.5949L42.6797 35.5637C43.2507 35.9832 43.8216 36.3791 44.3926 36.7514C44.6621 36.9528 45.1143 37.2467 45.7491 37.6328C46.384 38.019 46.7201 38.3802 46.7577 38.7164C46.5201 38.7081 46.2388 38.7018 45.9575 38.7018C44.9323 38.7018 43.9237 38.7685 42.936 38.8977L43.0527 38.8852C41.9358 39.0352 40.9231 39.3082 39.9708 39.6979L40.0542 39.6687C39.8187 39.7708 39.5374 39.8646 39.2457 39.9375L39.2061 39.9458C38.9102 39.9896 38.681 40.2271 38.6518 40.523C38.7789 40.6814 38.881 40.8668 38.9498 41.0669L38.9539 41.0794C39.0248 41.2919 39.1102 41.4753 39.2144 41.6462L39.2082 41.6337C39.4561 42.0733 39.7229 42.4526 40.0229 42.8027L40.0146 42.7923C40.3084 43.1548 40.6397 43.4695 41.0065 43.7383L41.021 43.7487C41.36 44.0182 41.7129 44.2953 42.0796 44.5801C42.4151 44.8427 42.7943 45.1011 43.1882 45.3344L43.2382 45.3615C43.83 45.7241 44.5176 46.07 45.2344 46.3597L45.3303 46.393C46.1096 46.7056 46.7785 47.0681 47.3995 47.4995L47.3661 47.4766C47.7704 47.7113 48.1732 47.9718 48.5747 48.258C48.9762 48.5441 49.3624 48.8213 49.7333 49.0894C49.8854 49.2394 50.0188 49.4061 50.1313 49.5874L50.1375 49.5978C50.3271 49.8145 50.5897 49.9625 50.8877 50H50.8939V49.9C50.7106 49.7604 50.5751 49.5666 50.5105 49.3436L50.5084 49.3353C50.4563 49.1227 50.3792 48.9373 50.2751 48.7664L50.2792 48.7747L50.2876 48.7831ZM11.5795 8.76433C11.31 8.76433 11.0579 8.77266 10.8231 8.78933C10.5835 8.806 10.3605 8.84976 10.15 8.92061L10.1688 8.91436V8.96437H10.2688C10.4036 9.1658 10.573 9.39223 10.7772 9.64368C10.9815 9.89512 11.1662 10.1389 11.3315 10.3751L12.1379 12.0379L12.238 11.9879C12.4734 11.817 12.6547 11.5878 12.7631 11.319L12.7672 11.3086C12.8756 11.019 12.9381 10.6814 12.9381 10.3313C12.9381 10.2938 12.9381 10.2563 12.936 10.2188V10.225C12.8423 10.1334 12.7652 10.025 12.711 9.90415L12.7089 9.89789L12.5401 9.51865C12.4297 9.34361 12.2755 9.20608 12.0942 9.11857L12.0879 9.11648C11.8921 9.02271 11.7254 8.90394 11.5795 8.76433Z" fill="white"/>
</svg>
