<svg width="50" height="50" viewBox="0 0 50 50" fill="none" xmlns="http://www.w3.org/2000/svg">
<path d="M37.1105 46.8769C36.9251 46.9748 36.9355 47.0144 37.121 46.9206C37.1752 46.8974 37.2247 46.8641 37.2668 46.8227C37.2668 46.7894 37.2626 46.7936 37.1105 46.8769ZM37.4814 46.681C37.3939 46.7498 37.3939 46.754 37.5002 46.6998C37.5585 46.6706 37.6085 46.6373 37.6085 46.6269C37.6085 46.5873 37.5835 46.5977 37.4814 46.681ZM37.7252 46.5331C37.6377 46.6019 37.6377 46.606 37.7439 46.5519C37.8023 46.5227 37.8523 46.4894 37.8523 46.479C37.8523 46.4394 37.8273 46.4498 37.7252 46.5331ZM37.9689 46.3873C37.8814 46.456 37.8814 46.4602 37.9877 46.406C38.046 46.3769 38.096 46.3435 38.096 46.3331C38.096 46.2935 38.071 46.3039 37.9689 46.3873ZM38.3065 46.1685C38.1356 46.2769 38.0814 46.3498 38.2335 46.2664C38.3419 46.2039 38.5169 46.0706 38.4877 46.0664C38.4238 46.0939 38.363 46.1281 38.3065 46.1685ZM23.3618 0.00743411C23.2535 0.0178514 22.9118 0.0511867 22.6034 0.0761882C15.503 0.71581 8.85053 4.54729 4.63778 10.4372C2.30881 13.67 0.794978 17.4174 0.225013 21.3608C0.0250015 22.7338 0 23.1401 0 25.0027C0 26.8653 0.0250015 27.2695 0.225013 28.6446C1.58343 38.0326 8.26508 45.9206 17.326 48.8437C18.949 49.3666 20.6596 49.7229 22.6034 49.9375C23.3618 50.0208 26.6349 50.0208 27.3933 49.9375C30.7498 49.5666 33.5958 48.7353 36.4001 47.304C36.8293 47.0832 36.9126 47.0248 36.8543 46.9769C35.4844 45.1669 34.1274 43.3473 32.7832 41.5182L28.7851 36.1179L23.7764 28.705C22.1111 26.2245 20.4297 23.7549 18.7324 21.2962C18.7136 21.292 18.6928 24.586 18.6844 28.6071C18.6699 35.6491 18.6657 35.9325 18.5761 36.0992C18.4911 36.2939 18.3387 36.4515 18.1469 36.5429C17.9907 36.6221 17.8531 36.6367 17.1156 36.6367H16.2697L16.0447 36.495C15.9059 36.4075 15.7929 36.2845 15.7176 36.1388L15.6155 35.9179L15.6259 26.1194L15.6405 16.3167L15.7926 16.1271C15.8948 16.0071 16.0176 15.9062 16.1551 15.8292C16.3551 15.7313 16.4343 15.7209 17.2802 15.7209C18.2782 15.7209 18.4428 15.7605 18.7032 16.0438C20.7307 19.0612 22.7413 22.0899 24.7348 25.1298C27.9808 30.0509 32.4165 36.77 34.5979 40.0702L38.5565 46.0664L38.7565 45.9352C40.6613 44.6682 42.3884 43.1526 43.8922 41.4286C47.0423 37.8236 49.0853 33.3861 49.7759 28.6487C49.9759 27.2757 50.0009 26.8695 50.0009 25.0068C50.0009 23.1442 49.9759 22.74 49.7759 21.365C48.4175 11.9769 41.7358 4.08893 32.6749 1.16584C30.9816 0.626737 29.2377 0.261634 27.4704 0.0761882C27.0016 0.0282687 23.7702 -0.0259012 23.366 0.0136845L23.3618 0.00743411ZM33.5958 15.1292C33.7123 15.1877 33.816 15.2689 33.9007 15.368C33.9855 15.4671 34.0497 15.5821 34.0895 15.7063C34.1291 15.8334 34.1375 18.5502 34.1291 24.6735L34.1145 33.4615L32.5644 31.0864L31.0102 28.7112V22.3233C31.0102 18.1939 31.0289 15.873 31.0581 15.7605C31.0934 15.6306 31.1544 15.5092 31.2374 15.4032C31.3204 15.2973 31.4238 15.2091 31.5415 15.1438C31.7415 15.0417 31.8144 15.0312 32.5832 15.0312C33.3062 15.0312 33.4332 15.0417 33.5958 15.1292Z" fill="white"/>
</svg>
