<svg width="50" height="32" viewBox="0 0 50 32" fill="none" xmlns="http://www.w3.org/2000/svg">
<path d="M34.3561 0C34.1029 0 33.871 0.202873 33.871 0.485131V9.3498L31.8611 8.17792C31.7353 8.10373 31.5935 8.06767 31.4516 8.06767C31.3097 8.06767 31.1679 8.10373 31.0421 8.17792L26.2128 10.9942C25.9612 11.1394 25.8065 11.408 25.8065 11.6967V17.3356C25.8065 17.6259 25.9612 17.8929 26.2128 18.0381L31.0421 20.8543C31.1679 20.9285 31.3097 20.9646 31.4516 20.9646C31.5935 20.9646 31.7353 20.9285 31.8611 20.8543L36.6904 18.0381C36.942 17.8929 37.0968 17.6243 37.0968 17.3356V14.5161V11.6967V1.98463C37.0968 1.69753 36.9435 1.43359 36.6967 1.28843L34.5955 0.0661542C34.5165 0.0209929 34.4367 0 34.3561 0ZM18.5484 8.06767C18.4069 8.06767 18.2655 8.10454 18.1389 8.17792L13.3096 10.9942C13.058 11.1394 12.9032 11.408 12.9032 11.6967V17.3356C12.9032 17.6259 13.058 17.8929 13.3096 18.0381L18.1389 20.8543C18.3921 21.0011 18.7047 21.0011 18.9579 20.8543L23.7872 18.0381C24.0388 17.8929 24.1935 17.6243 24.1935 17.3356V11.6967C24.1935 11.4064 24.0388 11.1394 23.7872 10.9942L18.9579 8.17792C18.8313 8.10453 18.6899 8.06767 18.5484 8.06767ZM44.3548 8.06767C44.2129 8.06767 44.0711 8.10373 43.9453 8.17792L39.1161 10.9942C38.8644 11.1394 38.7097 11.408 38.7097 11.6967V17.3356C38.7097 17.6259 38.8644 17.8929 39.1161 18.0381L43.8004 20.8701C44.052 21.0233 44.3678 21.0248 44.6226 20.8764L46.9254 19.5375C47.1641 19.4005 47.1657 19.0541 46.9254 18.9138L41.9355 15.9747V13.0796L44.3548 11.6715L46.7742 13.0796V15.0958C46.7742 15.3651 47.0006 15.4066 47.1522 15.3163C47.7619 14.9582 49.5999 13.8924 49.5999 13.8924C49.8467 13.7488 50 13.4833 50 13.1962V11.6967C50 11.4064 49.8452 11.1394 49.5936 10.9942L44.7644 8.17792C44.6369 8.10373 44.4968 8.06767 44.3548 8.06767ZM5.64516 8.07082C5.50323 8.07082 5.36144 8.10688 5.23564 8.18107L0.406376 10.9942C0.154763 11.141 0 11.4095 0 11.6998V18.8981C0 19.2497 0.380368 19.4676 0.683594 19.2918L2.82573 18.0444C3.0725 17.8992 3.22581 17.6353 3.22581 17.3482V13.0859L5.64516 11.6746L8.06452 13.0859V17.3482C8.06452 17.6353 8.21782 17.8992 8.46459 18.0444L10.6067 19.2918C10.91 19.4693 11.2903 19.2497 11.2903 18.8981V11.6998C11.2903 11.4095 11.1356 11.141 10.8839 10.9942L6.05469 8.18107C5.92888 8.10688 5.7871 8.07082 5.64516 8.07082ZM31.4516 11.6715L33.871 13.0828V14.5161V15.9495L31.4516 17.3608L29.0323 15.9495V13.0828L31.4516 11.6715ZM44.3548 12.9095L42.9719 13.716V15.3257L44.3548 16.129L45.7378 15.3257V13.716L44.3548 12.9095ZM24.8488 19.3517C24.6829 19.3517 24.5151 19.3923 24.37 19.4745L19.8337 22.0955C19.5353 22.26 19.3548 22.5838 19.3548 22.9209V28.1565C19.3548 28.4936 19.5433 28.8109 19.8337 28.9819L21.0276 29.6623C21.6002 29.9446 21.8106 29.9458 22.0703 29.9458C22.9252 29.9458 23.4123 29.4346 23.4123 28.5314V23.3587C23.4123 23.2797 23.351 23.2233 23.28 23.2233H22.7067C22.6276 23.2233 22.5712 23.2878 22.5712 23.3587V28.5314C22.5712 28.9233 22.157 29.3253 21.4812 28.9882L20.24 28.2731C20.1997 28.2489 20.1707 28.2001 20.1707 28.1534V22.9177C20.1707 22.8709 20.1933 22.8159 20.24 22.7917L24.7763 20.177C24.8247 20.1528 24.8794 20.1528 24.9181 20.177L29.4575 22.7917C29.5043 22.8159 29.5268 22.8629 29.5268 22.9177V28.1534C29.5268 28.2082 29.4962 28.2552 29.4575 28.2794L24.9181 30.9035C24.8778 30.9277 24.815 30.9277 24.7763 30.9035L23.6171 30.2136C23.5864 30.1975 23.5374 30.188 23.5068 30.2041C23.1858 30.3928 23.1216 30.4175 22.8232 30.5192C22.7442 30.5433 22.6367 30.5918 22.8642 30.7176L24.37 31.6123C24.52 31.6913 24.6843 31.7383 24.8488 31.7383C25.0214 31.7383 25.1891 31.6915 25.3213 31.606L29.8576 28.9819C30.156 28.8173 30.3364 28.4936 30.3364 28.1565V22.9209C30.3364 22.5838 30.1479 22.2681 29.8576 22.0955L25.3213 19.4745C25.1802 19.3923 25.0147 19.3517 24.8488 19.3517ZM31.9241 21.7679C31.4612 21.7679 31.0547 22.1422 31.0547 22.6373C31.0547 23.1164 31.4451 23.51 31.9241 23.51C32.4032 23.51 32.7936 23.1164 32.7936 22.6373C32.7936 22.1422 32.3951 21.7598 31.9241 21.7679ZM31.9147 21.9065C32.3244 21.9065 32.655 22.2293 32.655 22.6373C32.655 23.0373 32.3228 23.368 31.9147 23.3776C31.5131 23.3776 31.187 23.0454 31.187 22.6373C31.187 22.2293 31.5147 21.9065 31.9147 21.9065ZM31.5965 22.1428V23.1225H31.7824V22.7319H31.9556C32.0266 22.7319 32.0435 22.7621 32.0596 22.8169C32.0596 22.825 32.0893 23.0789 32.0974 23.1256H32.299C32.2764 23.0789 32.2598 22.9448 32.2518 22.8642C32.2292 22.7384 32.2218 22.6517 32.088 22.6436C32.1589 22.6195 32.277 22.5817 32.277 22.4011C32.277 22.1414 32.0513 22.1428 31.9336 22.1428H31.5965ZM31.7824 22.3003H31.9399C31.9883 22.3003 32.0817 22.2987 32.0817 22.4326C32.0817 22.4874 32.0579 22.576 31.9304 22.5743H31.7824V22.3003ZM26.0648 23.1004C24.7696 23.1004 24.0014 23.6524 24.0014 24.5621C24.0014 25.5589 24.7709 25.8256 26.0112 25.9514C27.4951 26.0997 27.6115 26.3131 27.6115 26.6035C27.6115 27.1131 27.2024 27.3248 26.2443 27.3248C25.0427 27.3248 24.7784 27.027 24.6913 26.4302C24.6832 26.3673 24.6268 26.3199 24.5558 26.3199H23.9667C23.8958 26.3199 23.8344 26.3764 23.8344 26.4554C23.8344 27.2167 24.2494 28.1281 26.2349 28.1281C27.6913 28.1265 28.5156 27.5623 28.5156 26.5719C28.5156 25.5913 27.8553 25.3305 26.4585 25.1418C25.0456 24.953 24.9055 24.8581 24.9055 24.5275C24.9055 24.2533 25.0212 23.8943 26.0648 23.8943C26.9986 23.8943 27.3467 24.0985 27.4887 24.7259C27.5048 24.7888 27.5486 24.8267 27.6115 24.8267H28.2006C28.2393 24.8267 28.2725 24.8115 28.2951 24.7889C28.3193 24.7583 28.3347 24.7268 28.3266 24.6881C28.2331 23.6043 27.518 23.1004 26.0648 23.1004Z" fill="white"/>
</svg>
