<svg width="55" height="50" viewBox="0 0 55 50" fill="none" xmlns="http://www.w3.org/2000/svg">
<path d="M27.5128 20.0764C28.4572 20.0765 29.3804 20.3601 30.1663 20.8918C30.9522 21.4234 31.5656 22.1791 31.9293 23.0639C32.293 23.9487 32.3907 24.9229 32.2102 25.864C32.0296 26.805 31.5789 27.6708 30.9147 28.3523C30.2504 29.0338 29.4025 29.5006 28.4775 29.6939C27.5525 29.8872 26.5918 29.7984 25.7165 29.4386C24.8411 29.0788 24.0902 28.4642 23.5582 27.672C23.0262 26.8799 22.737 25.9457 22.7269 24.987C22.7235 24.3455 22.8446 23.7097 23.0833 23.1158C23.322 22.5218 23.6736 21.9814 24.118 21.5254C24.5624 21.0694 25.091 20.7068 25.6734 20.4581C26.2559 20.2095 26.8809 20.0798 27.5128 20.0764ZM15.6631 45.7726C17.2755 46.76 20.7818 45.253 24.8767 41.3557C23.508 39.7768 22.2182 38.1292 21.0121 36.4191C18.9478 36.1844 16.8974 35.8375 14.8697 35.3798C13.5644 40.94 14.0507 44.7593 15.6631 45.7726ZM17.4802 30.8589L16.738 29.5339C16.4487 30.2636 16.2009 31.0097 15.9958 31.7683C16.6868 31.9242 17.4546 32.0541 18.248 32.184L17.4802 30.8589ZM34.2182 28.8843L36.2913 24.987L34.2182 21.0897C33.4504 19.7127 32.6315 18.4915 31.8893 17.2703C30.5072 17.1924 29.0484 17.1924 27.5128 17.1924C25.9772 17.1924 24.5184 17.1924 23.1363 17.1924C22.3941 18.4136 21.5752 19.6347 20.8074 21.0118L18.7343 24.987L20.8074 28.8843C21.5752 30.2614 22.3941 31.4825 23.1363 32.7037C24.5184 32.7037 25.9772 32.7037 27.5128 32.7037C29.0484 32.7037 30.5072 32.7037 31.8893 32.7037C32.6315 31.4825 33.4504 30.2614 34.2182 28.8843ZM27.5128 11.4244C27.0265 11.996 26.5147 12.5936 26.0028 13.2951H29.0228C28.5109 12.5936 27.9991 11.996 27.5128 11.4244ZM27.5128 38.5496C27.9991 37.978 28.5109 37.3804 29.0228 36.6789H26.0028C26.5147 37.3804 27.0265 37.978 27.5128 38.5496ZM39.3369 4.20138C37.7501 3.21406 34.2182 4.72102 30.1489 8.61833C31.5176 10.1973 32.8074 11.8449 34.0135 13.5549C36.0759 13.7553 38.1263 14.0675 40.1559 14.4903C41.4611 8.93011 40.9749 5.11075 39.3369 4.09745M37.5454 19.0111L38.2876 20.3362C38.5769 19.6064 38.8247 18.8604 39.0298 18.1018C38.3388 17.9459 37.571 17.816 36.7776 17.6861L37.5454 19.0111ZM41.2564 0.823716C45.0186 3.00621 45.4281 8.74824 43.8157 15.4516C50.3164 17.4003 55 20.648 55 25.013C55 29.378 50.3164 32.6257 43.8157 34.5744C45.4025 41.2777 44.993 47.0198 41.2564 49.2023C37.5198 51.3848 32.4267 48.8905 27.5128 44.1358C22.5989 48.8905 17.5058 51.3848 13.7436 49.2023C9.98139 47.0198 9.59749 41.4077 11.1843 34.5744C4.68357 32.6257 0 29.378 0 25.013C0 20.648 4.68357 17.3743 11.1843 15.4256C9.59749 8.72225 10.007 2.98022 13.7436 0.797734C17.4802 -1.38476 22.5989 1.10952 27.5128 5.86423C32.4267 1.10952 37.5198 -1.38476 41.2564 0.797734M40.5142 24.987C41.4031 26.8997 42.1891 28.8599 42.8688 30.8589C48.2434 29.2221 51.2634 26.8837 51.2634 24.987C51.2634 23.0903 48.1666 20.7519 42.8688 19.1151C42.1891 21.1142 41.4031 23.0744 40.5142 24.987ZM14.5114 24.987C13.6225 23.0744 12.8365 21.1142 12.1568 19.1151C6.78222 20.7519 3.76222 23.0903 3.76222 24.987C3.76222 26.8837 6.859 29.2221 12.1568 30.8589C12.8365 28.8599 13.6225 26.8997 14.5114 24.987ZM37.5454 30.8589L36.7776 32.184C37.571 32.184 38.3388 31.9242 39.0298 31.7683C38.8247 31.0097 38.5769 30.2636 38.2876 29.5339L37.5454 30.8589ZM30.0721 41.3557C34.1415 45.253 37.7501 46.76 39.2601 45.7726C40.7701 44.7853 41.3844 41.0439 40.0791 35.3798C38.0495 35.8026 35.9991 36.1148 33.9367 36.3152C32.7334 38.0607 31.4435 39.743 30.0721 41.3557ZM17.4802 19.1151L18.248 17.79C17.4546 17.79 16.6868 18.0498 15.9958 18.2057C16.2009 18.9643 16.4487 19.7104 16.738 20.4402L17.4802 19.1151ZM24.9535 8.61833C20.8074 4.72102 17.2755 3.21406 15.6631 4.20138C14.0507 5.1887 13.5644 8.93011 14.8697 14.5942C16.8993 14.1714 18.9497 13.8592 21.0121 13.6588C22.2403 11.9115 23.5559 10.2292 24.9535 8.61833Z" fill="white"/>
</svg>
