<svg width="50" height="50" viewBox="0 0 50 50" fill="none" xmlns="http://www.w3.org/2000/svg">
<g clip-path="url(#clip0_61_738)">
<path d="M35.0801 34.49C36.8661 34.312 38.2501 32.816 38.2501 30.998C38.2501 30.926 38.2481 30.854 38.2441 30.782V30.792C38.1501 28.866 36.5761 27.34 34.6421 27.32H34.5121C32.5761 27.392 31.0341 28.978 31.0341 30.924C31.0341 30.968 31.0341 31.012 31.0361 31.058V31.052C31.0881 31.998 31.4761 32.846 32.0801 33.486L32.0781 33.484C29.7041 37.912 26.0761 41.404 21.6701 43.546L21.5321 43.606C19.1481 44.926 16.3041 45.702 13.2781 45.702C12.5121 45.702 11.7561 45.652 11.0181 45.556L11.1061 45.566C8.38414 45.304 6.04014 43.878 4.55214 41.798L4.53414 41.77C3.46014 40.26 2.81814 38.38 2.81814 36.348C2.81814 34.674 3.25414 33.102 4.02014 31.738L3.99614 31.786C5.09014 29.714 6.58214 27.99 8.38414 26.662L8.42614 26.634C8.08414 25.728 7.77814 24.636 7.56214 23.514L7.54014 23.382C-1.82586 30.08 -0.87586 39.242 1.96814 43.572C4.45414 46.744 8.28614 48.764 12.5901 48.764C12.7861 48.764 12.9801 48.76 13.1741 48.752H13.1461C13.2161 48.754 13.3001 48.754 13.3841 48.754C14.6781 48.754 15.9361 48.604 17.1441 48.322L17.0321 48.344C25.0481 46.876 31.6121 41.71 34.9801 34.716L35.0441 34.568L35.0801 34.49Z" fill="white"/>
<path d="M46.3598 26.598C41.5538 21.118 34.5398 17.678 26.7198 17.678C26.4818 17.678 26.2418 17.682 26.0058 17.688H26.0418H24.9658C24.3998 16.554 23.2458 15.788 21.9138 15.788C21.8738 15.788 21.8358 15.788 21.7958 15.79H21.8018H21.7238C19.7918 15.818 18.2358 17.39 18.2358 19.326C18.2358 19.384 18.2378 19.44 18.2398 19.496V19.488C18.3298 21.414 19.9038 22.944 21.8398 22.964H21.9978C23.4258 22.908 24.6318 22.02 25.1518 20.776L25.1598 20.752H26.3298C31.4378 20.758 36.1778 22.326 40.0978 25.008L40.0138 24.954C43.0758 26.914 45.4398 29.73 46.7978 33.064L46.8398 33.18C47.3598 34.264 47.6618 35.536 47.6618 36.878C47.6618 38.298 47.3238 39.638 46.7218 40.822L46.7438 40.772C45.1898 43.944 41.9858 46.088 38.2818 46.088C38.1458 46.088 38.0118 46.086 37.8778 46.08H37.8978C35.6238 46.032 33.4778 45.532 31.5318 44.666L31.6358 44.708C30.8778 45.34 29.6138 46.38 28.6958 47.014C31.1238 48.206 33.9718 48.932 36.9818 49.002H37.0058C37.1238 49.006 37.2618 49.008 37.3998 49.008C42.5038 49.008 46.9738 46.298 49.4518 42.24L49.4878 42.178C50.1718 40.556 50.5678 38.672 50.5678 36.694C50.5678 32.734 48.9758 29.146 46.3978 26.536L46.3998 26.538L46.3698 26.602L46.3598 26.598Z" fill="white"/>
<path d="M13.6882 35.632C13.7762 37.56 15.3542 39.094 17.2942 39.108H17.4222C19.3582 39.042 20.9042 37.454 20.9042 35.508C20.9042 33.528 19.3062 31.92 17.3282 31.906H17.1942C17.1742 31.904 17.1502 31.904 17.1282 31.904C16.9822 31.904 16.8422 31.926 16.7102 31.97L16.7202 31.968C14.5802 28.486 13.3142 24.268 13.3142 19.754C13.3142 19.026 13.3462 18.306 13.4122 17.596L13.4062 17.688C13.5882 13.876 14.9882 10.422 17.2202 7.674L17.1962 7.706C19.1782 5.564 21.9702 4.2 25.0842 4.1H25.1022C31.9262 3.972 34.7722 12.476 34.9922 15.856L38.1562 16.802C37.4202 6.44 30.9762 1 24.8142 1C18.5502 1.326 13.3522 5.54 11.5702 11.262L11.5422 11.366C10.6662 13.89 10.1582 16.798 10.1582 19.824C10.1582 25 11.6402 29.83 14.2002 33.912L14.1362 33.802C13.8502 34.234 13.6802 34.764 13.6802 35.334C13.6802 35.44 13.6862 35.544 13.6982 35.646L13.6962 35.634L13.6882 35.632Z" fill="white"/>
</g>
<defs>
<clipPath id="clip0_61_738">
<rect width="50" height="50" fill="white"/>
</clipPath>
</defs>
</svg>
