<svg width="50" height="50" viewBox="0 0 50 50" fill="none" xmlns="http://www.w3.org/2000/svg">
<path d="M25 0C29.9445 0 34.778 1.46622 38.8892 4.21326C43.0005 6.96029 46.2048 10.8648 48.097 15.4329C49.9892 20.0011 50.4842 25.0277 49.5196 29.8772C48.555 34.7268 46.174 39.1813 42.6777 42.6777C39.1813 46.174 34.7268 48.555 29.8772 49.5196C25.0277 50.4843 20.0011 49.9892 15.4329 48.097C10.8648 46.2048 6.96029 43.0005 4.21326 38.8892C1.46622 34.778 0 29.9445 0 25C0 18.3696 2.63392 12.0107 7.32233 7.32233C12.0107 2.63392 18.3696 0 25 0ZM20 33.325C20.376 34.5467 20.376 35.8533 20 37.075C20 37.2 20 37.325 19.85 37.5C19.7 37.675 19.85 37.675 19.675 37.8C19.3856 38.4173 18.9971 38.9831 18.525 39.475C17.075 41.075 15 41.675 14.175 41.175C13.35 40.675 13.75 38.375 15.4 36.6C16.6921 35.3254 18.177 34.2623 19.8 33.45L20 33.325ZM40.675 10.825C39.55 6.375 32.175 4.925 25.225 7.4C20.8677 8.82577 16.8329 11.0937 13.35 14.075C9.525 17.675 8.9 20.8 9.15 22.1C10 26.7 16.35 29.725 18.95 31.95C18.2 32.325 12.6 35.15 11.25 38.05C10.6791 38.9558 10.4902 40.0507 10.7244 41.0955C10.9586 42.1402 11.597 43.0497 12.5 43.625C14.1033 44.0118 15.7874 43.8871 17.3163 43.2684C18.8451 42.6497 20.142 41.568 21.025 40.175C21.7551 39.0505 22.2123 37.7709 22.3598 36.4383C22.5074 35.1057 22.3414 33.757 21.875 32.5C23.128 32.207 24.4232 32.1393 25.7 32.3C30.1 32.825 30.95 35.55 30.7 36.7C30.6255 37.1084 30.4642 37.4961 30.227 37.8368C29.9898 38.1776 29.6822 38.4634 29.325 38.675C29.025 38.85 28.925 38.925 28.95 39.075C28.975 39.225 29.125 39.275 29.375 39.225C30.057 39.0395 30.6643 38.6461 31.1124 38.0995C31.5604 37.5528 31.827 36.8802 31.875 36.175C31.875 33.475 29.375 30.475 24.85 30.55C23.5287 30.5191 22.2112 30.7049 20.95 31.1L20.75 30.875C17.925 27.875 12.725 25.875 12.95 21.7C12.95 20.225 13.525 16.375 22.95 11.7C30.65 7.85 36.825 8.9 37.95 11.275C39.475 14.6 34.65 20.825 26.65 21.725C25.774 21.8908 24.8724 21.8625 24.0085 21.6422C23.1447 21.4219 22.3396 21.015 21.65 20.45C21.225 20.025 21.175 19.95 21.025 20.025C20.875 20.1 21.025 20.6 21.025 20.85C21.6607 21.945 22.6882 22.758 23.9 23.125C27.0531 23.8055 30.34 23.482 33.3 22.2C38 20.3 41.8 15 40.675 10.7V10.825Z" fill="white"/>
</svg>
