<svg width="65" height="65" viewBox="0 0 65 65" fill="none" xmlns="http://www.w3.org/2000/svg">
<path d="M33.6088 13C29.8618 13 26.6404 14.158 24.1117 16.6397C21.6013 19.1036 19.959 22.6905 19.048 27.1613C18.8491 28.137 19.2827 29.137 20.0817 29.5456C20.8807 29.9541 21.8205 29.6562 22.3222 28.8354C23.4786 26.9439 24.6332 25.8073 25.7426 25.224C26.817 24.6591 27.975 24.5447 29.3015 24.9515C30.6402 25.3621 31.6765 26.5645 33.3033 28.5905L33.3559 28.656C34.5822 30.1833 36.0782 32.0465 38.1244 33.4921C40.2476 34.9921 42.8897 36 46.3914 36C50.1381 36 53.3597 34.842 55.8884 32.3603C58.3985 29.8964 60.0409 26.3095 60.9521 21.8387C61.1508 20.863 60.7172 19.863 59.9182 19.4544C59.1194 19.0459 58.1794 19.3437 57.6776 20.1646C56.5213 22.0561 55.3669 23.1927 54.2574 23.776C53.1829 24.3409 52.0248 24.4553 50.6983 24.0485C49.3598 23.6379 48.3234 22.4355 46.6967 20.4094L46.6441 20.344C45.4177 18.8166 43.9218 16.9534 41.8756 15.5079C39.7524 14.0079 37.1103 13 33.6088 13Z" fill="white"/>
<path d="M18.6088 31C14.8618 31 11.6404 32.1076 9.11175 34.4815C6.60131 36.8382 4.95902 40.2691 4.04798 44.5456C3.84915 45.4788 4.28273 46.4352 5.08171 46.826C5.88069 47.2168 6.82046 46.932 7.32225 46.1468C8.47861 44.3376 9.6332 43.2504 10.7426 42.6925C11.817 42.1522 12.975 42.0427 14.3015 42.4319C15.6402 42.8246 16.6765 43.9748 18.3033 45.9128L18.3559 45.9752C19.5822 47.436 21.0783 49.2184 23.1244 50.6012C25.2476 52.036 27.8896 53 31.3912 53C35.1382 53 38.3596 51.8924 40.8884 49.5184C43.3985 47.1616 45.0409 43.7308 45.9521 39.4544C46.1508 38.5211 45.7172 37.5645 44.9182 37.1737C44.1194 36.783 43.1794 37.0679 42.6776 37.853C41.5213 39.6623 40.3668 40.7495 39.2574 41.3074C38.183 41.8477 37.0249 41.9572 35.6984 41.5681C34.3598 41.1753 33.3235 40.0251 31.6967 38.0873L31.6441 38.0246C30.4178 36.5637 28.9217 34.7815 26.8756 33.3988C24.7524 31.964 22.1103 31 18.6088 31Z" fill="white"/>
</svg>
