<svg width="61" height="61" viewBox="0 0 61 61" fill="none" xmlns="http://www.w3.org/2000/svg">
<path d="M0 6.58808C0 2.94958 2.94578 0 6.57959 0H53.5767C57.2105 0 60.1562 2.94959 60.1562 6.58808V14.1173C60.1562 15.6767 58.8937 16.9408 57.3364 16.9408C55.7791 16.9408 54.5166 15.6767 54.5166 14.1173V6.58808C54.5166 6.0683 54.0959 5.64693 53.5767 5.64693H6.57959C6.06048 5.64693 5.63965 6.0683 5.63965 6.58808V53.6458C5.63965 54.1657 6.06048 54.587 6.57959 54.587H57.3364C58.8937 54.587 60.1562 55.8511 60.1562 57.4105C60.1562 58.9698 58.8937 60.2339 57.3364 60.2339H6.57959C2.94578 60.2339 0 57.2843 0 53.6458V6.58808ZM17.8589 24.47C17.8589 22.9107 19.1214 21.6466 20.6787 21.6466H34.7778C36.3352 21.6466 37.5977 22.9107 37.5977 24.47C37.5977 26.0294 36.3352 27.2935 34.7778 27.2935H31.0181V47.0577C31.0181 48.6171 29.7556 49.8812 28.1982 49.8812C26.6409 49.8812 25.3784 48.6171 25.3784 47.0577V27.2935H20.6787C19.1214 27.2935 17.8589 26.0294 17.8589 24.47ZM42.394 24.7716C43.9682 22.8951 46.4357 21.6466 49.8169 21.6466C52.9559 21.6466 55.3242 22.722 56.9206 24.4128C57.9902 25.5461 57.9399 27.3331 56.8082 28.4042C55.6765 29.4754 53.8917 29.4251 52.8221 28.2918C52.4089 27.8543 51.5855 27.2935 49.8169 27.2935C47.9344 27.2935 47.1121 27.9273 46.7125 28.4036C46.2203 28.99 46.0571 29.7254 46.0571 30.117C46.0571 30.5085 46.2203 31.2439 46.7125 31.8303C47.1121 32.3066 47.9344 32.9404 49.8169 32.9404C50.1015 32.9404 50.3763 32.9826 50.635 33.0612C53.1281 33.4165 55.0125 34.531 56.2999 36.0655C57.7816 37.8318 58.2764 39.92 58.2764 41.4108C58.2764 42.9016 57.7816 44.9898 56.2999 46.7562C54.7256 48.6329 52.2581 49.8812 48.877 49.8812C45.7379 49.8812 43.3697 48.8057 41.7733 47.115C40.7036 45.9818 40.754 44.1948 41.8857 43.1233C43.0174 42.0523 44.8021 42.1028 45.8718 43.2359C46.285 43.6734 47.1084 44.2343 48.877 44.2343C50.7595 44.2343 51.5817 43.6003 51.9814 43.1241C52.4735 42.5376 52.6367 41.8023 52.6367 41.4108C52.6367 41.0193 52.4735 40.2841 51.9814 39.6975C51.5817 39.2213 50.7595 38.5874 48.877 38.5874C48.5923 38.5874 48.3175 38.5452 48.0588 38.4665C45.5657 38.1111 43.6813 36.9968 42.394 35.4623C40.9123 33.6958 40.4175 31.6077 40.4175 30.117C40.4175 28.6262 40.9123 26.5381 42.394 24.7716Z" fill="white"/>
</svg>
