<svg width="220" height="215" viewBox="0 0 220 215" fill="none" xmlns="http://www.w3.org/2000/svg">
<path d="M75.8909 17.4769C98.6216 2.48179 130.565 5.5383 150.66 27.7959C161.647 39.9696 166.109 56.7151 177.514 68.6276C190.354 82.0292 205.699 95.065 211.518 113.352C217.703 132.788 212.275 155.072 198.444 169.936C181.611 188.014 156.871 182.58 133.488 182.293C37.7367 181.091 -33.4306 117.114 57.127 38.2455C64.6952 31.61 68.3749 22.4144 75.8909 17.4769Z" fill="#CCE9FF"/>
<path d="M160.759 73.4084H130.225C128.503 73.4084 127.094 71.9977 127.094 70.2735V50.4193C127.094 48.6951 128.503 47.2844 130.225 47.2844H160.759C162.482 47.2844 163.891 48.6951 163.891 50.4193V70.2735C163.891 71.9977 162.482 73.4084 160.759 73.4084Z" fill="white"/>
<path d="M125.423 50.9677V70.5868C125.423 73.3037 127.616 75.4981 130.33 75.4981H159.715C162.429 75.4981 164.622 73.3037 164.622 70.5868V50.9677C164.622 48.2508 162.429 46.0564 159.715 46.0564H130.33C127.616 46.0564 125.423 48.2508 125.423 50.9677ZM127.981 71.0831C127.955 70.9264 127.877 70.7696 127.877 70.6129V50.9938C127.877 50.7326 127.955 50.4975 128.033 50.2885L138.394 59.1967L127.981 71.0831ZM159.715 48.512C159.872 48.512 160.028 48.5643 160.185 48.6165L145.023 61.6263L129.86 48.6165C130.017 48.5904 130.147 48.512 130.33 48.512H159.715ZM151.651 59.1445L162.012 50.2362C162.09 50.4713 162.168 50.7065 162.168 50.9416V70.5606C162.168 70.7435 162.116 70.8741 162.064 71.0309L151.651 59.1445ZM130.33 73.0424C130.069 73.0424 129.86 72.9641 129.625 72.9118L140.247 60.7642L144.213 64.1864C144.448 64.3954 144.735 64.4738 145.023 64.4738C145.31 64.4738 145.597 64.3693 145.832 64.1864L149.798 60.7642L160.42 72.9118C160.185 72.9902 159.976 73.0424 159.715 73.0424H130.33Z" fill="#0D7CA0"/>
<path d="M175.635 129.575H152.669C150.947 129.575 149.537 128.164 149.537 126.44V111.967C149.537 110.243 150.947 108.832 152.669 108.832H175.635C177.357 108.832 178.766 110.243 178.766 111.967V126.44C178.766 128.164 177.357 129.575 175.635 129.575Z" fill="white"/>
<path d="M148.702 111.628V127.145C148.702 129.287 150.425 131.038 152.591 131.038H175.843C177.983 131.038 179.732 129.313 179.732 127.145V111.628C179.732 109.485 178.01 107.735 175.843 107.735H152.591C150.451 107.761 148.702 109.485 148.702 111.628ZM150.712 127.537C150.686 127.406 150.633 127.302 150.633 127.145V111.628C150.633 111.419 150.686 111.236 150.738 111.053L158.932 118.08L150.712 127.537ZM175.843 109.694C175.974 109.694 176.078 109.747 176.209 109.773L164.23 120.066L152.252 109.773C152.382 109.747 152.486 109.694 152.617 109.694H175.843ZM169.45 118.106L177.644 111.079C177.696 111.262 177.749 111.445 177.749 111.654V127.171C177.749 127.302 177.696 127.433 177.67 127.563L169.45 118.106ZM152.591 129.078C152.382 129.078 152.225 129.026 152.043 128.974L160.446 119.36L163.604 122.051C163.787 122.208 164.021 122.286 164.23 122.286C164.465 122.286 164.674 122.208 164.856 122.051L168.014 119.36L176.418 128.974C176.235 129.026 176.052 129.078 175.87 129.078H152.591Z" fill="#2A94F4"/>
<path d="M186.961 47.65V58.1518C186.961 59.6148 188.135 60.7903 189.597 60.7903H205.333C206.795 60.7903 207.969 59.6148 207.969 58.1518V47.65C207.969 46.187 206.795 45.0115 205.333 45.0115H189.597C188.135 45.0115 186.961 46.187 186.961 47.65ZM188.344 58.4131C188.318 58.3347 188.292 58.2563 188.292 58.1518V47.65C188.292 47.5194 188.318 47.3888 188.37 47.2581L193.929 52.0127L188.344 58.4131ZM205.333 46.3438C205.412 46.3438 205.49 46.3699 205.568 46.396L197.452 53.3711L189.336 46.396C189.414 46.3699 189.492 46.3438 189.571 46.3438H205.333ZM201.027 52.0388L206.586 47.2843C206.612 47.4149 206.664 47.5194 206.664 47.6761V58.1779C206.664 58.2563 206.638 58.3608 206.612 58.4392L201.027 52.0388ZM189.597 59.458C189.466 59.458 189.336 59.4319 189.231 59.3796L194.92 52.8748L197.06 54.7035C197.191 54.8079 197.348 54.8602 197.478 54.8602C197.635 54.8602 197.791 54.8079 197.896 54.7035L200.036 52.8748L205.725 59.3796C205.594 59.4058 205.49 59.458 205.359 59.458H189.597Z" fill="#CCE9FF"/>
<path d="M191.293 101.883H181.898C180.176 101.883 178.766 100.473 178.766 98.7486V93.1581C178.766 91.4339 180.176 90.0232 181.898 90.0232H191.293C193.015 90.0232 194.425 91.4339 194.425 93.1581V98.7486C194.425 100.473 193.015 101.883 191.293 101.883Z" fill="white"/>
<path d="M178.375 91.8516V100.002C178.375 101.126 179.288 102.04 180.41 102.04H192.624C193.746 102.04 194.66 101.126 194.66 100.002V91.8516C194.66 90.7283 193.746 89.814 192.624 89.814H180.41C179.288 89.8401 178.375 90.7283 178.375 91.8516ZM179.445 100.211C179.419 100.133 179.393 100.081 179.393 100.002V91.8516C179.393 91.7471 179.419 91.6426 179.445 91.5643L183.751 95.2477L179.445 100.211ZM192.624 90.8589C192.702 90.8589 192.754 90.885 192.807 90.885L186.517 96.2927L180.228 90.885C180.28 90.885 180.358 90.8589 180.41 90.8589H192.624ZM189.257 95.2477L193.563 91.5643C193.59 91.6688 193.616 91.7471 193.616 91.8516V100.002C193.616 100.081 193.59 100.133 193.563 100.211L189.257 95.2477ZM180.41 101.021C180.306 101.021 180.202 100.995 180.123 100.969L184.534 95.927L186.178 97.3377C186.282 97.416 186.387 97.4683 186.517 97.4683C186.648 97.4683 186.752 97.416 186.856 97.3377L188.501 95.927L192.911 100.969C192.807 100.995 192.728 101.021 192.624 101.021H180.41Z" fill="#1CA8D5"/>
<path d="M159.82 24.7132V33.1774C159.82 34.3529 160.759 35.2934 161.934 35.2934H174.591C175.765 35.2934 176.705 34.3529 176.705 33.1774V24.7132C176.705 23.5376 175.765 22.5972 174.591 22.5972H161.934C160.785 22.5972 159.82 23.5376 159.82 24.7132ZM160.942 33.3864C160.916 33.308 160.89 33.2557 160.89 33.1774V24.7132C160.89 24.6087 160.916 24.5042 160.942 24.3997L165.405 28.2399L160.942 33.3864ZM174.617 23.6682C174.695 23.6682 174.747 23.6944 174.826 23.7205L168.301 29.3371L161.777 23.7205C161.855 23.6944 161.907 23.6682 161.986 23.6682H174.617ZM171.146 28.2399L175.609 24.3997C175.635 24.5042 175.661 24.6087 175.661 24.7132V33.1774C175.661 33.2557 175.635 33.308 175.609 33.3864L171.146 28.2399ZM161.934 34.2223C161.829 34.2223 161.725 34.1962 161.62 34.1701L166.187 28.9453L167.91 30.4082C168.014 30.4866 168.119 30.5388 168.249 30.5388C168.38 30.5388 168.484 30.4866 168.588 30.4082L170.311 28.9453L174.878 34.1701C174.773 34.1962 174.695 34.2223 174.565 34.2223H161.934Z" fill="#2A94F4"/>
<path d="M138.629 77.9278C139.061 77.9278 139.412 77.5769 139.412 77.1441C139.412 76.7112 139.061 76.3604 138.629 76.3604C138.196 76.3604 137.846 76.7112 137.846 77.1441C137.846 77.5769 138.196 77.9278 138.629 77.9278Z" fill="#6B6B6B"/>
<path d="M136.149 79.2601C136.582 79.2601 136.932 78.9092 136.932 78.4763C136.932 78.0435 136.582 77.6926 136.149 77.6926C135.717 77.6926 135.367 78.0435 135.367 78.4763C135.367 78.9092 135.717 79.2601 136.149 79.2601Z" fill="#6B6B6B"/>
<path d="M133.722 80.6707C134.155 80.6707 134.505 80.3198 134.505 79.887C134.505 79.4542 134.155 79.1033 133.722 79.1033C133.29 79.1033 132.939 79.4542 132.939 79.887C132.939 80.3198 133.29 80.6707 133.722 80.6707Z" fill="#6B6B6B"/>
<path d="M131.765 82.6822C132.197 82.6822 132.548 82.3313 132.548 81.8985C132.548 81.4656 132.197 81.1147 131.765 81.1147C131.333 81.1147 130.982 81.4656 130.982 81.8985C130.982 82.3313 131.333 82.6822 131.765 82.6822Z" fill="#6B6B6B"/>
<path d="M130.095 84.929C130.527 84.929 130.878 84.5781 130.878 84.1453C130.878 83.7125 130.527 83.3616 130.095 83.3616C129.663 83.3616 129.312 83.7125 129.312 84.1453C129.312 84.5781 129.663 84.929 130.095 84.929Z" fill="#6B6B6B"/>
<path d="M128.816 87.4368C129.249 87.4368 129.599 87.0859 129.599 86.6531C129.599 86.2203 129.249 85.8694 128.816 85.8694C128.384 85.8694 128.033 86.2203 128.033 86.6531C128.033 87.0859 128.384 87.4368 128.816 87.4368Z" fill="#6B6B6B"/>
<path d="M128.007 90.1275C128.44 90.1275 128.79 89.7766 128.79 89.3438C128.79 88.9109 128.44 88.5601 128.007 88.5601C127.575 88.5601 127.224 88.9109 127.224 89.3438C127.224 89.7766 127.575 90.1275 128.007 90.1275Z" fill="#6B6B6B"/>
<path d="M142.935 101.23C143.367 101.23 143.718 100.879 143.718 100.447C143.718 100.014 143.367 99.6628 142.935 99.6628C142.502 99.6628 142.152 100.014 142.152 100.447C142.152 100.879 142.502 101.23 142.935 101.23Z" fill="#6B6B6B"/>
<path d="M140.116 101.23C140.549 101.23 140.899 100.879 140.899 100.447C140.899 100.014 140.549 99.6628 140.116 99.6628C139.684 99.6628 139.333 100.014 139.333 100.447C139.333 100.879 139.684 101.23 140.116 101.23Z" fill="#6B6B6B"/>
<path d="M137.298 101.23C137.73 101.23 138.081 100.879 138.081 100.447C138.081 100.014 137.73 99.6628 137.298 99.6628C136.865 99.6628 136.515 100.014 136.515 100.447C136.515 100.879 136.865 101.23 137.298 101.23Z" fill="#6B6B6B"/>
<path d="M134.479 101.23C134.912 101.23 135.262 100.879 135.262 100.447C135.262 100.014 134.912 99.6628 134.479 99.6628C134.047 99.6628 133.696 100.014 133.696 100.447C133.696 100.879 134.047 101.23 134.479 101.23Z" fill="#6B6B6B"/>
<path d="M131.661 101.23C132.093 101.23 132.444 100.879 132.444 100.447C132.444 100.014 132.093 99.6628 131.661 99.6628C131.228 99.6628 130.878 100.014 130.878 100.447C130.878 100.879 131.228 101.23 131.661 101.23Z" fill="#6B6B6B"/>
<path d="M175.556 96.6846C175.989 96.6846 176.339 96.3337 176.339 95.9009C176.339 95.4681 175.989 95.1172 175.556 95.1172C175.124 95.1172 174.773 95.4681 174.773 95.9009C174.773 96.3337 175.124 96.6846 175.556 96.6846Z" fill="#6B6B6B"/>
<path d="M172.738 96.6063C173.17 96.6063 173.521 96.2554 173.521 95.8225C173.521 95.3897 173.17 95.0388 172.738 95.0388C172.305 95.0388 171.955 95.3897 171.955 95.8225C171.955 96.2554 172.305 96.6063 172.738 96.6063Z" fill="#6B6B6B"/>
<path d="M169.919 96.5279C170.352 96.5279 170.702 96.177 170.702 95.7442C170.702 95.3113 170.352 94.9604 169.919 94.9604C169.487 94.9604 169.136 95.3113 169.136 95.7442C169.136 96.177 169.487 96.5279 169.919 96.5279Z" fill="#6B6B6B"/>
<path d="M167.179 97.2071C167.612 97.2071 167.962 96.8562 167.962 96.4234C167.962 95.9905 167.612 95.6396 167.179 95.6396C166.747 95.6396 166.396 95.9905 166.396 96.4234C166.396 96.8562 166.747 97.2071 167.179 97.2071Z" fill="#6B6B6B"/>
<path d="M164.465 97.9647C164.897 97.9647 165.248 97.6138 165.248 97.1809C165.248 96.7481 164.897 96.3972 164.465 96.3972C164.033 96.3972 163.682 96.7481 163.682 97.1809C163.682 97.6138 164.033 97.9647 164.465 97.9647Z" fill="#6B6B6B"/>
<path d="M162.142 99.5323C162.575 99.5323 162.925 99.1814 162.925 98.7486C162.925 98.3157 162.575 97.9648 162.142 97.9648C161.71 97.9648 161.359 98.3157 161.359 98.7486C161.359 99.1814 161.71 99.5323 162.142 99.5323Z" fill="#6B6B6B"/>
<path d="M160.029 101.361C160.461 101.361 160.811 101.01 160.811 100.577C160.811 100.144 160.461 99.7935 160.029 99.7935C159.596 99.7935 159.246 100.144 159.246 100.577C159.246 101.01 159.596 101.361 160.029 101.361Z" fill="#6B6B6B"/>
<path d="M158.332 103.607C158.765 103.607 159.115 103.257 159.115 102.824C159.115 102.391 158.765 102.04 158.332 102.04C157.9 102.04 157.549 102.391 157.549 102.824C157.549 103.257 157.9 103.607 158.332 103.607Z" fill="#6B6B6B"/>
<path d="M157.132 106.142C157.564 106.142 157.915 105.791 157.915 105.358C157.915 104.925 157.564 104.574 157.132 104.574C156.699 104.574 156.349 104.925 156.349 105.358C156.349 105.791 156.699 106.142 157.132 106.142Z" fill="#6B6B6B"/>
<path d="M188.683 64.0298C189.116 64.0298 189.466 63.679 189.466 63.2461C189.466 62.8133 189.116 62.4624 188.683 62.4624C188.251 62.4624 187.9 62.8133 187.9 63.2461C187.9 63.679 188.251 64.0298 188.683 64.0298Z" fill="#6B6B6B"/>
<path d="M186.361 65.6495C186.793 65.6495 187.143 65.2986 187.143 64.8657C187.143 64.4329 186.793 64.082 186.361 64.082C185.928 64.082 185.578 64.4329 185.578 64.8657C185.578 65.2986 185.928 65.6495 186.361 65.6495Z" fill="#6B6B6B"/>
<path d="M183.777 66.7205C184.209 66.7205 184.56 66.3696 184.56 65.9368C184.56 65.504 184.209 65.1531 183.777 65.1531C183.345 65.1531 182.994 65.504 182.994 65.9368C182.994 66.3696 183.345 66.7205 183.777 66.7205Z" fill="#6B6B6B"/>
<path d="M181.141 67.7393C181.574 67.7393 181.924 67.3884 181.924 66.9556C181.924 66.5228 181.574 66.1719 181.141 66.1719C180.709 66.1719 180.358 66.5228 180.358 66.9556C180.358 67.3884 180.709 67.7393 181.141 67.7393Z" fill="#6B6B6B"/>
<path d="M178.401 68.3401C178.833 68.3401 179.184 67.9893 179.184 67.5564C179.184 67.1236 178.833 66.7727 178.401 66.7727C177.969 66.7727 177.618 67.1236 177.618 67.5564C177.618 67.9893 177.969 68.3401 178.401 68.3401Z" fill="#6B6B6B"/>
<path d="M175.635 68.8887C176.067 68.8887 176.418 68.5378 176.418 68.105C176.418 67.6722 176.067 67.3213 175.635 67.3213C175.202 67.3213 174.852 67.6722 174.852 68.105C174.852 68.5378 175.202 68.8887 175.635 68.8887Z" fill="#6B6B6B"/>
<path d="M172.816 69.1238C173.249 69.1238 173.599 68.773 173.599 68.3401C173.599 67.9073 173.249 67.5564 172.816 67.5564C172.384 67.5564 172.033 67.9073 172.033 68.3401C172.033 68.773 172.384 69.1238 172.816 69.1238Z" fill="#6B6B6B"/>
<path d="M169.998 69.2283C170.43 69.2283 170.781 68.8774 170.781 68.4446C170.781 68.0118 170.43 67.6609 169.998 67.6609C169.565 67.6609 169.215 68.0118 169.215 68.4446C169.215 68.8774 169.565 69.2283 169.998 69.2283Z" fill="#6B6B6B"/>
<path d="M167.179 69.15C167.612 69.15 167.962 68.7991 167.962 68.3662C167.962 67.9334 167.612 67.5825 167.179 67.5825C166.747 67.5825 166.396 67.9334 166.396 68.3662C166.396 68.7991 166.747 69.15 167.179 69.15Z" fill="#6B6B6B"/>
<path d="M156.531 30.9568C156.964 30.9568 157.314 30.606 157.314 30.1731C157.314 29.7403 156.964 29.3894 156.531 29.3894C156.099 29.3894 155.749 29.7403 155.749 30.1731C155.749 30.606 156.099 30.9568 156.531 30.9568Z" fill="#6B6B6B"/>
<path d="M153.817 31.6883C154.25 31.6883 154.6 31.3374 154.6 30.9046C154.6 30.4717 154.25 30.1208 153.817 30.1208C153.385 30.1208 153.034 30.4717 153.034 30.9046C153.034 31.3374 153.385 31.6883 153.817 31.6883Z" fill="#6B6B6B"/>
<path d="M151.573 33.334C152.005 33.334 152.356 32.9832 152.356 32.5503C152.356 32.1175 152.005 31.7666 151.573 31.7666C151.141 31.7666 150.79 32.1175 150.79 32.5503C150.79 32.9832 151.141 33.334 151.573 33.334Z" fill="#6B6B6B"/>
<path d="M149.903 35.5025C150.335 35.5025 150.686 35.1516 150.686 34.7188C150.686 34.2859 150.335 33.9351 149.903 33.9351C149.47 33.9351 149.12 34.2859 149.12 34.7188C149.12 35.1516 149.47 35.5025 149.903 35.5025Z" fill="#6B6B6B"/>
<path d="M148.911 38.1409C149.343 38.1409 149.694 37.79 149.694 37.3572C149.694 36.9244 149.343 36.5735 148.911 36.5735C148.479 36.5735 148.128 36.9244 148.128 37.3572C148.128 37.79 148.479 38.1409 148.911 38.1409Z" fill="#6B6B6B"/>
<path d="M148.598 40.9361C149.03 40.9361 149.381 40.5852 149.381 40.1524C149.381 39.7195 149.03 39.3687 148.598 39.3687C148.165 39.3687 147.815 39.7195 147.815 40.1524C147.815 40.5852 148.165 40.9361 148.598 40.9361Z" fill="#6B6B6B"/>
<path d="M148.807 43.7576C149.239 43.7576 149.59 43.4067 149.59 42.9739C149.59 42.5411 149.239 42.1902 148.807 42.1902C148.374 42.1902 148.024 42.5411 148.024 42.9739C148.024 43.4067 148.374 43.7576 148.807 43.7576Z" fill="#6B6B6B"/>
<path d="M103.293 183.39C103.502 183.312 103.684 183.26 103.893 183.181C103.893 183.181 103.815 183.024 103.684 182.711C101.544 178.27 83.7461 143.159 49.4282 136.419C49.1672 136.367 48.8801 136.315 48.6192 136.263C44.2609 135.479 39.6678 135.139 34.8137 135.374C34.8137 135.374 28.0023 135.505 19.6251 141.409C19.4424 141.54 19.2597 141.67 19.051 141.801C15.293 144.544 11.2479 148.489 7.35939 154.079L7.12451 154.393C7.12451 154.393 7.17671 154.549 7.30719 154.837C8.50767 157.606 15.5017 172.366 32.0474 182.058C32.2562 182.188 32.4911 182.319 32.6998 182.424C47.7058 191.018 70.3321 195.355 103.293 183.39Z" fill="#0B4870"/>
<path d="M103.815 183.547L103.893 183.181L103.971 182.815L103.684 182.737L7.35939 154.131L7.12451 154.445C7.12451 154.445 7.17671 154.602 7.30719 154.889L103.293 183.39L103.815 183.547Z" fill="white"/>
<path d="M32.726 182.502L47.1056 166.357L46.6358 165.782L32.0735 182.136C32.2823 182.267 32.4911 182.371 32.726 182.502ZM64.6951 171.556L65.5041 171.66L49.4282 136.445C49.1673 136.393 48.8802 136.341 48.6192 136.289L64.6951 171.556ZM28.6287 161.106L29.2028 160.741L19.599 141.435C19.4164 141.566 19.2337 141.696 19.0249 141.827L28.6287 161.106Z" fill="white"/>
<path d="M101.936 181.849L102.249 182.084C102.249 182.084 102.301 181.979 102.432 181.823C104.102 179.184 116.89 157.71 108.878 136.994C108.826 136.837 108.747 136.654 108.695 136.498C107.651 133.885 106.268 131.299 104.494 128.765C104.494 128.765 102.119 125.16 96.1163 122.652C95.9858 122.6 95.8553 122.547 95.6987 122.495C92.9585 121.398 89.4615 120.562 85.1554 120.379H84.8945C84.8945 120.379 84.8423 120.458 84.7118 120.64C83.6418 122.208 78.0831 130.959 78.5006 143.159C78.5006 143.316 78.5006 143.473 78.5267 143.629C79.0226 154.575 84.3725 168.186 101.936 181.849Z" fill="#2A94F4"/>
<path d="M102.04 182.188L102.275 182.11L102.51 182.032L102.458 181.849L85.1554 120.431H84.8945C84.8945 120.431 84.8423 120.51 84.7118 120.693L101.936 181.901L102.04 182.188Z" fill="white"/>
<path d="M78.5267 143.629L92.0451 145.902L92.1756 145.458L78.4745 143.159C78.5006 143.316 78.5006 143.473 78.5267 143.629ZM95.2289 157.109L95.4377 157.58L108.878 137.02C108.826 136.863 108.747 136.68 108.695 136.524L95.2289 157.109ZM88.6002 134.199L88.9917 134.382L96.0901 122.678C95.9597 122.626 95.8292 122.573 95.6726 122.521L88.6002 134.199Z" fill="white"/>
<path d="M102.145 183.26C102.327 183.286 102.51 183.286 102.667 183.312V182.92C102.667 179.054 101.858 148.201 78.1613 131.691C77.9786 131.56 77.7959 131.43 77.5872 131.299C74.5599 129.261 71.1672 127.433 67.3831 125.944C67.3831 125.944 62.1376 123.697 53.6299 125.003C53.4472 125.029 53.2384 125.055 53.0557 125.081C49.1933 125.735 44.6785 127.119 39.6939 129.732C39.5895 129.784 39.5112 129.836 39.4069 129.888C39.4069 129.888 39.4069 130.019 39.3808 130.28C39.2764 132.631 39.2503 145.432 48.3582 157.945C48.4887 158.102 48.5931 158.259 48.7236 158.442C57.0225 169.571 72.707 180.386 102.145 183.26Z" fill="#0D7CA0"/>
<path d="M102.484 183.547L102.667 183.312L102.849 183.077L102.667 182.92L39.6939 129.731C39.5895 129.784 39.5112 129.836 39.4068 129.888C39.4068 129.888 39.4068 130.019 39.3807 130.28L102.119 183.259L102.484 183.547Z" fill="white"/>
<path d="M48.7236 158.415L65.5303 151.963L65.3737 151.388L48.3583 157.919C48.4888 158.102 48.5932 158.259 48.7236 158.415ZM77.0653 161.655L77.6394 162.021L78.1875 131.665C78.0048 131.534 77.8221 131.403 77.6133 131.273L77.0653 161.655ZM53.369 141.931L53.9431 141.879L53.6299 124.977C53.4472 125.003 53.2385 125.029 53.0558 125.055L53.369 141.931Z" fill="white"/>
<path d="M117.359 184.775L116.394 192.351L113.132 193.526L113.993 184.435L117.359 184.775ZM102.484 184.775L101.518 192.351L98.2562 193.526L99.1174 184.435L102.484 184.775Z" fill="#DBA17B"/>
<path d="M106.712 91.042L101.571 97.5991L106.477 100.264L111.983 93.4454L106.712 91.042Z" fill="#CC9271"/>
<path d="M119.891 91.5122C119.734 90.5195 119.63 89.5006 119.552 88.4818C119.499 87.672 119.526 86.8621 119.552 86.0523C119.63 85.2424 119.63 84.4326 119.578 83.675C119.578 83.7011 119.552 83.7273 119.552 83.7534C119.499 83.0742 119.395 82.3949 119.212 81.7418C118.69 80.096 117.62 78.5547 115.95 77.98C112.61 76.8567 108.539 79.9915 106.842 85.0073C105.146 90.0231 106.477 95.0128 109.817 96.1361C112.192 96.946 114.932 95.5875 116.916 92.949C117.699 92.9229 118.482 92.8706 119.238 92.6616C119.499 92.5833 119.76 92.4788 119.891 92.2437C119.969 92.0085 119.943 91.7473 119.891 91.5122Z" fill="#DBA17B"/>
<path d="M122.657 83.2571C123.727 82.8913 124.641 81.977 124.849 80.8798C125.058 79.7564 124.432 78.5025 123.362 78.1368C122.553 77.8494 121.587 78.0845 120.857 77.6665C120.413 77.4053 120.126 76.9612 119.813 76.5693C118.09 74.3749 115.246 73.121 112.479 73.33C109.713 73.539 107.077 75.1848 105.694 77.5882C104.52 79.6258 104.233 82.0554 104.441 84.3804C104.65 86.7054 105.355 88.9782 106.033 91.1987C107.182 88.9259 108.33 86.6532 109.478 84.4065C109.739 83.9102 110 83.3877 110.47 83.1003C110.94 82.8129 111.67 82.8391 111.931 83.3093C112.114 83.6228 112.062 84.0146 112.062 84.3543C112.062 84.72 112.114 85.138 112.427 85.2947C112.766 85.4776 113.21 85.2686 113.523 85.0335C114.202 84.5371 114.802 83.9363 115.35 83.2832C115.689 82.8652 116.029 82.3427 116.524 82.1337C117.072 81.8986 117.542 82.1598 118.038 82.4472C118.717 82.8391 119.421 83.2048 120.204 83.3615C121.013 83.5183 121.874 83.5183 122.657 83.2571ZM119.212 130.776C120.23 137.307 121.196 148.671 122.214 155.202C123.701 164.79 118.978 179.132 117.229 188.667C115.95 188.51 114.828 188.119 113.549 187.962C113.967 171.791 113.236 151.179 112.192 135.035C114.463 135.322 116.942 130.489 119.212 130.776Z" fill="#0B4870"/>
<path d="M103.371 135.322C104.702 135.4 106.007 134.199 107.338 134.303C108.956 134.408 110.705 134.721 112.244 135.191C113.784 135.662 115.585 134.225 117.098 133.702C117.412 136.315 116.864 140.965 116.368 143.551C115.219 149.612 113.889 155.62 112.349 161.577C111.514 164.868 109.034 168.029 107.73 171.164C107.182 172.496 106.66 173.881 106.164 175.239C105.12 178.061 103.319 186.003 102.275 188.824C100.996 188.719 99.6916 188.693 98.4128 188.589C98.5433 185.741 99.6655 177.538 99.7699 174.691C99.9787 169.936 102.354 164.947 104.233 160.558C103.293 156.012 103.267 151.075 103.293 146.425C103.319 142.323 103.345 139.397 103.371 135.322Z" fill="#0E538C"/>
<path d="M121.404 117.767C121.874 117.845 122.422 117.819 122.788 117.505C122.97 117.349 123.101 117.114 123.231 116.931C123.675 116.408 124.432 116.147 125.084 116.304C126.441 116.643 127.094 118.368 128.451 118.655C128.66 118.707 128.868 118.707 129.077 118.785C129.286 118.864 129.469 118.994 129.495 119.203C129.547 119.465 129.364 119.674 129.181 119.883C128.947 120.144 128.686 120.405 128.451 120.666C128.346 120.771 128.216 120.902 128.085 120.954C127.798 121.084 127.433 120.954 127.198 121.137C126.989 121.293 126.937 121.607 126.702 121.764C126.363 121.973 125.893 121.659 125.502 121.816C125.293 121.894 125.162 122.077 125.006 122.182C124.719 122.364 124.327 122.338 123.988 122.234C123.649 122.103 123.362 121.894 123.075 121.737C122.683 121.529 122.266 121.372 121.848 121.241C120.7 120.954 119.473 121.032 118.273 121.137C118.221 120.196 118.195 119.256 118.142 118.315C118.142 118.159 118.142 117.976 118.221 117.819C118.377 117.532 118.795 117.532 119.134 117.61C119.552 117.714 119.76 117.688 120.152 117.61C120.543 117.532 121.013 117.714 121.404 117.767Z" fill="#DBA17B"/>
<path d="M124.484 121.372C124.353 121.163 124.406 120.875 124.614 120.745L132.13 115.781C132.339 115.651 132.626 115.703 132.757 115.912C132.887 116.121 132.835 116.408 132.626 116.539L125.11 121.502C124.902 121.633 124.614 121.581 124.484 121.372Z" fill="#0B4870"/>
<path d="M118.482 188.432C118.586 188.197 118.873 188.118 119.056 188.275C119.865 188.954 122.031 190.496 126.337 191.488C126.337 191.488 127.381 191.697 128.138 192.925H112.166V190.104C112.166 189.79 112.531 189.634 112.766 189.816L113.393 190.339C113.68 190.6 114.071 190.731 114.436 190.731L116.733 190.757C117.229 190.757 117.673 190.47 117.855 189.999L118.482 188.432Z" fill="#CCE9FF"/>
<path d="M128.156 194.578H112.184V192.933H128.156V194.578Z" fill="#0E538C"/>
<path d="M102.875 189.32C103.032 189.137 103.345 189.163 103.476 189.372C103.998 190.287 105.537 192.455 109.217 194.884C109.217 194.884 110.13 195.459 110.444 196.844L95.4116 191.436L96.3772 188.771C96.4816 188.484 96.8731 188.432 97.0296 188.719L97.4211 189.425C97.6038 189.764 97.917 190.025 98.2823 190.156L100.422 190.94C100.892 191.123 101.414 190.966 101.727 190.6L102.875 189.32Z" fill="#CCE9FF"/>
<path d="M109.858 198.401L94.83 192.986L95.3868 191.438L110.414 196.853L109.858 198.401Z" fill="#0E538C"/>
<path d="M118.716 116.434C119.865 120.275 120.726 126.309 121.274 130.28C121.405 131.22 121.326 134.773 120.674 135.453C120.282 135.871 110.183 136.994 105.981 138.378C105.407 138.561 102.667 139.632 102.119 139.397C101.336 139.058 100.918 135.609 101.101 134.799C103.528 124.324 103.528 132.03 99.9786 111.419C99.274 107.291 97.917 103.477 99.3262 99.5322C99.796 98.226 103.345 94.4119 103.345 94.4119C103.345 94.4119 104.546 95.6919 105.772 96.4234C106.79 97.0243 108.121 98.0953 108.982 98.3043C112.923 99.2187 117.333 111.81 118.716 116.434Z" fill="#2A94F4"/>
<path d="M113.836 144.387C114.176 145.119 114.332 145.928 114.41 146.712C114.515 148.097 114.358 149.481 113.967 150.787C113.393 150.657 112.923 150.134 112.845 149.533C113.106 149.951 112.871 150.578 112.401 150.709C111.931 150.84 111.409 150.396 111.435 149.899C111.305 150.317 110.835 150.631 110.418 150.552C109.974 150.474 109.635 150.056 109.661 149.612C109.843 149.742 109.791 150.056 109.635 150.187C109.452 150.317 109.191 150.291 109.008 150.187C108.826 150.082 108.695 149.873 108.617 149.664C108.486 149.298 108.434 148.907 108.408 148.515C108.278 146.843 108.173 145.145 108.043 143.473C108.017 143.238 108.017 143.002 108.121 142.794C108.33 142.402 108.878 142.349 109.348 142.376L111.148 142.454C111.54 142.48 111.957 142.454 112.323 142.585C112.975 142.898 113.523 143.76 113.836 144.387Z" fill="#DBA17B"/>
<path d="M107.312 105.149C107.103 108.676 106.894 112.229 106.66 115.755C106.529 117.715 106.425 119.7 106.712 121.633C106.947 123.253 107.442 124.82 107.938 126.362C109.739 131.952 111.54 137.543 113.367 143.133C111.435 143.003 109.478 142.872 107.547 142.741C106.007 136.759 103.032 126.074 102.771 125.108C100.631 118.394 99.8743 111.262 100.553 104.261L107.312 105.149Z" fill="#2A94F4"/>
<path d="M98.3867 70.7958C98.3867 63.873 90.7924 58.2563 81.4234 58.2563C72.0545 58.2563 64.4602 63.873 64.4602 70.7958C64.4602 77.7187 72.0545 83.3353 81.4234 83.3353C83.198 83.3353 84.9205 83.1263 86.5124 82.7606L92.6453 87.7764V80.2005C96.1684 77.9015 98.3867 74.5316 98.3867 70.7958Z" fill="#2A94F4"/>
<path d="M88.6002 58.6483C88.6002 53.0316 82.4413 48.46 74.8209 48.46C67.2005 48.46 61.0415 53.0055 61.0415 58.6483C61.0415 64.2649 67.2005 68.8366 74.8209 68.8366C76.2562 68.8366 77.6655 68.6799 78.9703 68.3664L83.9288 72.4417V66.3026C86.7995 64.3956 88.6002 61.6787 88.6002 58.6483Z" fill="white"/>
<path d="M81.9454 54.991H67.0699C66.8611 54.991 66.6785 54.8081 66.6785 54.5991C66.6785 54.3901 66.8611 54.2073 67.0699 54.2073H81.9454C82.1541 54.2073 82.3368 54.3901 82.3368 54.5991C82.3368 54.8081 82.1541 54.991 81.9454 54.991ZM81.9454 57.8124H67.0699C66.8611 57.8124 66.6785 57.6295 66.6785 57.4205C66.6785 57.2115 66.8611 57.0287 67.0699 57.0287H81.9454C82.1541 57.0287 82.3368 57.2115 82.3368 57.4205C82.3368 57.6295 82.1541 57.8124 81.9454 57.8124ZM81.9454 60.6599H67.0699C66.8611 60.6599 66.6785 60.477 66.6785 60.268C66.6785 60.059 66.8611 59.8762 67.0699 59.8762H81.9454C82.1541 59.8762 82.3368 60.059 82.3368 60.268C82.3368 60.477 82.1541 60.6599 81.9454 60.6599ZM81.9454 63.4813H67.0699C66.8611 63.4813 66.6785 63.2984 66.6785 63.0894C66.6785 62.8804 66.8611 62.6976 67.0699 62.6976H81.9454C82.1541 62.6976 82.3368 62.8804 82.3368 63.0894C82.3368 63.2984 82.1541 63.4813 81.9454 63.4813Z" fill="#404B62"/>
</svg>
