<svg width="116" height="116" viewBox="0 0 116 116" fill="none" xmlns="http://www.w3.org/2000/svg">
<path d="M43.5001 48.3334L62.0915 62.277C62.51 62.5908 63.0996 62.5292 63.4441 62.1355L96.6667 24.1667" stroke="white" stroke-width="4" stroke-linecap="round"/>
<path d="M101.5 58C101.5 67.089 98.653 75.9498 93.3588 83.3378C88.0647 90.7258 80.5893 96.2699 71.9826 99.1915C63.3759 102.113 54.0703 102.265 45.3726 99.6269C36.6749 96.9885 29.0222 91.6919 23.4891 84.4811C17.9561 77.2703 14.8207 68.5075 14.5233 59.4233C14.2259 50.3391 16.7815 41.39 21.8311 33.8327C26.8807 26.2754 34.1706 20.4897 42.6771 17.2881C51.1836 14.0865 60.4793 13.6298 69.2586 15.9822" stroke="white" stroke-width="4" stroke-linecap="round"/>
</svg>
