<svg width="20" height="21" viewBox="0 0 20 21" fill="none" xmlns="http://www.w3.org/2000/svg">
<path fill-rule="evenodd" clip-rule="evenodd" d="M7.5 11.0533C7.34321 11.2679 7.20962 11.5042 7.10373 11.7585L7.08142 11.8121L7.08141 11.8121C7.02209 11.9547 6.97096 12.0776 6.94108 12.1379C6.80224 12.4183 6.60043 12.7157 6.27197 12.9347C5.9435 13.1538 5.59131 13.2257 5.27914 13.2461C5.21204 13.2504 5.11845 13.2504 5.02988 13.2503H5.02987L5 13.2503C4.21699 13.2503 3.5 13.9313 3.5 14.8753C3.5 15.8193 4.21699 16.5003 5 16.5003H10H14.875C15.7725 16.5003 16.5 15.7728 16.5 14.8753C16.5 13.9778 15.7725 13.2503 14.875 13.2503C13.9053 13.2503 13.2078 12.5658 12.9323 11.8485C12.8214 11.5598 12.6752 11.293 12.5 11.0532V8.41988C13.5431 9.02144 14.3591 9.98509 14.7994 11.1315C14.8209 11.1876 14.8534 11.2257 14.8764 11.2437C14.8804 11.2468 14.8834 11.2489 14.8856 11.2503C16.8828 11.2561 18.5 12.8768 18.5 14.8753C18.5 16.8773 16.877 18.5003 14.875 18.5003H10H5C3.02159 18.5003 1.5 16.8308 1.5 14.8753C1.5 12.9198 3.02159 11.2503 5 11.2503C5.06218 11.2503 5.10291 11.2503 5.13241 11.2501L5.14836 11.2499L5.16659 11.207C5.18745 11.1576 5.21664 11.0875 5.25746 10.9895C5.70878 9.90587 6.50008 8.99661 7.5 8.41996V11.0533Z" fill="white"/>
<path d="M10.0001 2.625L9.27594 1.93534L10.0001 1.175L10.7242 1.93534L10.0001 2.625ZM11.0001 11.375C11.0001 11.9273 10.5524 12.375 10.0001 12.375C9.4478 12.375 9.00008 11.9273 9.00008 11.375L11.0001 11.375ZM5.94261 5.43534L9.27594 1.93534L10.7242 3.31465L7.39089 6.81466L5.94261 5.43534ZM10.7242 1.93534L14.0576 5.43534L12.6093 6.81465L9.27594 3.31466L10.7242 1.93534ZM11.0001 2.625L11.0001 11.375L9.00008 11.375L9.00008 2.625L11.0001 2.625Z" fill="white"/>
</svg>
