<svg width="35" height="35" viewBox="0 0 35 35" fill="none" xmlns="http://www.w3.org/2000/svg">
<g clip-path="url(#clip0_59_19)">
<path d="M33.3051 2.40155H1.69493C0.758736 2.40155 0 3.16037 0 4.09648V23.9272C0 24.8633 0.758736 25.6221 1.69493 25.6221H13.5169V29.4628H8.91661C8.05211 29.4628 7.3488 30.1661 7.3488 31.0306C7.3488 31.8951 8.05211 32.5985 8.91661 32.5985H26.0834C26.9479 32.5985 27.6512 31.8951 27.6512 31.0306C27.6512 30.1661 26.9479 29.4628 26.0834 29.4628H21.4831V25.6221H33.3051C34.2413 25.6221 35 24.8633 35 23.9272V4.09648C35 3.16037 34.2413 2.40155 33.3051 2.40155ZM32.4576 23.0797H2.5424V4.94395H32.4576V23.0797Z" fill="white"/>
<path d="M8.01631 14.9694L13.3625 17.4555C13.5007 17.5195 13.6478 17.552 13.7999 17.552C13.9981 17.552 14.1911 17.4957 14.359 17.3889C14.6597 17.1968 14.8392 16.8694 14.8392 16.5131V16.4858C14.8392 16.0831 14.6031 15.7133 14.2378 15.5435L10.8941 13.9901L14.2379 12.4363C14.6031 12.2665 14.8392 11.8966 14.8392 11.4941V11.4671C14.8392 11.1102 14.6596 10.7828 14.3591 10.5913C14.1928 10.485 13.9992 10.4289 13.7992 10.4289C13.6486 10.4289 13.4973 10.4621 13.362 10.5249L8.01622 13.0107C7.65113 13.1806 7.41528 13.5505 7.41528 13.9529V14.0273C7.4152 14.4291 7.65096 14.7989 8.01631 14.9694Z" fill="white"/>
<path d="M14.8867 20.0332C15.0817 20.3 15.3953 20.4593 15.7258 20.4593H15.7525C16.206 20.4593 16.6035 20.169 16.7416 19.7376L20.2634 8.82568C20.3645 8.51067 20.3084 8.16313 20.1134 7.89567C19.9184 7.6288 19.6047 7.46939 19.2743 7.46939H19.2477C18.7939 7.46939 18.3961 7.75973 18.2579 8.19109L14.7357 19.104C14.6355 19.4193 14.692 19.7665 14.8867 20.0332Z" fill="white"/>
<path d="M20.161 11.494C20.161 11.8962 20.3967 12.266 20.7622 12.4366L24.1059 13.99L20.7622 15.5434C20.3969 15.7132 20.1609 16.083 20.1609 16.4857V16.513C20.1609 16.8693 20.3403 17.1967 20.6413 17.3889C20.8086 17.4955 21.0018 17.5519 21.2002 17.5519C21.3521 17.5519 21.4991 17.5194 21.6383 17.4551L26.9842 14.969C27.3492 14.7988 27.5849 14.429 27.5849 14.0271V13.9527C27.5849 13.5503 27.3491 13.1805 26.9838 13.0105L21.638 10.5246C21.5032 10.462 21.3522 10.4287 21.2014 10.4287C21.0016 10.4287 20.8078 10.4848 20.6417 10.5908C20.3406 10.7826 20.161 11.11 20.161 11.4669V11.494Z" fill="white"/>
</g>
<defs>
<clipPath id="clip0_59_19">
<rect width="35" height="35" fill="white"/>
</clipPath>
</defs>
</svg>
