<svg width="173" height="173" viewBox="0 0 173 173" fill="none" xmlns="http://www.w3.org/2000/svg">
<g clip-path="url(#clip0_134_120)">
<path d="M150.029 101.394C153.029 101.394 155.435 103.803 155.435 106.8C155.435 109.777 153.029 112.207 150.029 112.207C147.055 112.207 144.623 109.777 144.623 106.8C144.623 103.8 147.055 101.394 150.029 101.394Z" fill="#87DDFD"/>
<path d="M158.138 112.207V123.019H155.435H144.623H141.919V112.207H150.029H158.138Z" fill="white"/>
<path d="M144.623 123.019V131.129V148.429C146.271 147.726 148.11 147.32 150.029 147.32C151.948 147.32 153.786 147.726 155.435 148.429V131.129V123.019H144.623Z" fill="#D7F4FF"/>
<path d="M163.544 160.836V166.242H136.513V160.836C136.513 155.295 139.865 150.537 144.623 148.456V148.429C146.271 147.726 148.11 147.32 150.029 147.32C151.948 147.32 153.786 147.726 155.435 148.429V148.456C160.193 150.537 163.544 155.295 163.544 160.836ZM85.1538 107.503V122.992L74.3413 128.398L66.2319 125.695L58.1226 128.398L47.3101 122.992V107.503C52.9596 110.479 59.393 112.18 66.2319 112.18C73.0708 112.18 79.5043 110.477 85.1538 107.503Z" fill="white"/>
<path d="M85.1538 122.992H93.2632L66.2319 160.836L39.2007 122.992H47.3101L58.1226 128.398L66.2319 125.695L74.3413 128.398L85.1538 122.992Z" fill="white"/>
<path d="M104.076 122.992H93.2632L66.2319 160.836L39.2007 122.992H28.3882C16.4404 122.992 6.76318 132.669 6.76318 144.617V166.242H66.2319H125.701V144.617C125.701 132.669 116.023 122.992 104.076 122.992Z" fill="#87DDFD"/>
<path d="M104.076 122.992H93.2632C105.206 122.998 114.877 132.672 114.877 144.617V166.242H125.701V144.617C125.701 132.669 116.023 122.992 104.076 122.992Z" fill="#5CD3FF"/>
<path d="M95.9663 44.6016C95.9663 44.6016 82.4507 52.7109 66.2319 52.7109C50.0132 52.7109 36.4976 44.6016 36.4976 44.6016L25.6851 55.4141V71.6328C25.6851 87.2028 34.4432 100.718 47.3101 107.503C52.9596 110.479 59.393 112.18 66.2319 112.18C73.0708 112.18 79.5043 110.477 85.1538 107.503C98.0207 100.718 106.779 87.2028 106.779 71.6328V55.4141L95.9663 44.6016Z" fill="#D7F4FF"/>
<path d="M95.9663 44.6016L95.9555 44.607V71.6328C95.9555 87.2028 87.1974 100.718 74.3305 107.503C70.2002 109.679 65.6427 111.163 60.8203 111.812C62.5909 112.05 64.3938 112.182 66.232 112.182C73.0709 112.182 79.5043 110.479 85.1538 107.506C98.0207 100.721 106.779 87.2055 106.779 71.6355V55.4168L95.9663 44.6016Z" fill="#87DDFD"/>
<path d="M106.779 39.1953V55.4141L95.9663 44.6016C95.9663 44.6016 82.4507 52.7109 66.2319 52.7109C50.0132 52.7109 36.4976 44.6016 36.4976 44.6016L25.6851 55.4141V41.8984C25.6851 22.463 41.4172 6.75781 60.8257 6.75781H87.8569V20.2734C98.318 20.2734 106.779 28.7342 106.779 39.1953Z" fill="#87DDFD"/>
<path d="M87.8569 31.0859C92.3279 31.0859 95.9663 34.7243 95.9663 39.1953V44.6016L106.779 55.4141V39.1953C106.779 28.7342 98.318 20.2734 87.8569 20.2734V6.75781H77.0444V20.2734C77.0444 26.2446 81.8857 31.0859 87.8569 31.0859Z" fill="#5CD3FF"/>
<path d="M60.8257 66.2266V71.6328H39.2007V60.8203H60.8257V66.2266Z" fill="#87DDFD"/>
<path d="M93.2632 60.8203V71.6328H71.6382V66.2266V60.8203H93.2632Z" fill="#87DDFD"/>
<path d="M49.9539 71.6328H44.5476L49.9539 60.8203H55.3601L49.9539 71.6328Z" fill="#D7F4FF"/>
<path d="M82.448 71.6328H77.0417L82.448 60.8203H87.8542L82.448 71.6328Z" fill="#D7F4FF"/>
<path d="M6.76318 147.328C5.26836 147.328 4.06006 146.12 4.06006 144.625C4.06006 131.207 14.9753 120.292 28.3936 120.292C29.8884 120.292 31.0967 121.5 31.0967 122.995C31.0967 124.49 29.8884 125.698 28.3936 125.698C17.9568 125.698 9.46631 134.189 9.46631 144.625C9.46631 146.12 8.25801 147.328 6.76318 147.328ZM125.701 147.326C124.206 147.326 122.998 146.117 122.998 144.623C122.998 134.191 114.507 125.701 104.076 125.701C102.581 125.701 101.373 124.492 101.373 122.998C101.373 121.503 102.581 120.294 104.076 120.294C117.491 120.294 128.404 131.207 128.404 144.623C128.404 146.117 127.196 147.326 125.701 147.326Z" fill="#0D7CA0"/>
<path d="M47.3101 125.701L28.3936 125.698C26.8988 125.698 25.6905 124.487 25.6905 122.995C25.6905 121.5 26.9015 120.292 28.3936 120.292L47.3101 120.294C48.8049 120.294 50.0132 121.505 50.0132 122.998C50.0132 124.492 48.8022 125.701 47.3101 125.701ZM104.076 125.701L85.1538 125.698C83.659 125.698 82.4507 124.487 82.4507 122.995C82.4507 121.5 83.6617 120.292 85.1538 120.292L104.076 120.294C105.571 120.294 106.779 121.505 106.779 122.998C106.779 124.492 105.568 125.701 104.076 125.701ZM6.76589 168.943C5.27376 168.943 4.06276 167.734 4.06276 166.239L4.06006 144.625C4.06006 143.133 5.26836 141.922 6.76318 141.922C8.25531 141.922 9.46631 143.13 9.46631 144.625L9.46901 166.239C9.46901 167.732 8.26071 168.943 6.76589 168.943ZM125.701 168.943C124.206 168.943 122.998 167.734 122.998 166.239V144.623C122.998 143.128 124.206 141.919 125.701 141.919C127.196 141.919 128.404 143.128 128.404 144.623V166.239C128.404 167.734 127.196 168.943 125.701 168.943Z" fill="#0D7CA0"/>
<path d="M47.3101 125.701C45.8152 125.701 44.6069 124.492 44.6069 122.998V107.506C44.6069 106.011 45.8152 104.803 47.3101 104.803C48.8049 104.803 50.0132 106.011 50.0132 107.506V122.998C50.0132 124.492 48.8049 125.701 47.3101 125.701ZM85.1538 125.698C83.659 125.698 82.4507 124.49 82.4507 122.995V107.506C82.4507 106.011 83.659 104.803 85.1538 104.803C86.6486 104.803 87.8569 106.011 87.8569 107.506V122.995C87.8569 124.49 86.6486 125.698 85.1538 125.698ZM66.313 139.211C64.8182 139.211 63.5964 138.003 63.5964 136.508C63.5964 135.013 64.7912 133.805 66.2833 133.805H66.313C67.8052 133.805 69.0162 135.013 69.0162 136.508C69.0162 138.003 67.8052 139.211 66.313 139.211ZM66.313 147.32C64.8182 147.32 63.5964 146.112 63.5964 144.617C63.5964 143.122 64.7912 141.914 66.2833 141.914H66.313C67.8052 141.914 69.0162 143.122 69.0162 144.617C69.0162 146.112 67.8052 147.32 66.313 147.32ZM60.8257 74.3414H39.2007C37.7059 74.3414 36.4976 73.1331 36.4976 71.6382V60.8257C36.4976 59.3309 37.7059 58.1226 39.2007 58.1226H60.8257C62.3205 58.1226 63.5288 59.3309 63.5288 60.8257V71.6382C63.5288 73.1331 62.3205 74.3414 60.8257 74.3414ZM41.9038 68.9351H58.1226V63.5289H41.9038V68.9351ZM93.2632 74.3414H71.6382C70.1434 74.3414 68.9351 73.1331 68.9351 71.6382V60.8257C68.9351 59.3309 70.1434 58.1226 71.6382 58.1226H93.2632C94.758 58.1226 95.9663 59.3309 95.9663 60.8257V71.6382C95.9663 73.1331 94.758 74.3414 93.2632 74.3414ZM74.3413 68.9351H90.5601V63.5289H74.3413V68.9351Z" fill="#0D7CA0"/>
<path d="M71.6383 68.9351H60.8258C59.3309 68.9351 58.1226 67.7268 58.1226 66.232C58.1226 64.7372 59.3309 63.5289 60.8258 63.5289H71.6383C73.1331 63.5289 74.3414 64.7372 74.3414 66.232C74.3414 67.7268 73.1331 68.9351 71.6383 68.9351ZM58.1199 131.102C57.7145 131.102 57.3009 131.01 56.9143 130.818L46.1018 125.417C44.7665 124.749 44.2259 123.125 44.8935 121.789C45.5585 120.454 47.1858 119.919 48.5211 120.581L59.3336 125.982C60.669 126.65 61.2096 128.274 60.5419 129.609C60.0689 130.556 59.112 131.102 58.1199 131.102Z" fill="#0D7CA0"/>
<path d="M58.1227 131.102C56.9901 131.102 55.9359 130.385 55.5601 129.253C55.0871 127.836 55.8521 126.304 57.2685 125.833L65.3779 123.13C66.8078 122.657 68.3243 123.422 68.7973 124.838C69.2704 126.255 68.5054 127.788 67.089 128.258L58.9796 130.961C58.693 131.056 58.4038 131.102 58.1227 131.102Z" fill="#0D7CA0"/>
<path d="M74.3414 131.102C74.0603 131.102 73.7711 131.056 73.4872 130.961L65.3779 128.258C63.9641 127.788 63.1964 126.258 63.6695 124.838C64.1425 123.425 65.6617 122.657 67.0889 123.13L75.1983 125.833C76.612 126.304 77.3797 127.833 76.9067 129.253C76.5282 130.385 75.474 131.102 74.3414 131.102Z" fill="#0D7CA0"/>
<path d="M74.344 131.102C73.352 131.102 72.3951 130.556 71.922 129.607C71.2544 128.271 71.795 126.647 73.1303 125.979L83.9428 120.576C85.2782 119.911 86.9055 120.449 87.5704 121.784C88.2381 123.119 87.6975 124.744 86.3621 125.411L75.5496 130.815C75.1631 131.01 74.7495 131.102 74.344 131.102ZM66.2293 163.539C65.6859 163.539 65.1372 163.374 64.6614 163.034C63.4477 162.166 63.1639 160.479 64.0343 159.263L91.0656 121.424C91.936 120.211 93.6254 119.927 94.8364 120.797C96.0501 121.665 96.334 123.352 95.4636 124.568L68.4323 162.406C67.9025 163.144 67.0726 163.539 66.2293 163.539Z" fill="#0D7CA0"/>
<path d="M66.2346 163.539C65.3886 163.539 64.5614 163.144 64.0343 162.406L37.003 124.568C36.1353 123.354 36.4165 121.668 37.6302 120.797C38.8412 119.93 40.5333 120.208 41.401 121.424L68.4323 159.263C69.3 160.476 69.0189 162.163 67.8052 163.034C67.3267 163.374 66.778 163.539 66.2346 163.539ZM66.2319 114.885C42.385 114.885 22.9819 95.4825 22.9819 71.6355C22.9819 70.1407 24.1902 68.9324 25.6851 68.9324C27.1799 68.9324 28.3882 70.1407 28.3882 71.6355C28.3882 92.5036 45.3638 109.479 66.2319 109.479C87.1001 109.479 104.076 92.5036 104.076 71.6355C104.076 70.1407 105.284 68.9324 106.779 68.9324C108.274 68.9324 109.482 70.1407 109.482 71.6355C109.482 95.4825 90.0789 114.885 66.2319 114.885Z" fill="#0D7CA0"/>
<path d="M25.6851 74.3387C24.1902 74.3387 22.9819 73.1304 22.9819 71.6355V41.8985C22.9819 40.4036 24.1902 39.1953 25.6851 39.1953C27.1799 39.1953 28.3882 40.4036 28.3882 41.8985V71.6355C28.3882 73.1304 27.1799 74.3387 25.6851 74.3387ZM106.779 74.3387C105.284 74.3387 104.076 73.1304 104.076 71.6355V39.2007C104.076 37.7059 105.284 36.4976 106.779 36.4976C108.274 36.4976 109.482 37.7059 109.482 39.2007V71.6355C109.482 73.1304 108.274 74.3387 106.779 74.3387Z" fill="#0D7CA0"/>
<path d="M106.779 41.9039C105.284 41.9039 104.076 40.6956 104.076 39.2007C104.076 30.2561 96.8016 22.982 87.8569 22.982C86.3621 22.982 85.1538 21.7737 85.1538 20.2789C85.1538 18.784 86.3621 17.5757 87.8569 17.5757C99.7804 17.5757 109.482 27.2773 109.482 39.2007C109.482 40.6956 108.274 41.9039 106.779 41.9039Z" fill="#0D7CA0"/>
<path d="M87.8569 22.982C86.3621 22.982 85.1538 21.7737 85.1538 20.2788V6.75781C85.1538 5.26298 86.3621 4.05469 87.8569 4.05469C89.3518 4.05469 90.5601 5.26298 90.5601 6.75781V20.2788C90.5601 21.7737 89.3518 22.982 87.8569 22.982Z" fill="#0D7CA0"/>
<path d="M87.8569 9.46094H60.8257C59.3309 9.46094 58.1226 8.25264 58.1226 6.75781C58.1226 5.26298 59.3309 4.05469 60.8257 4.05469H87.8569C89.3518 4.05469 90.5601 5.26298 90.5601 6.75781C90.5601 8.25264 89.3518 9.46094 87.8569 9.46094Z" fill="#0D7CA0"/>
<path d="M25.6851 44.6016C24.1902 44.6016 22.9819 43.3933 22.9819 41.8984C22.9819 21.0303 39.9576 4.05469 60.8257 4.05469C62.3205 4.05469 63.5288 5.26298 63.5288 6.75781C63.5288 8.25264 62.3205 9.46094 60.8257 9.46094C42.9391 9.46094 28.3882 24.0119 28.3882 41.8984C28.3882 43.3933 27.1799 44.6016 25.6851 44.6016ZM106.779 58.1172C106.087 58.1172 105.395 57.8523 104.868 57.3252L94.0552 46.5127C92.9983 45.4558 92.9983 43.7474 94.0552 42.6905C95.1121 41.6335 96.8205 41.6335 97.8774 42.6905L108.69 53.503C109.747 54.5599 109.747 56.2683 108.69 57.3252C108.163 57.8523 107.471 58.1172 106.779 58.1172Z" fill="#0D7CA0"/>
<path d="M66.232 55.4141C49.4564 55.4141 35.684 47.2642 35.1055 46.9182C33.8269 46.1505 33.4133 44.4934 34.1783 43.2122C34.9433 41.9363 36.5976 41.5146 37.8843 42.2796C38.0141 42.358 50.9972 50.0051 66.2293 50.0051C81.4614 50.0051 94.4445 42.358 94.5742 42.2796C95.8636 41.5146 97.5152 41.9363 98.2802 43.2122C99.0452 44.4934 98.6316 46.1505 97.353 46.9182C96.78 47.2642 83.0076 55.4141 66.232 55.4141Z" fill="#0D7CA0"/>
<path d="M25.685 58.1172C24.993 58.1172 24.301 57.8523 23.7739 57.3252C22.717 56.2683 22.717 54.5599 23.7739 53.503L34.5864 42.6905C35.6433 41.6335 37.3517 41.6335 38.4086 42.6905C39.4655 43.7474 39.4655 45.4558 38.4086 46.5127L27.5961 57.3252C27.069 57.8523 26.377 58.1172 25.685 58.1172Z" fill="#0D7CA0"/>
<path d="M163.547 163.553C162.052 163.553 160.844 162.344 160.844 160.849C160.844 154.886 155.992 150.034 150.029 150.034C144.066 150.034 139.216 154.886 139.216 160.849C139.216 162.344 138.008 163.553 136.513 163.553C135.018 163.553 133.81 162.344 133.81 160.849C133.81 151.905 141.084 144.628 150.029 144.628C158.973 144.628 166.25 151.905 166.25 160.849C166.25 162.344 165.042 163.553 163.547 163.553Z" fill="#0D7CA0"/>
<path d="M166.237 168.945H133.821C132.326 168.945 131.118 167.737 131.118 166.242C131.118 164.747 132.326 163.539 133.821 163.539H166.237C167.732 163.539 168.94 164.747 168.94 166.242C168.94 167.737 167.732 168.945 166.237 168.945ZM144.625 151.161C143.13 151.161 141.922 149.953 141.922 148.458V123.014C141.922 121.519 143.13 120.311 144.625 120.311C146.12 120.311 147.328 121.519 147.328 123.014V148.458C147.328 149.953 146.12 151.161 144.625 151.161ZM155.432 151.161C153.937 151.161 152.729 149.953 152.729 148.458V123.014C152.729 121.519 153.937 120.311 155.432 120.311C156.927 120.311 158.135 121.519 158.135 123.014V148.458C158.135 149.953 156.927 151.161 155.432 151.161Z" fill="#0D7CA0"/>
<path d="M158.135 133.829H141.922C140.427 133.829 139.219 132.621 139.219 131.126C139.219 129.631 140.427 128.423 141.922 128.423H158.135C159.63 128.423 160.839 129.631 160.839 131.126C160.839 132.621 159.63 133.829 158.135 133.829ZM158.135 125.714H141.925C140.43 125.714 139.222 124.506 139.222 123.011V112.201C139.222 110.706 140.43 109.498 141.925 109.498H158.135C159.63 109.498 160.839 110.706 160.839 112.201V123.011C160.839 124.506 159.63 125.714 158.135 125.714ZM144.628 120.308H155.432V114.904H144.628V120.308Z" fill="#0D7CA0"/>
<path d="M150.029 114.904C145.558 114.904 141.919 111.266 141.919 106.795C141.919 102.324 145.558 98.6857 150.029 98.6857C154.5 98.6857 158.138 102.324 158.138 106.795C158.138 111.266 154.5 114.904 150.029 114.904ZM150.029 104.092C148.537 104.092 147.326 105.303 147.326 106.795C147.326 108.287 148.537 109.498 150.029 109.498C151.521 109.498 152.732 108.287 152.732 106.795C152.732 105.303 151.521 104.092 150.029 104.092Z" fill="#0D7CA0"/>
<path d="M150.029 104.092C148.534 104.092 147.326 102.884 147.326 101.389V93.2767C147.326 91.7819 148.534 90.5736 150.029 90.5736C151.524 90.5736 152.732 91.7819 152.732 93.2767V101.389C152.732 102.884 151.524 104.092 150.029 104.092Z" fill="#0D7CA0"/>
<path d="M152.732 98.683H147.326C145.831 98.683 144.623 97.4747 144.623 95.9799C144.623 94.485 145.831 93.2767 147.326 93.2767H152.732C154.227 93.2767 155.435 94.485 155.435 95.9799C155.435 97.4747 154.227 98.683 152.732 98.683ZM136.519 168.945C135.024 168.945 133.815 167.737 133.815 166.242V160.847C133.815 159.352 135.024 158.144 136.519 158.144C138.013 158.144 139.222 159.352 139.222 160.847V166.242C139.222 167.737 138.013 168.945 136.519 168.945ZM163.539 168.945C162.044 168.945 160.836 167.737 160.836 166.242V160.847C160.836 159.352 162.044 158.144 163.539 158.144C165.034 158.144 166.242 159.352 166.242 160.847V166.242C166.242 167.737 165.034 168.945 163.539 168.945Z" fill="#0D7CA0"/>
</g>
<defs>
<clipPath id="clip0_134_120">
<rect width="173" height="173" fill="white"/>
</clipPath>
</defs>
</svg>
