<svg width="176" height="176" viewBox="0 0 176 176" fill="none" xmlns="http://www.w3.org/2000/svg">
<path d="M142.456 85.6247C142.456 86.7405 142.428 87.8422 142.371 88.9436C142.075 95.4264 140.902 101.683 138.967 107.587C134.73 120.567 126.849 131.88 116.525 140.34C104.336 150.297 88.772 156.285 71.7952 156.285C32.7713 156.285 1.13428 124.648 1.13428 85.6244C1.13428 65.6535 9.41075 47.6317 22.7293 34.7793C27.5666 30.0984 33.0508 26.1362 39.0142 23.0141C44.5647 20.1046 50.5532 17.9011 56.8524 16.5595C61.7621 15.4959 66.7716 14.9609 71.7952 14.9634C73.0805 14.9634 74.3657 14.9916 75.6369 15.0765C94.054 16.0511 110.607 24.1017 122.627 36.5444C126.965 41.0273 130.688 46.0663 133.699 51.5295C136.92 57.3573 139.288 63.6164 140.733 70.1161C141.881 75.2056 142.459 80.4072 142.456 85.6247Z" fill="#1CA8D5"/>
<path d="M142.456 85.6247C142.456 86.7405 142.428 87.8422 142.371 88.9436C142.075 95.4264 140.902 101.683 138.967 107.587C134.73 120.567 126.849 131.88 116.525 140.34C104.336 150.297 88.772 156.285 71.7952 156.285C32.7713 156.285 1.13428 124.648 1.13428 85.6244C1.13428 65.6535 9.41075 47.6317 22.7293 34.7793C27.5666 30.0984 33.0508 26.1362 39.0142 23.0141C44.5647 20.1046 50.5532 17.9011 56.8524 16.5595C61.7621 15.4959 66.7716 14.9609 71.7952 14.9634C73.0805 14.9634 74.3657 14.9916 75.6369 15.0765C94.054 16.0511 110.607 24.1017 122.627 36.5444C126.965 41.0273 130.688 46.0663 133.699 51.5295C136.92 57.3573 139.288 63.6164 140.733 70.1161C141.881 75.2056 142.459 80.4072 142.456 85.6247Z" fill="#1CA8D5"/>
<path d="M142.455 85.6247C142.455 86.7439 142.428 87.8456 142.374 88.947C142.078 95.4305 140.905 101.681 138.971 107.583C134.726 120.568 126.845 131.878 116.52 140.341C115.477 134.556 113.851 128.891 111.666 123.433C109.113 117.052 105.819 110.992 101.852 105.38C98.2237 100.24 94.0634 95.4971 89.4399 91.2305C84.7972 86.9426 79.705 83.1684 74.252 79.9738C89.2071 63.6752 110.207 53.0097 133.696 51.5322C136.918 57.3583 139.288 63.6159 140.735 70.1143C141.864 75.12 142.455 80.2962 142.455 85.6247Z" fill="#0D7CA0"/>
<path d="M138.967 107.587C134.73 120.567 126.849 131.88 116.525 140.34C115.48 134.555 113.852 128.891 111.667 123.434C117.189 114.07 127.344 107.742 138.967 107.587Z" fill="#1CA8D5"/>
<path d="M133.697 51.5323C123.136 52.1833 112.78 54.7441 103.133 59.0903C95.2289 62.6531 87.891 67.357 81.3536 73.0514C78.8553 75.2273 76.482 77.529 74.2521 79.9738C64.7058 74.35 54.0313 70.4815 42.6312 68.7889C33.6312 59.2158 26.7538 47.6276 22.7329 34.7772C27.5698 30.0973 33.0523 26.1346 39.0133 23.01C44.5655 20.1084 50.5564 17.9056 56.8518 16.5622C61.6698 15.5145 66.6666 14.9683 71.7981 14.9683C73.0785 14.9683 74.3683 14.9951 75.6398 15.0759C94.0518 16.0521 110.61 24.1027 122.628 36.5413C126.963 41.0274 130.686 46.0683 133.697 51.5323Z" fill="#0D7CA0"/>
<path d="M122.626 36.5448C118.036 39.0727 112.754 40.5134 107.147 40.5134C91.7097 40.5134 78.7723 29.5959 75.637 15.0765C94.0541 16.0514 110.607 24.1017 122.626 36.5448Z" fill="#1CA8D5"/>
<path d="M34.2035 124.399L44.1884 107.465L96.1372 19.2744L101.394 10.3551C104.761 4.63273 112.131 2.72526 117.854 6.09263C121.588 8.29573 123.773 12.2715 123.773 16.4629C123.773 17.5017 123.639 18.5494 123.361 19.5883L122.484 22.8212C122.09 24.2987 120.11 24.5764 119.322 23.2691L116.636 18.8093C115.481 16.9465 112.884 17.0184 111.827 18.8272L108.164 25.0422L104.752 30.8361C103.919 32.2453 103.515 33.8665 103.588 35.5018L103.821 40.9822C103.884 42.6177 103.477 44.237 102.648 45.6479L61.0421 116.277L51.3886 132.665L41.4841 149.474L37.4632 156.298C34.8036 160.82 28.9826 162.325 24.4602 159.665C21.4514 157.892 19.7766 154.722 19.7766 151.471C19.7766 149.832 20.2063 148.175 21.0932 146.662L25.5619 139.068H25.5709L34.2035 124.399Z" fill="#87DDFD"/>
<path d="M61.7139 155.563C61.3289 138.119 47.0186 124.059 29.4664 124.059C24.2276 124.059 19.2845 125.313 14.923 127.543C11.1793 122.496 8.13671 116.965 5.87824 111.101C3.55044 105.118 2.06757 98.8397 1.47239 92.4474C1.24608 90.1799 1.1325 87.9025 1.13208 85.6236C1.13241 81.0576 1.57331 76.5022 2.44864 72.0208C10.965 69.2804 20.0456 67.8119 29.4842 67.8119C41.5557 67.8119 53.0631 70.2298 63.5409 74.6089C69.4054 77.0548 74.9873 80.1295 80.1887 83.7791C98.887 96.8715 112.284 117.012 116.529 140.34C111.254 144.63 105.371 148.203 99.0125 150.844C93.1825 153.289 86.9678 154.955 80.4661 155.761C77.6275 156.101 74.7348 156.289 71.7975 156.289C68.3675 156.289 65.0001 156.047 61.7139 155.563Z" fill="#0D7CA0"/>
<path d="M24.355 75.1131C24.3427 74.8165 24.4487 74.5271 24.6496 74.3086C24.8506 74.0901 25.1302 73.9603 25.4268 73.9478C26.8884 73.887 28.1692 73.8574 29.3421 73.8574C29.6389 73.8574 29.9236 73.9753 30.1335 74.1852C30.3434 74.3951 30.4613 74.6798 30.4613 74.9767C30.4613 75.2735 30.3434 75.5582 30.1335 75.7681C29.9236 75.978 29.6389 76.0959 29.3421 76.0959C28.2008 76.0959 26.9506 76.1248 25.5203 76.1846C25.3734 76.1909 25.2267 76.1681 25.0886 76.1177C24.9505 76.0672 24.8237 75.99 24.7155 75.8905C24.6073 75.7909 24.5197 75.6711 24.4578 75.5377C24.396 75.4043 24.361 75.26 24.355 75.1131ZM44.1897 77.4383C41.5833 76.9508 38.953 76.6004 36.3099 76.3885C36.1634 76.3769 36.0205 76.3365 35.8896 76.2697C35.7586 76.2029 35.6421 76.1109 35.5467 75.999C35.4514 75.8872 35.379 75.7576 35.3337 75.6178C35.2884 75.4779 35.2711 75.3305 35.2828 75.184C35.3316 74.568 35.8754 74.1121 36.4873 74.1568C39.2091 74.375 41.9176 74.736 44.6015 75.2383C44.8893 75.2969 45.1425 75.4664 45.3065 75.7101C45.4705 75.9538 45.5321 76.2522 45.4781 76.5409C45.424 76.8296 45.2586 77.0855 45.0176 77.2534C44.7766 77.4213 44.4792 77.4877 44.1897 77.4383Z" fill="white"/>
<path d="M143.601 115.669C143.737 115.724 143.883 115.752 144.03 115.751C144.177 115.75 144.322 115.72 144.458 115.663C144.593 115.605 144.716 115.522 144.819 115.417C144.922 115.312 145.003 115.188 145.058 115.052C145.491 113.991 145.895 112.918 146.27 111.835C146.363 111.555 146.341 111.251 146.21 110.987C146.08 110.723 145.85 110.522 145.572 110.426C145.294 110.33 144.989 110.347 144.724 110.474C144.458 110.602 144.254 110.828 144.154 111.105C143.792 112.151 143.401 113.187 142.984 114.211C142.929 114.348 142.901 114.493 142.902 114.64C142.903 114.787 142.933 114.933 142.99 115.068C143.048 115.204 143.131 115.326 143.236 115.43C143.341 115.533 143.465 115.614 143.601 115.669ZM140.448 119.863C137.899 124.984 134.778 129.801 131.147 134.222C130.958 134.451 130.869 134.746 130.898 135.041C130.926 135.337 131.072 135.609 131.301 135.797C131.53 135.986 131.825 136.076 132.121 136.047C132.416 136.018 132.688 135.873 132.877 135.643C136.615 131.092 139.827 126.134 142.453 120.862C142.518 120.73 142.557 120.587 142.568 120.44C142.578 120.294 142.559 120.146 142.512 120.007C142.466 119.868 142.392 119.739 142.295 119.628C142.199 119.517 142.082 119.426 141.95 119.361C141.818 119.295 141.675 119.256 141.528 119.246C141.382 119.235 141.234 119.254 141.095 119.301C140.956 119.347 140.827 119.421 140.716 119.518C140.605 119.614 140.514 119.732 140.448 119.863ZM12.9271 36.4337C13.5857 35.6432 14.2615 34.8673 14.9542 34.1065C15.0531 33.9977 15.1295 33.8705 15.1792 33.7321C15.2289 33.5938 15.2508 33.447 15.2437 33.3002C15.2367 33.1533 15.2008 33.0093 15.1381 32.8764C15.0754 32.7434 14.9871 32.6241 14.8783 32.5253C14.7695 32.4264 14.6422 32.35 14.5039 32.3003C14.3655 32.2507 14.2187 32.2287 14.0719 32.2358C13.9251 32.2428 13.7811 32.2787 13.6481 32.3414C13.5152 32.4042 13.3959 32.4924 13.297 32.6012C12.5823 33.3863 11.8849 34.187 11.2053 35.0027C11.0155 35.231 10.9242 35.5254 10.9515 35.821C10.9788 36.1167 11.1224 36.3894 11.3507 36.5791C11.579 36.7689 11.8734 36.8602 12.169 36.8329C12.4647 36.8056 12.7374 36.662 12.9271 36.4337ZM19.0524 29.9293C23.1623 26.0215 27.7496 22.5562 32.6876 19.6305C32.8149 19.556 32.9263 19.4571 33.0152 19.3394C33.1042 19.2218 33.169 19.0877 33.206 18.9449C33.2429 18.8021 33.2513 18.6534 33.2306 18.5073C33.2098 18.3613 33.1605 18.2207 33.0853 18.0938C33.0101 17.9669 32.9105 17.8562 32.7923 17.7679C32.6742 17.6796 32.5397 17.6155 32.3967 17.5794C32.2537 17.5432 32.1049 17.5357 31.959 17.5572C31.8131 17.5788 31.6728 17.6289 31.5464 17.7048C26.4637 20.7157 21.7412 24.2832 17.5097 28.3071C17.4032 28.4084 17.3176 28.5297 17.258 28.6641C17.1984 28.7984 17.1658 28.9432 17.1621 29.0901C17.1584 29.2371 17.1837 29.3833 17.2365 29.5205C17.2893 29.6576 17.3687 29.7831 17.47 29.8896C17.6746 30.1047 17.9562 30.2297 18.253 30.2372C18.3999 30.2409 18.5462 30.2156 18.6833 30.1627C18.8205 30.1099 18.9459 30.0306 19.0524 29.9293Z" fill="#0E1232"/>
<path d="M174.866 170.448H147.433C145.347 170.448 143.319 169.755 141.67 168.476C140.021 167.198 138.844 165.407 138.324 163.386C137 158.239 132.362 154.643 127.046 154.643H91.4218C100.795 151.976 109.612 147.433 117.234 141.206C133.968 127.494 143.576 107.182 143.576 85.625C143.576 61.2882 131.237 38.0758 109.678 24.6733L112.789 19.3933C113.447 18.2741 115.009 18.3098 115.674 19.3834L118.364 23.8456C119.66 25.9985 122.911 25.5489 123.567 23.1148L124.44 19.8756C125.975 14.1852 123.5 8.12108 118.422 5.12977C112.175 1.45096 104.105 3.5389 100.426 9.78312L95.6338 17.919C87.9749 15.2235 79.9144 13.8458 71.795 13.8445C32.6454 13.8445 0.0148926 45.4461 0.0148926 85.625C0.0148926 106.936 9.3673 126.088 24.1637 139.246L20.1308 146.091C17.1522 151.149 18.8335 157.652 23.8907 160.63C28.9662 163.619 35.4765 161.884 38.4296 156.87L41.95 150.895C51.0439 155.07 61.1508 157.405 71.7947 157.405C77.0912 157.405 79.7821 156.883 80.4668 156.883H127.046C129.132 156.882 131.16 157.576 132.809 158.854C134.458 160.133 135.635 161.924 136.155 163.945C137.479 169.092 142.117 172.687 147.433 172.687H174.866C175.163 172.687 175.448 172.569 175.658 172.359C175.868 172.149 175.985 171.864 175.985 171.568C175.985 171.271 175.868 170.986 175.658 170.776C175.448 170.566 175.163 170.448 174.866 170.448ZM2.66692 93.1477C11.1331 89.5149 20.1449 87.6741 29.4664 87.6741C64.7994 87.6741 94.6647 115.028 97.8259 150.1C92.5922 152.207 87.1228 153.672 81.5369 154.463C80.5545 126.621 57.4724 104.179 29.4664 104.179C21.4996 104.179 13.5961 106.047 6.50558 109.55C4.50839 104.126 3.23067 98.505 2.66692 93.1477ZM2.25408 85.6247C2.25408 81.4815 2.60677 77.3406 3.42661 72.8846C11.8041 70.2608 20.5667 68.9308 29.4846 68.9308C41.1422 68.9308 52.4553 71.1886 63.1099 75.6418C68.8994 78.0577 74.4105 81.0933 79.5466 84.6955C98.3673 97.8742 111.046 117.449 115.303 139.874C110.615 143.627 105.46 146.757 99.9674 149.185C96.3622 113.313 65.71 85.4353 29.4664 85.4353C20.0823 85.4353 11.007 87.2651 2.45311 90.8322C2.32216 89.0994 2.25577 87.3624 2.25408 85.6247ZM22.2394 36.8706C25.9842 47.9909 31.9953 58.4141 39.7624 67.2781C36.3501 66.8886 32.9186 66.6929 29.4842 66.692C20.7516 66.692 12.1675 67.9542 3.92711 70.4103C6.71767 57.8136 12.9767 46.2711 22.2394 36.8706ZM38.2736 24.695C42.358 41.9021 52.655 56.737 66.9633 66.5895L63.0638 73.2095C56.6699 70.6146 49.9946 68.776 43.1737 67.7311C34.5075 58.421 27.8954 47.1656 24.011 35.1147C28.2987 31.0442 33.0922 27.5422 38.2736 24.695ZM76.4869 50.4226L68.1052 64.6511C54.162 55.0021 44.1465 40.4711 40.2962 23.6225C45.2991 21.0777 50.5616 19.161 55.9726 17.9118C58.4806 31.3417 65.9991 42.8062 76.4869 50.4226ZM95.9988 59.1425C97.0469 59.3711 98.1057 59.5708 99.1758 59.7369C97.4118 60.6249 95.6778 61.5714 93.9769 62.5749L95.9988 59.1425ZM91.506 66.7693C103.829 58.6544 118.047 53.7656 133.051 52.6955C135.82 57.8324 137.921 63.3018 139.305 68.971C120.44 68.9899 102.781 76.3417 89.4229 89.6782C86.9534 87.4683 84.3656 85.3943 81.671 83.4652L91.506 66.7693ZM117.261 138.246C116.238 133.222 114.787 128.295 112.922 123.519C118.181 114.967 127.397 109.432 137.373 108.77C133.495 119.773 126.739 130.044 117.261 138.246ZM138.13 106.505C127.627 106.912 117.812 112.353 111.892 120.999C109.564 115.542 106.693 110.333 103.321 105.451C113.492 94.7695 127.62 89.4451 141.184 89.9986C140.842 95.6047 139.817 101.148 138.13 106.505ZM141.282 87.7666C127.254 87.196 112.656 92.62 102.015 103.609C98.7567 99.136 95.0891 94.9756 91.0598 91.1817C104.083 78.2138 121.344 71.0992 139.82 71.2092C140.827 75.9484 141.336 80.78 141.337 85.625C141.337 86.3407 141.306 87.053 141.282 87.7666ZM131.85 50.5529C121.888 51.38 112.275 53.8426 103.322 57.7861C103.195 57.8397 103.067 57.8906 102.94 57.947C101.009 57.7842 99.0883 57.5089 97.1889 57.1226L103.615 46.2134C104.455 44.7872 104.884 43.1795 104.918 41.535C111.006 41.9935 117.107 40.6474 122.384 37.9235C126.01 41.7593 129.185 45.9966 131.85 50.5529ZM120.755 36.2546C115.881 38.6351 110.304 39.742 104.866 39.2824L104.703 35.4499C104.642 34.0301 104.994 32.6232 105.717 31.3995L108.543 26.6007C112.962 29.3519 117.059 32.5901 120.755 36.2546ZM102.356 10.9189C105.394 5.76158 112.082 3.99402 117.285 7.05855C121.498 9.54043 123.552 14.5709 122.279 19.2923L121.406 22.5314C121.262 23.0625 120.559 23.1502 120.281 22.6892L117.585 18.2156C115.995 15.6482 112.354 15.7211 110.86 18.2562L103.788 30.2631C102.846 31.8586 102.387 33.6928 102.466 35.5437L102.699 41.0269C102.76 42.4465 102.408 43.8533 101.686 45.0773L79.8302 82.1793C75.2008 79.0257 70.2845 76.3154 65.1466 74.0843L102.356 10.9189ZM87.2579 32.1372C82.4197 28.106 78.779 22.6301 77.0847 16.302C83.0108 16.7464 88.855 17.952 94.4733 19.889L87.2579 32.1372ZM74.7434 16.1473C76.4999 23.3619 80.6009 29.5852 86.1146 34.079L77.6285 48.4852C67.67 41.185 60.5225 30.2541 58.1458 17.4546C62.6176 16.5574 67.2008 16.0834 71.7954 16.0834C72.7784 16.0811 73.7614 16.1024 74.7434 16.1473ZM16.6837 127.955C20.6942 126.123 24.9842 125.178 29.4664 125.178C30.444 125.178 31.411 125.229 32.3673 125.319L25.3214 137.28C22.1662 134.439 19.2751 131.318 16.6837 127.955ZM36.5012 155.734C34.1506 159.724 29.0188 161.052 25.0275 158.701C21.0376 156.35 19.709 151.218 22.0606 147.227L34.7721 125.648C40.4932 126.651 45.7085 129.235 49.9308 132.937L36.5012 155.734ZM51.5987 134.516C56.6975 139.685 60.0244 146.602 60.5276 154.247C54.5074 153.262 48.6445 151.483 43.0923 148.956L51.5987 134.516ZM62.7977 154.579C61.8999 137.046 47.1461 122.939 29.4664 122.939C24.4933 122.939 19.7345 124.005 15.3035 126.108C12.0707 121.617 9.38577 116.756 7.30583 111.628C14.1351 108.217 21.7743 106.417 29.4664 106.417C56.3363 106.417 78.4885 127.999 79.3242 154.738C77.1682 154.975 74.9868 155.166 71.7954 155.166C68.79 155.166 65.8788 154.978 62.7977 154.579Z" fill="#0E1232"/>
</svg>
