<svg width="199" height="158" viewBox="0 0 199 158" fill="none" xmlns="http://www.w3.org/2000/svg">
<g clip-path="url(#clip0_134_59)">
<path opacity="0.12" d="M89.6951 28.0841C82.7974 33.8964 77.1923 41.4447 69.2112 45.6383C64.7438 47.9825 59.7744 49.1399 54.918 50.4818C38.5292 55.0108 21.4544 63.1505 14.3057 78.6163C12.6994 82.0969 11.6621 85.8376 9.80064 89.184C8.28641 91.893 6.26186 94.2834 4.63469 96.9504C0.565454 103.614 -0.892293 111.555 0.543756 119.235C2.40517 128.935 8.87621 137.33 16.9117 143.042C22.6649 147.126 29.1945 149.981 36.0947 151.429C51.7892 154.716 67.9605 150.51 83.9728 149.751C113.672 148.309 143.513 158.692 172.823 153.676C180.984 152.28 189.526 149.277 194.252 142.463C197.431 137.875 198.46 132.122 198.728 126.527C199.396 111.583 195.225 96.8218 186.836 84.4495C183.77 79.954 180.076 75.6431 178.926 70.3005C178.253 67.1805 178.508 63.9347 178.148 60.7644C177.716 57.2357 176.522 53.8439 174.649 50.8247C172.777 47.8055 170.271 45.2314 167.306 43.2815C160.538 38.8951 151.749 38.0102 145.671 32.7096C137.147 25.2703 134.482 17.7009 122.021 16.7993C110.338 15.9522 98.563 20.6154 89.6951 28.0841Z" fill="#68E1FD"/>
<path d="M129.178 50.8341C129.178 50.8341 132.792 58.5712 134.52 60.3912C136.247 62.2112 161.763 73.735 161.763 73.735C161.763 73.735 162.755 74.9511 164.633 74.2173C166.511 73.4834 168.523 68.6357 168.523 68.6357C168.523 68.6357 167.109 66.5892 165.386 66.5012C163.662 66.4131 164.633 65.067 164.633 65.067L161.592 66.5012C161.592 66.5012 159.751 67.4489 154.924 63.876C150.097 60.3031 140.321 55.7028 140.321 55.7028L138.23 49.7438L129.178 50.8341Z" fill="url(#paint0_linear_134_59)"/>
<path d="M129.178 50.8341C129.178 50.8341 132.792 58.5712 134.52 60.3912C136.247 62.2112 161.763 73.735 161.763 73.735C161.763 73.735 162.755 74.9511 164.633 74.2173C166.511 73.4834 168.523 68.6357 168.523 68.6357C168.523 68.6357 167.109 66.5892 165.386 66.5012C163.662 66.4131 164.633 65.067 164.633 65.067L161.592 66.5012C161.592 66.5012 159.751 67.4489 154.924 63.876C150.097 60.3031 140.321 55.7028 140.321 55.7028L138.23 49.7438L129.178 50.8341Z" fill="url(#paint1_linear_134_59)"/>
<path d="M137.234 32.5251L138.837 47.3996V50.3518H136.398L132.671 43.7176L137.234 32.5251Z" fill="#68E1FD"/>
<path d="M137.234 32.5251L138.837 47.3996V50.3518H136.398L132.671 43.7176L137.234 32.5251Z" fill="url(#paint2_linear_134_59)"/>
<path d="M62.0584 146.22C58.3482 146.095 54.6337 145.973 50.9276 146.174C46.3012 146.43 41.7251 147.189 37.1489 147.948L24.073 150.12C26.8714 153.286 31.3011 154.314 35.4339 155.186C38.935 155.928 42.478 156.662 46.0461 156.914C50.229 157.212 54.4705 156.83 58.6744 156.578C74.829 155.618 91.0296 156.549 107.197 157.153C132.434 158.101 157.682 158.256 182.942 157.618C182.344 155.807 180.482 154.683 178.612 154.314C176.743 153.945 174.818 154.23 172.919 154.364C165.859 154.867 159.484 153.177 153.013 150.548C147.633 148.363 142.225 148.896 136.457 148.703L89.1891 147.126L62.0584 146.22Z" fill="url(#paint3_linear_134_59)"/>
<path d="M121.958 135.363C127.281 135.363 131.596 130.991 131.596 125.597C131.596 120.203 127.281 115.83 121.958 115.83C116.636 115.83 112.321 120.203 112.321 125.597C112.321 130.991 116.636 135.363 121.958 135.363Z" fill="#68E1FD"/>
<path d="M121.958 135.363C127.281 135.363 131.596 130.991 131.596 125.597C131.596 120.203 127.281 115.83 121.958 115.83C116.636 115.83 112.321 120.203 112.321 125.597C112.321 130.991 116.636 135.363 121.958 135.363Z" fill="url(#paint4_linear_134_59)"/>
<path d="M50.5803 154.025C44.1372 154.025 37.8388 152.109 32.4816 148.52C27.1243 144.932 22.9489 139.831 20.4832 133.863C18.0175 127.896 17.3724 121.329 18.6294 114.994C19.8864 108.658 22.989 102.839 27.545 98.2716C32.1009 93.7042 37.9056 90.5937 44.2249 89.3335C50.5442 88.0733 57.0943 88.7201 63.0469 91.192C68.9996 93.6639 74.0874 97.8499 77.667 103.221C81.2466 108.592 83.1572 114.906 83.1572 121.365C83.1439 130.023 79.7074 138.322 73.601 144.444C67.4945 150.566 59.2162 154.011 50.5803 154.025ZM50.5803 92.5766C44.8998 92.5766 39.3469 94.2654 34.6238 97.4293C29.9007 100.593 26.2196 105.09 24.0459 110.352C21.8723 115.613 21.3038 121.403 22.4123 126.988C23.5208 132.574 26.2565 137.704 30.2735 141.731C34.2906 145.757 39.4084 148.499 44.9798 149.61C50.5513 150.72 56.3261 150.149 61.5739 147.969C66.8218 145.789 71.307 142.098 74.4623 137.363C77.6176 132.627 79.3013 127.06 79.3005 121.365C79.2916 113.732 76.2628 106.414 70.8785 101.017C65.4942 95.6198 58.1943 92.5844 50.5803 92.5766ZM166.829 156.708C160.466 156.708 154.247 154.815 148.957 151.27C143.668 147.726 139.545 142.688 137.112 136.794C134.678 130.901 134.043 124.416 135.286 118.16C136.529 111.904 139.595 106.159 144.095 101.65C148.595 97.1407 154.329 94.0711 160.569 92.829C166.81 91.587 173.278 92.2282 179.155 94.6717C185.033 97.1152 190.055 101.251 193.587 106.557C197.12 111.862 199.003 118.098 199 124.477C198.984 133.024 195.589 141.216 189.559 147.258C183.528 153.3 175.355 156.698 166.829 156.708ZM166.829 96.3927C161.292 96.3927 155.88 98.0384 151.277 101.122C146.673 104.205 143.085 108.588 140.965 113.715C138.846 118.843 138.29 124.485 139.369 129.93C140.448 135.374 143.113 140.375 147.026 144.301C150.94 148.227 155.927 150.901 161.357 151.986C166.786 153.071 172.415 152.518 177.531 150.396C182.647 148.274 187.021 144.679 190.099 140.066C193.177 135.452 194.822 130.027 194.825 124.477C194.825 117.03 191.877 109.888 186.627 104.62C181.378 99.3515 174.257 96.3879 166.829 96.3801V96.3927Z" fill="black"/>
<path d="M167.803 131.082C167.613 131.236 167.382 131.33 167.138 131.354C152.82 126.213 149.988 89.6537 149.988 89.6537L153.506 88.9031C153.506 88.9953 153.506 89.0918 153.531 89.184C155.916 119.44 167.933 130.637 167.933 130.637C167.949 130.716 167.945 130.798 167.922 130.875C167.9 130.953 167.859 131.023 167.803 131.082Z" fill="#68E1FD"/>
<path d="M167.803 131.082C154.079 125.051 151.339 89.6705 151.339 89.6705L153.54 89.2008C155.924 119.457 167.942 130.654 167.942 130.654C167.953 130.731 167.947 130.81 167.923 130.884C167.899 130.958 167.858 131.026 167.803 131.082Z" fill="url(#paint5_linear_134_59)"/>
<path d="M85.2737 70.8708L98.6968 96.8708L107 96.225L107.56 70.0279C107.56 70.0279 87.2815 53.497 85.2737 70.8708Z" fill="#25233A"/>
<path d="M106.849 98.7956L106.373 96.2795L98.6968 96.875L99.8932 100.309L99.3577 101.987C98.3333 105.205 98.1248 108.628 98.7512 111.947L109.945 134.592L113.96 134.327L106.849 98.7956Z" fill="url(#paint6_linear_134_59)"/>
<path d="M92.9788 82.7847H96.5301L89.0426 125.118C88.9725 125.524 88.7614 125.892 88.4468 126.157C88.1321 126.422 87.7342 126.566 87.3234 126.565H87.2941C87.0387 126.565 86.7865 126.508 86.5552 126.4C86.3238 126.292 86.1189 126.134 85.9547 125.938C85.7906 125.741 85.6711 125.512 85.6048 125.264C85.5385 125.017 85.5269 124.758 85.5707 124.506L92.9788 82.7847Z" fill="#68E1FD"/>
<path d="M92.9788 90.6391L149.043 76.683V80.8976L92.9788 95.1262V90.6391ZM89.2058 118.195L149.043 81.7656V86.9572L89.2058 122.942V118.195Z" fill="#68E1FD"/>
<path d="M89.2058 118.195L149.043 81.7656V86.9572L89.2058 122.942V118.195Z" fill="url(#paint7_linear_134_59)"/>
<path d="M155.568 76.423V86.8063C155.569 87.3771 155.369 87.9299 155.004 88.3683C154.64 88.8067 154.133 89.1028 153.573 89.205L151.9 89.5111C151.549 89.5757 151.189 89.5621 150.844 89.4714C150.499 89.3807 150.178 89.215 149.904 88.986C149.63 88.7571 149.41 88.4706 149.259 88.1468C149.108 87.823 149.03 87.4698 149.03 87.1124V76.725C149.031 76.1544 149.231 75.602 149.595 75.1638C149.96 74.7255 150.466 74.4292 151.026 74.3263L151.331 74.2718L152.69 74.0243C153.042 73.9584 153.403 73.9709 153.749 74.061C154.095 74.151 154.417 74.3165 154.692 74.5456C154.966 74.7747 155.188 75.0617 155.339 75.3862C155.491 75.7107 155.569 76.0647 155.568 76.423Z" fill="#68E1FD"/>
<path d="M155.568 75.7521V87.2717C155.569 87.712 155.415 88.1383 155.133 88.4763C154.852 88.8143 154.461 89.0425 154.029 89.1211L151.252 89.6327C150.981 89.6818 150.704 89.6708 150.438 89.6006C150.172 89.5303 149.925 89.4025 149.714 89.2262C149.503 89.0499 149.333 88.8293 149.217 88.58C149.1 88.3307 149.039 88.0588 149.039 87.7834V76.2511C149.039 75.8109 149.193 75.3846 149.474 75.0466C149.755 74.7086 150.146 74.4804 150.578 74.4018L151.339 74.2592L153.356 73.8902C153.627 73.8401 153.906 73.8508 154.173 73.9215C154.44 73.9921 154.688 74.121 154.899 74.2989C155.111 74.4768 155.28 74.6993 155.396 74.9505C155.512 75.2017 155.57 75.4754 155.568 75.7521Z" fill="url(#paint8_linear_134_59)"/>
<path d="M157.869 88.3663L155.568 88.7856V73.4918L151.339 74.2676V74.2256L157.869 73.0221" fill="url(#paint9_linear_134_59)"/>
<path d="M155.568 73.4918V88.7856L151.339 89.5614V74.2676L155.568 73.4918Z" fill="url(#paint10_linear_134_59)"/>
<path d="M92.9787 90.6434L43.854 121.256C43.854 121.256 41.7166 126.729 43.854 126.561C45.9915 126.393 89.03 125.114 89.03 125.114L89.1889 120.397L46.6357 124.318C46.6357 124.318 45.2595 123.479 47.2088 121.91C49.158 120.342 92.9787 95.1221 92.9787 95.1221V90.6434Z" fill="#68E1FD"/>
<path d="M96.5301 82.7847L95.2417 90.0898L94.4051 94.774L89.0384 125.127C88.9683 125.533 88.7572 125.9 88.4426 126.165C88.1279 126.43 87.73 126.575 87.3192 126.574H87.2899C86.8972 126.573 86.516 126.44 86.208 126.196C85.8999 125.952 85.6828 125.61 85.5916 125.227C85.5324 124.994 85.5238 124.751 85.5665 124.515L86.2483 120.682L90.5317 96.5437L91.4059 91.6288L92.9745 82.7931L96.5301 82.7847Z" fill="url(#paint11_linear_134_59)"/>
<path d="M149.039 76.6873V80.8976L94.4094 94.7614L95.2418 90.0814L149.039 76.6873Z" fill="url(#paint12_linear_134_59)"/>
<path d="M149.043 86.9572L89.2058 122.942Z" fill="url(#paint13_linear_134_59)"/>
<path d="M46.6485 124.322L86.2527 120.673L85.5709 124.506C85.529 124.754 85.7884 122.72 85.8469 122.946C75.5903 123.257 46.021 124.624 44.0759 125.597C42.1309 126.569 45.3308 121.365 45.3308 121.365L91.0422 93.7172L90.5402 96.5353C81.2959 101.865 48.8905 120.564 47.2257 121.915C45.2723 123.491 46.6485 124.322 46.6485 124.322Z" fill="url(#paint14_linear_134_59)"/>
<path d="M158.772 72.6699L156.602 75.3621C156.602 75.3621 156.648 77.5595 158.149 77.4337L166.808 65.9812C166.808 65.9812 171.744 59.0912 167.172 55.9167C166.143 55.2076 164.96 54.7548 163.721 54.5957C157.601 53.778 152.168 58.6131 151.917 64.7944L151.498 74.7121L154.293 74.5486L154.849 63.4692C154.999 58.8563 162.838 53.9163 166.068 58.7263C167.904 61.4354 162.186 68.7028 158.772 72.6699Z" fill="#68E1FD"/>
<path d="M132.365 24.4316C134.428 22.5738 136.331 20.3009 136.791 17.5583C136.983 16.3842 136.921 15.1596 137.071 13.9813C137.352 11.8132 137.741 9.43127 139.418 8.03062C140.25 7.40364 141.212 6.97354 142.233 6.77256C143.138 6.53226 144.075 6.43047 145.011 6.47063C147.997 6.65934 150.645 9.0832 151.285 12.0103C151.471 13.0519 151.547 14.1104 151.511 15.168V18.1748C151.469 18.8394 151.555 19.5059 151.766 20.1374C151.992 20.6909 152.419 21.2403 152.276 21.8148C152.097 22.249 151.779 22.6117 151.373 22.8464C150.869 23.2399 150.42 23.6998 150.038 24.2135C149.44 25.0228 149.001 25.9706 148.215 26.5954C146.926 27.6228 145.09 27.497 143.463 27.2538C142.763 27.1082 142.044 27.0771 141.334 27.1616C139.845 27.4341 138.744 28.7383 137.306 29.208C137.113 29.2807 136.909 29.3149 136.703 29.3086C136.134 29.2709 135.716 28.7886 135.36 28.3441C134.415 27.149 133.311 25.6141 132.365 24.4316Z" fill="url(#paint15_linear_134_59)"/>
<path d="M136.766 37.1506C136.044 39.6835 134.625 41.961 132.671 43.7218L108.464 65.5786C106.767 67.1129 104.778 68.2867 102.616 69.0291C100.454 69.7714 98.1647 70.067 95.8858 69.8979C95.7436 69.8979 95.5972 69.8979 95.4675 69.8602C88.8752 69.1976 81.1033 66.367 83.1446 56.4031C86.562 39.717 120.373 25.7441 120.373 25.7441C131.353 21.1061 135.432 25.0396 136.816 29.9125C137.469 32.2832 137.452 34.7892 136.766 37.1506Z" fill="#68E1FD"/>
<path d="M134.67 34.1354L134.306 38.0899C133.604 40.5767 134.67 41.9144 132.687 43.7051L108.481 65.5618C106.784 67.0962 104.794 68.27 102.633 69.0123C100.471 69.7547 98.1814 70.0502 95.9026 69.8812L90.8579 67.6418C90.8579 67.6418 93.7316 58.1476 110.045 45.6383C126.359 33.129 134.67 34.1354 134.67 34.1354Z" fill="url(#paint16_linear_134_59)"/>
<path d="M109.761 134.357C109.655 134.351 109.549 134.374 109.456 134.424C109.38 134.483 109.323 134.563 109.292 134.655C108.941 135.493 109.259 136.483 109.602 137.338C109.642 137.466 109.712 137.583 109.807 137.678C109.907 137.753 110.026 137.801 110.15 137.816C111.028 137.951 111.865 137.397 112.756 137.317C113.211 137.34 113.666 137.329 114.12 137.284C114.497 137.168 114.835 136.951 115.096 136.655C115.357 136.359 115.532 135.996 115.6 135.606C115.731 134.832 115.716 134.039 115.554 133.271C115.552 133.151 115.504 133.037 115.42 132.952C115.35 132.908 115.269 132.886 115.186 132.889C114.782 132.866 114.379 132.96 114.028 133.162C113.726 133.334 113.471 133.581 113.191 133.761C112.183 134.361 110.882 134.336 109.761 134.357Z" fill="#68E1FD"/>
<path d="M109.761 134.357C109.655 134.351 109.549 134.374 109.456 134.424C109.38 134.483 109.323 134.563 109.292 134.655C108.941 135.493 109.259 136.483 109.602 137.338C109.642 137.466 109.712 137.583 109.807 137.678C109.907 137.753 110.026 137.801 110.15 137.816C111.028 137.951 111.865 137.397 112.756 137.317C113.211 137.34 113.666 137.329 114.12 137.284C114.497 137.168 114.835 136.951 115.096 136.655C115.357 136.359 115.532 135.996 115.6 135.607C115.731 134.832 115.716 134.04 115.554 133.271C115.552 133.151 115.504 133.037 115.42 132.952C115.35 132.908 115.269 132.886 115.186 132.889C114.782 132.866 114.379 132.96 114.028 133.162C113.726 133.334 113.471 133.581 113.191 133.761C112.183 134.361 110.882 134.336 109.761 134.357Z" fill="url(#paint17_linear_134_59)"/>
<path d="M111.016 137.372C110.692 137.474 110.396 137.649 110.15 137.884C109.614 138.446 109.656 139.322 109.769 140.089C109.899 140.991 110.074 141.886 110.296 142.769C110.413 143.23 110.602 143.759 111.053 143.91C111.286 143.966 111.528 143.966 111.76 143.91C115.754 143.212 119.691 142.22 123.54 140.941C123.693 140.909 123.831 140.826 123.933 140.706C124.014 140.553 124.033 140.373 123.983 140.207C123.481 137.598 120.98 137.77 118.942 137.447C116.32 137.028 113.576 136.407 111.016 137.372Z" fill="#25233A"/>
<path d="M90.7116 73.7686C90.7116 73.7686 82.9564 72.2128 83.6842 76.5321C84.412 80.8515 84.9809 81.7405 87.1728 82.4031C96.4171 85.0911 106.176 79.2663 106.176 79.2663C106.176 79.2663 106.967 73.496 90.7116 73.7686Z" fill="#68E1FD"/>
<path d="M90.7116 73.7686C90.7116 73.7686 82.9564 72.2128 83.6842 76.5321C84.412 80.8515 84.9809 81.7405 87.1728 82.4031C96.4171 85.0911 106.176 79.2663 106.176 79.2663C106.176 79.2663 106.967 73.496 90.7116 73.7686Z" fill="url(#paint18_linear_134_59)"/>
<path d="M143.266 16.0151C143.02 17.0761 142.928 18.2209 142.304 19.11L141.539 17.1222C141.498 16.9558 141.402 16.8081 141.267 16.7029C141.181 16.6643 141.087 16.6468 140.994 16.6519C140.9 16.657 140.808 16.6846 140.727 16.7322C140.448 16.8827 140.213 17.1057 140.048 17.3778C139.883 17.6499 139.794 17.9613 139.79 18.2796C139.791 18.9192 139.982 19.5441 140.338 20.0745C140.456 20.2312 140.539 20.4114 140.581 20.6029C140.584 20.7747 140.534 20.9432 140.438 21.0857C140.343 21.2282 140.205 21.3378 140.045 21.3996C139.721 21.5158 139.376 21.5616 139.033 21.5338L137.205 21.5087C135.532 21.4835 133.637 21.3661 132.537 20.0996C132.788 19.7306 133.374 19.6803 133.616 19.3364C133.696 19.202 133.738 19.0484 133.738 18.8919C133.738 18.7354 133.696 18.5818 133.616 18.4474C133.45 18.1821 133.236 17.9503 132.985 17.7638L131.797 16.7867C131.487 16.5267 131.153 16.1829 131.236 15.7887C131.395 15.038 132.842 15.0758 132.83 14.3125C132.83 13.9393 132.437 13.7087 132.115 13.52C131.793 13.3313 131.45 12.9958 131.579 12.6477C131.73 12.2284 132.332 12.2913 132.725 12.0858C132.725 11.5909 131.964 11.4106 131.889 10.9284C131.879 10.794 131.909 10.6598 131.976 10.5431C132.044 10.4264 132.144 10.3327 132.265 10.2742C132.51 10.1653 132.775 10.1082 133.043 10.1064L134.875 9.96385C137.264 9.71045 139.669 9.65574 142.066 9.8003C142.54 9.81721 143.007 9.92393 143.442 10.1148C143.928 10.3827 144.335 10.7748 144.622 11.2513C144.994 11.8467 144.839 12.0187 144.551 12.6309C144.002 13.7093 143.572 14.844 143.266 16.0151Z" fill="#25233A"/>
<path d="M157.869 75.6515L156.614 75.3621C156.614 75.3621 156.66 77.5595 158.162 77.4337L166.821 65.9812C166.821 65.9812 171.756 59.0912 167.185 55.9167C166.155 55.2076 164.972 54.7548 163.734 54.5957C157.614 53.778 152.18 58.6131 151.929 64.7944L151.511 74.7121L152.691 74.0118L153.444 63.2512C153.594 58.6383 162.157 52.7673 167.143 57.7996C170.665 61.3179 162.203 72.9257 157.869 75.6515Z" fill="url(#paint19_linear_134_59)"/>
<path opacity="0.42" d="M118.829 136.827C110.112 136.827 56.8255 130.688 46.1087 129.442C45.0542 129.328 44.0845 128.81 43.4029 127.995C42.7213 127.181 42.3808 126.133 42.4528 125.072C42.5825 123.638 43.532 121.852 47.3385 121.495C48.0078 121.432 114.145 115.276 120.586 114.58C123.991 114.215 127.124 115.138 129.404 117.176C130.467 118.156 131.311 119.351 131.88 120.681C132.449 122.012 132.73 123.449 132.704 124.896C132.742 132.726 128.304 136.638 119.131 136.823L118.829 136.827ZM47.4013 122.33C44.8037 122.573 43.4149 123.521 43.2685 125.148C43.2155 125.992 43.491 126.824 44.0369 127.469C44.5829 128.114 45.357 128.522 46.1966 128.607C57.043 129.866 111.526 136.156 119.122 135.984C127.86 135.799 131.914 132.277 131.876 124.9C131.9 123.569 131.641 122.248 131.117 121.025C130.592 119.802 129.815 118.704 128.835 117.805C126.744 115.922 123.836 115.071 120.666 115.415C114.22 116.111 48.0831 122.267 47.4096 122.33H47.4013Z" fill="black"/>
<path d="M152.686 7.17095C152.686 8.29901 152.515 9.51514 151.645 10.3413C150.854 11.0919 149.654 11.3729 148.512 11.549C142.425 12.4755 136.203 11.3735 130.801 8.41224C129.881 7.89643 128.885 7.02837 129.262 6.12256C129.378 5.8764 129.559 5.66632 129.785 5.5145C130.055 5.33368 130.342 5.17922 130.642 5.05321C133.152 3.92096 135.687 2.78451 138.247 1.71935C139.657 1.08688 141.127 0.597974 142.635 0.259996C145.061 -0.218068 148.692 -0.117423 150.766 1.29999C152.143 2.23935 152.532 4.28999 152.64 5.9716C152.674 6.40353 152.682 6.8145 152.686 7.17095Z" fill="#68E1FD"/>
<path d="M152.64 5.9716C152.579 6.80308 152.227 7.58605 151.645 8.18159C150.854 8.93643 149.654 9.2174 148.512 9.39353C142.424 10.3184 136.203 9.21495 130.801 6.25257C130.434 6.04891 130.092 5.80106 129.785 5.5145C130.055 5.33368 130.342 5.17922 130.642 5.05321C133.152 3.92096 135.687 2.78451 138.247 1.71935C139.657 1.08688 141.127 0.597974 142.635 0.259996C145.061 -0.218068 148.692 -0.117423 150.766 1.29999C152.143 2.23935 152.532 4.28999 152.64 5.9716Z" fill="url(#paint20_linear_134_59)"/>
<path d="M132.708 27.2119C131.678 27.1181 130.65 27.4176 129.831 28.0506C127.881 29.4428 126.865 31.8038 126.254 34.1228C125.662 36.6434 125.255 39.2041 125.037 41.7844C124.748 44.4557 124.46 47.1857 125.037 49.8151C125.217 50.6538 125.543 51.5638 126.292 51.9999C127.179 52.5241 128.3 52.197 129.274 51.8615L135.461 49.7144C135.93 49.6148 136.342 49.3367 136.611 48.9386C136.748 48.5667 136.759 48.1596 136.64 47.7812C135.95 44.4264 136.402 40.0777 136.674 36.6767C136.883 33.8209 137.481 27.8661 132.708 27.2119Z" fill="#68E1FD"/>
<path d="M126.275 52.0125C126.275 52.0125 130.098 59.7496 131.931 61.5737C133.763 63.3979 160.793 74.9344 160.793 74.9344C160.793 74.9344 161.843 76.1505 163.834 75.4124C165.825 74.6744 167.95 69.835 167.95 69.835C167.95 69.835 166.452 67.7886 164.629 67.6963C162.805 67.6041 163.834 66.2621 163.834 66.2621L160.609 67.6963C160.609 67.6963 158.66 68.6441 153.548 65.0754C148.436 61.5066 138.071 56.8644 138.071 56.8644L135.44 49.7354L126.275 52.0125Z" fill="url(#paint21_linear_134_59)"/>
<path d="M130.245 23.7732L134.164 22.62C134.164 22.62 136.879 27.6061 136.703 29.2835L130.245 23.7732Z" fill="#68E1FD"/>
<path d="M130.245 23.7732L134.164 22.62C134.164 22.62 136.879 27.6061 136.703 29.2835L130.245 23.7732Z" fill="url(#paint22_linear_134_59)"/>
<path d="M136.594 48.9512L136.176 51.7735L127.325 54.1134L125.447 51.1276C125.447 51.1276 131.872 50.0289 136.594 48.9512Z" fill="#68E1FD"/>
<path d="M136.594 48.9512L136.176 51.7734L127.325 54.1134L125.447 51.1276C125.447 51.1276 131.872 50.0289 136.594 48.9512Z" fill="url(#paint23_linear_134_59)"/>
<path d="M82.6301 67.1386C82.6301 67.1386 82.6761 76.8634 92.9871 78.5408C103.298 80.2182 123.974 75.9366 123.974 75.9366L128.781 66.6899L105.327 60.5715C105.327 60.5715 84.4288 58.0554 82.6301 67.1386Z" fill="#25233A"/>
<path d="M128.781 66.6899L123.974 75.9366C123.974 75.9366 128.994 74.7708 129.521 75.7731C130.048 76.7753 125.367 78.8428 124.828 92.5892C124.769 94.1072 123.845 100.167 123.573 101.664L122.736 104.373C122.736 104.373 126.334 104.755 126.501 104.7C126.668 104.646 141.639 72.8628 136.21 69.2521C134.649 68.1996 128.781 66.6899 128.781 66.6899Z" fill="url(#paint24_linear_134_59)"/>
<path d="M120.319 104.482C120.318 104.203 120.381 103.927 120.501 103.675C120.621 103.424 120.796 103.202 121.013 103.027C121.197 102.928 121.399 102.868 121.606 102.849C121.814 102.83 122.023 102.854 122.222 102.918C122.618 103.045 123.003 103.2 123.376 103.383C124.21 103.732 125.109 103.895 126.012 103.861C126.405 103.861 126.848 103.828 127.108 104.138C127.191 104.292 127.237 104.463 127.242 104.638C127.247 104.813 127.211 104.986 127.137 105.145C126.923 105.835 126.65 106.506 126.321 107.149C126.281 107.249 126.216 107.337 126.133 107.405C126.043 107.457 125.943 107.488 125.84 107.497C124.33 107.725 122.792 107.689 121.293 107.392C119.574 107.048 120.202 105.778 120.319 104.482Z" fill="#68E1FD"/>
<path d="M114.028 133.17C113.726 133.342 113.471 133.589 113.191 133.77Z" fill="url(#paint25_linear_134_59)"/>
<path d="M120.319 104.482C120.318 104.203 120.381 103.927 120.501 103.675C120.621 103.424 120.796 103.202 121.013 103.027C121.197 102.928 121.399 102.868 121.606 102.849C121.814 102.83 122.023 102.854 122.222 102.918C122.617 103.045 123.003 103.2 123.376 103.383C124.21 103.732 125.109 103.895 126.012 103.861C126.405 103.861 126.848 103.828 127.108 104.138C127.191 104.292 127.237 104.463 127.242 104.638C127.247 104.813 127.211 104.986 127.137 105.145C126.923 105.835 126.65 106.506 126.321 107.149C126.281 107.249 126.216 107.337 126.133 107.405C126.043 107.457 125.943 107.488 125.84 107.497C124.33 107.725 122.792 107.689 121.293 107.392C119.574 107.048 120.202 105.778 120.319 104.482Z" fill="url(#paint26_linear_134_59)"/>
<path d="M120.44 106.902C121.231 106.759 122.033 106.693 122.837 106.705C123.492 106.714 124.136 106.87 124.723 107.162C126.104 107.896 126.815 109.531 128.124 110.353C128.742 110.671 129.379 110.951 130.031 111.192C130.358 111.315 130.657 111.503 130.91 111.745C131.162 111.986 131.365 112.276 131.504 112.597C131.611 113.007 131.639 113.434 131.587 113.855C131.606 114.176 131.502 114.493 131.295 114.739C131.05 114.908 130.753 114.983 130.458 114.953C129.471 114.953 120.54 113.498 117.198 112.89C117.022 112.861 115.219 113.263 115.905 111.057C116.149 110.249 116.471 109.467 116.868 108.722C117.482 107.434 119.197 107.086 120.44 106.902Z" fill="#25233A"/>
<path d="M118.466 142.463L116.763 141.935L125.455 114.064L127.154 114.588L118.466 142.463Z" fill="#68E1FD"/>
<path d="M118.466 142.463L116.763 141.935L125.455 114.064L127.154 114.588L118.466 142.463Z" fill="url(#paint27_linear_134_59)"/>
<path d="M121.318 113.67L120.678 115.821L131.14 117.239L131.433 115.368L121.318 113.67ZM112.266 143.306L112.53 145.533L122.694 142.664L122.222 140.827L112.266 143.306Z" fill="#68E1FD"/>
<path d="M121.318 113.67L120.678 115.821L131.14 117.239L131.433 115.368L121.318 113.67Z" fill="url(#paint28_linear_134_59)"/>
<path d="M112.266 143.306L112.53 145.533L122.694 142.664L122.222 140.827L112.266 143.306Z" fill="url(#paint29_linear_134_59)"/>
<path d="M122.678 127.328C123.512 127.328 124.188 126.651 124.188 125.815C124.188 124.978 123.512 124.301 122.678 124.301C121.844 124.301 121.168 124.978 121.168 125.815C121.168 126.651 121.844 127.328 122.678 127.328Z" fill="#68E1FD"/>
<path d="M122.899 127.328C123.733 127.328 124.409 126.651 124.409 125.815C124.409 124.978 123.733 124.301 122.899 124.301C122.065 124.301 121.389 124.978 121.389 125.815C121.389 126.651 122.065 127.328 122.899 127.328Z" fill="url(#paint30_linear_134_59)"/>
<path d="M138.836 48.188L136.532 49.4167L136.201 51.7692L138.836 50.3518V48.188Z" fill="#68E1FD"/>
<path d="M138.836 48.188L136.532 49.4167L136.201 51.7692L138.836 50.3518V48.188Z" fill="url(#paint31_linear_134_59)"/>
</g>
<defs>
<linearGradient id="paint0_linear_134_59" x1="129.178" y1="62.0979" x2="168.523" y2="62.0979" gradientUnits="userSpaceOnUse">
<stop stop-color="#ECC4D7"/>
<stop offset="0.42" stop-color="#EFD4D1"/>
<stop offset="1" stop-color="#F2EAC9"/>
</linearGradient>
<linearGradient id="paint1_linear_134_59" x1="155.246" y1="57.3592" x2="135.747" y2="69.4386" gradientUnits="userSpaceOnUse">
<stop stop-opacity="0"/>
<stop offset="0.88" stop-opacity="0.8"/>
<stop offset="0.97"/>
</linearGradient>
<linearGradient id="paint2_linear_134_59" x1="139.732" y1="41.6754" x2="134.863" y2="41.2832" gradientUnits="userSpaceOnUse">
<stop stop-opacity="0"/>
<stop offset="0.88" stop-opacity="0.8"/>
<stop offset="0.97"/>
</linearGradient>
<linearGradient id="paint3_linear_134_59" x1="103.222" y1="137.258" x2="103.921" y2="175.079" gradientUnits="userSpaceOnUse">
<stop stop-opacity="0"/>
<stop offset="0.88" stop-opacity="0.8"/>
<stop offset="0.97"/>
</linearGradient>
<linearGradient id="paint4_linear_134_59" x1="127.091" y1="101.958" x2="117.15" y2="147.523" gradientUnits="userSpaceOnUse">
<stop stop-opacity="0"/>
<stop offset="0.88" stop-opacity="0.8"/>
<stop offset="0.97"/>
</linearGradient>
<linearGradient id="paint5_linear_134_59" x1="145.634" y1="112.001" x2="169.491" y2="109.051" gradientUnits="userSpaceOnUse">
<stop stop-color="white" stop-opacity="0"/>
<stop offset="0.84" stop-color="white" stop-opacity="0.84"/>
<stop offset="0.97" stop-color="white"/>
</linearGradient>
<linearGradient id="paint6_linear_134_59" x1="95.4422" y1="112.826" x2="117.436" y2="117.322" gradientUnits="userSpaceOnUse">
<stop stop-color="#ECC4D7"/>
<stop offset="0.42" stop-color="#EFD4D1"/>
<stop offset="1" stop-color="#F2EAC9"/>
</linearGradient>
<linearGradient id="paint7_linear_134_59" x1="116.567" y1="98.2001" x2="121.138" y2="105.591" gradientUnits="userSpaceOnUse">
<stop stop-opacity="0"/>
<stop offset="0.88" stop-opacity="0.8"/>
<stop offset="0.97"/>
</linearGradient>
<linearGradient id="paint8_linear_134_59" x1="154.489" y1="81.6901" x2="148.039" y2="81.9196" gradientUnits="userSpaceOnUse">
<stop stop-opacity="0"/>
<stop offset="0.88" stop-opacity="0.8"/>
<stop offset="0.97"/>
</linearGradient>
<linearGradient id="paint9_linear_134_59" x1="159.605" y1="80.0547" x2="153.157" y2="81.6448" gradientUnits="userSpaceOnUse">
<stop stop-color="white" stop-opacity="0"/>
<stop offset="0.84" stop-color="white" stop-opacity="0.84"/>
<stop offset="0.97" stop-color="white"/>
</linearGradient>
<linearGradient id="paint10_linear_134_59" x1="156.547" y1="80.7634" x2="146.237" y2="83.3051" gradientUnits="userSpaceOnUse">
<stop stop-color="white" stop-opacity="0"/>
<stop offset="0.84" stop-color="white" stop-opacity="0.84"/>
<stop offset="0.97" stop-color="white"/>
</linearGradient>
<linearGradient id="paint11_linear_134_59" x1="88.4737" y1="104.029" x2="92.1637" y2="104.734" gradientUnits="userSpaceOnUse">
<stop stop-opacity="0"/>
<stop offset="0.88" stop-opacity="0.8"/>
<stop offset="0.97"/>
</linearGradient>
<linearGradient id="paint12_linear_134_59" x1="121.026" y1="82.9105" x2="122.362" y2="88.2473" gradientUnits="userSpaceOnUse">
<stop stop-opacity="0"/>
<stop offset="0.88" stop-opacity="0.8"/>
<stop offset="0.97"/>
</linearGradient>
<linearGradient id="paint13_linear_134_59" x1="89.2058" y1="104.948" x2="149.043" y2="104.948" gradientUnits="userSpaceOnUse">
<stop stop-opacity="0"/>
<stop offset="0.88" stop-opacity="0.8"/>
<stop offset="0.97"/>
</linearGradient>
<linearGradient id="paint14_linear_134_59" x1="52.0152" y1="107.451" x2="93.7572" y2="113.581" gradientUnits="userSpaceOnUse">
<stop stop-opacity="0"/>
<stop offset="0.88" stop-opacity="0.8"/>
<stop offset="0.97"/>
</linearGradient>
<linearGradient id="paint15_linear_134_59" x1="132.365" y1="17.8687" x2="152.306" y2="17.8687" gradientUnits="userSpaceOnUse">
<stop stop-color="#ECC4D7"/>
<stop offset="0.42" stop-color="#EFD4D1"/>
<stop offset="1" stop-color="#F2EAC9"/>
</linearGradient>
<linearGradient id="paint16_linear_134_59" x1="79.0954" y1="70.506" x2="155.593" y2="31.6707" gradientUnits="userSpaceOnUse">
<stop stop-opacity="0"/>
<stop offset="0.88" stop-opacity="0.8"/>
<stop offset="0.97"/>
</linearGradient>
<linearGradient id="paint17_linear_134_59" x1="121.348" y1="135.841" x2="103.21" y2="134.84" gradientUnits="userSpaceOnUse">
<stop stop-color="white" stop-opacity="0"/>
<stop offset="0.84" stop-color="white" stop-opacity="0.84"/>
<stop offset="0.97" stop-color="white"/>
</linearGradient>
<linearGradient id="paint18_linear_134_59" x1="70.4326" y1="78.0124" x2="95.4007" y2="78.3671" gradientUnits="userSpaceOnUse">
<stop stop-opacity="0"/>
<stop offset="0.88" stop-opacity="0.8"/>
<stop offset="0.97"/>
</linearGradient>
<linearGradient id="paint19_linear_134_59" x1="149.783" y1="69.7302" x2="179.13" y2="58.2107" gradientUnits="userSpaceOnUse">
<stop stop-color="white" stop-opacity="0"/>
<stop offset="0.52" stop-color="white" stop-opacity="0.84"/>
<stop offset="0.97" stop-color="white"/>
</linearGradient>
<linearGradient id="paint20_linear_134_59" x1="139.623" y1="-3.19968" x2="142.78" y2="13.9575" gradientUnits="userSpaceOnUse">
<stop stop-opacity="0"/>
<stop offset="0.88" stop-opacity="0.8"/>
<stop offset="0.97"/>
</linearGradient>
<linearGradient id="paint21_linear_134_59" x1="126.275" y1="62.6892" x2="167.946" y2="62.6892" gradientUnits="userSpaceOnUse">
<stop stop-color="#ECC4D7"/>
<stop offset="0.42" stop-color="#EFD4D1"/>
<stop offset="1" stop-color="#F2EAC9"/>
</linearGradient>
<linearGradient id="paint22_linear_134_59" x1="138.866" y1="25.0774" x2="132.74" y2="26.6425" gradientUnits="userSpaceOnUse">
<stop stop-opacity="0"/>
<stop offset="0.88" stop-opacity="0.8"/>
<stop offset="0.97"/>
</linearGradient>
<linearGradient id="paint23_linear_134_59" x1="131.098" y1="43.9315" x2="130.98" y2="55.0318" gradientUnits="userSpaceOnUse">
<stop stop-opacity="0"/>
<stop offset="0.88" stop-opacity="0.8"/>
<stop offset="0.97"/>
</linearGradient>
<linearGradient id="paint24_linear_134_59" x1="117.082" y1="89.8298" x2="141.019" y2="80.4968" gradientUnits="userSpaceOnUse">
<stop stop-color="#ECC4D7"/>
<stop offset="0.42" stop-color="#EFD4D1"/>
<stop offset="1" stop-color="#F2EAC9"/>
</linearGradient>
<linearGradient id="paint25_linear_134_59" x1="113.17" y1="133.468" x2="114.028" y2="133.468" gradientUnits="userSpaceOnUse">
<stop stop-color="white" stop-opacity="0"/>
<stop offset="0.84" stop-color="white" stop-opacity="0.84"/>
<stop offset="0.97" stop-color="white"/>
</linearGradient>
<linearGradient id="paint26_linear_134_59" x1="127.287" y1="106.612" x2="119.747" y2="104.417" gradientUnits="userSpaceOnUse">
<stop stop-color="white" stop-opacity="0"/>
<stop offset="0.84" stop-color="white" stop-opacity="0.84"/>
<stop offset="0.97" stop-color="white"/>
</linearGradient>
<linearGradient id="paint27_linear_134_59" x1="119.62" y1="127.618" x2="124.332" y2="128.912" gradientUnits="userSpaceOnUse">
<stop stop-opacity="0"/>
<stop offset="0.88" stop-opacity="0.8"/>
<stop offset="0.97"/>
</linearGradient>
<linearGradient id="paint28_linear_134_59" x1="126.455" y1="112.253" x2="125.803" y2="117.687" gradientUnits="userSpaceOnUse">
<stop stop-opacity="0"/>
<stop offset="0.88" stop-opacity="0.8"/>
<stop offset="0.97"/>
</linearGradient>
<linearGradient id="paint29_linear_134_59" x1="116.449" y1="139.523" x2="118.046" y2="145.778" gradientUnits="userSpaceOnUse">
<stop stop-opacity="0"/>
<stop offset="0.88" stop-opacity="0.8"/>
<stop offset="0.97"/>
</linearGradient>
<linearGradient id="paint30_linear_134_59" x1="121.389" y1="125.815" x2="124.409" y2="125.815" gradientUnits="userSpaceOnUse">
<stop stop-opacity="0"/>
<stop offset="0.88" stop-opacity="0.8"/>
<stop offset="0.97"/>
</linearGradient>
<linearGradient id="paint31_linear_134_59" x1="138.908" y1="52.8889" x2="136.66" y2="48.2091" gradientUnits="userSpaceOnUse">
<stop stop-opacity="0"/>
<stop offset="0.88" stop-opacity="0.8"/>
<stop offset="0.97"/>
</linearGradient>
<clipPath id="clip0_134_59">
<rect width="199" height="158" fill="white"/>
</clipPath>
</defs>
</svg>
