<svg width="307" height="171" viewBox="0 0 307 171" fill="none" xmlns="http://www.w3.org/2000/svg">
<rect width="307" height="171" fill="white"/>
<path opacity="0.07" d="M28.9333 145.024C28.9333 75.4716 85.3164 19.0886 154.868 19.0886C224.421 19.0886 280.804 75.4716 280.804 145.024" fill="#0D7CA0"/>
<path d="M205.465 103.871H198.431C198.371 103.871 198.314 103.895 198.272 103.937C198.23 103.979 198.206 104.037 198.206 104.096V109.434C198.206 110.18 198.502 110.895 199.029 111.422C199.557 111.95 200.272 112.246 201.018 112.246H202.879C203.624 112.246 204.34 111.95 204.867 111.422C205.394 110.895 205.691 110.18 205.691 109.434V104.096C205.691 104.037 205.667 103.979 205.625 103.937C205.582 103.895 205.525 103.871 205.465 103.871Z" fill="#FFBE55"/>
<path d="M204.622 111.326C206.209 110.429 208.932 107.784 208.479 105.923C208.358 105.425 208.054 105.051 207.599 104.84C206.547 104.351 205.042 104.941 204.873 105.01L205.375 106.055C205.738 105.908 206.626 105.666 207.044 105.861C207.129 105.901 207.222 105.969 207.271 106.174C207.536 107.258 205.405 109.544 203.977 110.35L204.622 111.326Z" fill="#FFBE55"/>
<path d="M153.869 108.243H117.489C117.194 108.243 116.912 108.126 116.704 107.918C116.496 107.71 116.379 107.428 116.379 107.133V86.2693C116.379 85.9751 116.496 85.693 116.704 85.485C116.912 85.277 117.194 85.1602 117.488 85.1602H153.869C154.163 85.1602 154.445 85.277 154.653 85.485C154.861 85.693 154.978 85.9751 154.978 86.2693V107.133C154.978 107.279 154.949 107.423 154.894 107.558C154.838 107.693 154.756 107.815 154.653 107.918C154.55 108.021 154.428 108.103 154.294 108.158C154.159 108.214 154.015 108.243 153.869 108.243Z" fill="#FAFAFA"/>
<path d="M140.044 111.251C139.906 110.882 139.847 110.482 139.847 110.081V108.242H131.794V110.081C131.794 110.482 131.736 110.882 131.598 111.251C131.405 111.764 131.037 112.334 130.35 112.334H141.291C140.605 112.334 140.236 111.764 140.044 111.251Z" fill="#FAFAFA"/>
<path d="M214.368 114.807H98.7756C98.5894 114.807 98.4108 114.733 98.2791 114.601C98.1475 114.469 98.0735 114.291 98.0735 114.104V113.024C98.0735 112.637 98.3877 112.322 98.7756 112.322H214.368C214.756 112.322 215.07 112.637 215.07 113.024V114.104C215.07 114.197 215.052 114.288 215.017 114.373C214.982 114.458 214.93 114.536 214.865 114.601C214.799 114.666 214.722 114.718 214.637 114.753C214.552 114.788 214.46 114.807 214.368 114.807Z" fill="#D3D3D3"/>
<path d="M118.086 114.807H120.742V144.651H118.086V114.807ZM190.725 114.807H193.38V144.651H190.725V114.807Z" fill="#D3D3D3"/>
<path d="M153.869 104.571H117.489C117.194 104.571 116.912 104.454 116.704 104.246C116.496 104.038 116.379 103.756 116.379 103.462V82.5977C116.379 82.3035 116.496 82.0213 116.704 81.8132C116.912 81.6052 117.194 81.4883 117.489 81.4883H153.869C154.015 81.4883 154.159 81.517 154.293 81.5727C154.428 81.6284 154.55 81.7102 154.653 81.8131C154.756 81.9161 154.838 82.0384 154.894 82.173C154.95 82.3075 154.978 82.4518 154.978 82.5974V103.462C154.978 103.607 154.95 103.752 154.894 103.886C154.838 104.021 154.757 104.143 154.654 104.246C154.551 104.349 154.428 104.431 154.294 104.487C154.159 104.543 154.015 104.571 153.869 104.571Z" fill="#2A94F4"/>
<path d="M117.875 82.7728H153.537V103.051H117.875V82.7728ZM194.389 108.243H158.009C157.714 108.243 157.432 108.126 157.224 107.918C157.016 107.71 156.899 107.428 156.899 107.133V86.2693C156.899 85.975 157.016 85.6928 157.224 85.4848C157.432 85.2767 157.714 85.1598 158.009 85.1598H194.389C194.683 85.1598 194.965 85.2767 195.174 85.4848C195.382 85.6928 195.499 85.975 195.499 86.2693V107.133C195.498 107.428 195.381 107.71 195.173 107.918C194.965 108.126 194.683 108.243 194.389 108.243Z" fill="#FAFAFA"/>
<path d="M180.564 111.251C180.425 110.882 180.367 110.482 180.367 110.081V108.242H172.314V110.081C172.314 110.482 172.255 110.882 172.117 111.251C171.925 111.764 171.557 112.334 170.869 112.334H181.811C181.124 112.334 180.756 111.764 180.564 111.251Z" fill="#FAFAFA"/>
<path d="M194.389 104.571H158.009C157.714 104.571 157.432 104.454 157.224 104.246C157.016 104.038 156.899 103.756 156.899 103.462V82.5977C156.899 82.3035 157.016 82.0213 157.224 81.8132C157.432 81.6052 157.714 81.4883 158.009 81.4883H194.389C194.683 81.4883 194.966 81.6052 195.174 81.8132C195.382 82.0213 195.499 82.3035 195.499 82.5977V103.462C195.498 103.756 195.381 104.038 195.173 104.246C194.965 104.454 194.683 104.571 194.389 104.571Z" fill="#2A94F4"/>
<path d="M158.394 82.7728H194.056V103.051H158.394V82.7728Z" fill="#FAFAFA"/>
<path d="M201.757 101.835C201.997 101.748 202.223 101.624 202.427 101.47C202.629 101.318 202.81 101.131 202.903 100.923C203.003 100.714 202.976 100.512 202.867 100.347C202.754 100.18 202.569 100.039 202.367 99.9207C202.156 99.8013 201.935 99.6994 201.708 99.616C201.6 99.5769 201.455 99.5249 201.318 99.4629C201.18 99.402 201.045 99.3344 200.914 99.2603C200.375 98.9511 199.903 98.5369 199.527 98.0421C199.134 97.5286 198.841 96.9464 198.662 96.3254C198.482 95.689 198.41 94.9922 198.538 94.251C198.608 93.8582 198.737 93.4783 198.921 93.1246C199.129 92.7261 199.414 92.3725 199.759 92.0841C200.117 91.7811 200.552 91.5534 200.992 91.4162C201.414 91.2862 201.852 91.2187 202.294 91.2156L202.738 91.21C203.018 91.2065 203.294 91.2664 203.548 91.3851C203.801 91.5038 204.024 91.6784 204.2 91.8956C204.376 92.1128 204.501 92.367 204.565 92.6393C204.628 92.9116 204.63 93.1947 204.569 93.4676C204.507 93.7405 204.385 93.9959 204.211 94.2148C204.037 94.4337 203.816 94.6104 203.564 94.7315C203.312 94.8527 203.036 94.9153 202.756 94.9145C202.476 94.9137 202.2 94.8496 201.949 94.727C201.728 94.6193 201.611 94.5616 201.47 94.5546C201.327 94.543 201.106 94.67 200.945 94.9484C200.783 95.2216 200.681 95.6031 200.666 96.0055C200.649 96.4274 200.719 96.8482 200.872 97.2419C201.073 97.7674 201.406 98.2325 201.838 98.5931C201.927 98.6687 202.017 98.7343 202.141 98.8208C202.371 98.9869 202.597 99.1662 202.804 99.377C203.009 99.5885 203.208 99.8318 203.314 100.148C203.368 100.304 203.389 100.48 203.362 100.646C203.335 100.804 203.273 100.954 203.181 101.085C203.005 101.332 202.779 101.5 202.549 101.648C202.318 101.79 202.078 101.917 201.83 102.028C201.806 102.037 201.778 102.037 201.754 102.027C201.729 102.017 201.71 101.998 201.699 101.974C201.688 101.95 201.686 101.923 201.695 101.898C201.704 101.873 201.721 101.852 201.745 101.84C201.747 101.839 201.75 101.838 201.752 101.837L201.757 101.835Z" fill="white"/>
<path d="M186.294 100.493H166.709C166.156 100.493 165.625 100.273 165.234 99.8825C164.843 99.4915 164.624 98.9613 164.624 98.4084V87.2451C164.624 86.9713 164.677 86.7002 164.782 86.4472C164.887 86.1943 165.041 85.9644 165.234 85.7709C165.428 85.5773 165.658 85.4237 165.911 85.319C166.164 85.2142 166.435 85.1604 166.709 85.1604H186.294C186.847 85.1604 187.377 85.38 187.768 85.771C188.159 86.1619 188.379 86.6922 188.379 87.2451V98.4084C188.379 98.9613 188.159 99.4915 187.768 99.8824C187.377 100.273 186.847 100.493 186.294 100.493Z" fill="#FAFAFA"/>
<path d="M133.652 112.144C133.652 111.552 133.887 110.984 134.306 110.565C134.725 110.146 135.293 109.911 135.885 109.911C136.477 109.911 137.045 110.146 137.464 110.565C137.883 110.984 138.118 111.552 138.118 112.144" fill="#0B4870"/>
<path d="M116.315 93.3957C116.315 93.3957 117.798 92.6867 118.449 92.3154C119.1 91.9451 120.775 91.4357 120.91 91.315C121.045 91.1937 125.873 90.896 126.166 90.6438C126.459 90.3915 126.744 91.2358 125.493 91.5099C124.241 91.784 122.5 92.4543 122.404 92.9436C122.309 93.4328 123.69 93.5485 123.83 93.9513C123.97 94.354 123.791 94.2642 123.593 94.35C123.395 94.4366 121.95 93.6367 121.315 93.8641C120.68 94.0915 119.709 93.7769 119.222 93.9433C118.736 94.1097 116.369 94.9063 116.369 94.9063L116.315 93.3957Z" fill="#FAB9AF"/>
<path d="M118.992 94.443L119.755 94.1606C119.755 94.1606 118.803 91.9247 118.387 91.9787C117.908 92.0417 117.31 92.1995 117.31 92.1995L118.992 94.443Z" fill="#EAD8CF"/>
<path d="M119.166 94.8294C119.068 94.7565 117.542 91.8285 117.542 91.8285L114.281 92.2707L116.044 95.739L119.166 94.8294Z" fill="#CCE9FF"/>
<path d="M128.559 107.075C128.559 107.075 130.228 107.226 130.992 107.241C131.756 107.255 133.489 107.682 133.67 107.646C133.852 107.611 138.239 109.868 138.627 109.798C139.015 109.73 138.825 110.619 137.585 110.206C136.345 109.794 134.47 109.474 134.131 109.852C133.793 110.232 134.943 111.053 134.855 111.478C134.768 111.905 134.658 111.733 134.44 111.705C134.221 111.677 133.372 110.223 132.697 110.091C132.023 109.96 131.335 109.177 130.822 109.07C130.309 108.962 127.819 108.425 127.819 108.425L128.559 107.075ZM107.765 71.4768C107.765 71.4768 111.503 70.0803 113.227 72.9267C114.951 75.7725 114.785 81.4693 112.9 82.1704C111.016 82.8708 108.185 82.5045 107.22 80.7238C106.256 78.9431 105.384 76.3692 105.426 74.6484C105.468 72.9274 106.783 71.9734 107.765 71.4768Z" fill="#FAB9AF"/>
<path d="M112.495 82.3005C112.495 82.3005 112.193 84.9838 112.45 85.482C112.707 85.9786 107.783 85.482 107.783 85.482C107.783 85.482 107.339 81.6133 106.554 79.3271C105.768 77.0428 112.495 82.3005 112.495 82.3005Z" fill="#FAB9AF"/>
<path d="M106.554 79.327C106.554 79.327 106.735 82.2072 108.172 81.9818C109.609 81.7571 111.533 77.5456 112.133 77.3361C112.733 77.1259 112.739 76.7732 112.739 76.7732L113.114 77.3222L113.751 77.3626C113.751 77.3626 113.17 75.6522 114.047 74.9544C114.924 74.2573 113.137 69.4183 108.528 71.0293C108.528 71.0293 104.989 72.0052 105.117 74.018C105.246 76.0317 105.762 78.3252 106.554 79.327Z" fill="#0B4870"/>
<path d="M113.034 86.0807C113.034 86.0807 113.018 85.1313 112.587 85.0392C112.157 84.9487 107.834 84.533 107.305 84.7408V85.848C107.305 85.848 108.324 86.4745 113.034 86.0807Z" fill="#E2D2CA"/>
<path d="M112.643 76.0418C112.563 75.7036 111.704 74.7391 111.375 75.7726C111.047 76.8052 111.872 78.1954 112.333 78.0757C112.793 77.9574 112.848 76.898 112.643 76.0418Z" fill="#EEA886"/>
<path d="M118.919 122.339C118.919 122.339 119.507 126.537 119.259 127.281C119.011 128.025 116.778 131.499 116.778 131.499L114.296 142.17H111.319L111.07 129.762L109.83 141.673L107.348 141.425L104.371 129.762C104.371 129.762 99.1192 129.48 100.132 121.432C101.144 113.385 118.919 122.339 118.919 122.339Z" fill="#0B4870"/>
<path d="M100.11 121.559C100.11 121.559 102.402 122.234 106.312 122.665C110.222 123.096 119.991 122.51 120.053 122.048C120.115 121.586 117.951 104.847 118.075 103.986C118.198 103.124 118.264 100.052 118.264 100.052C118.312 100.894 119.169 104.332 120.204 106.205C120.578 106.882 121.672 108.406 122.437 108.521C126.704 109.166 131.131 109.488 131.419 109.414C131.177 109.309 131.686 106.774 131.419 106.684C131.185 106.606 128.193 106.188 125.96 105.692C125.139 105.51 123.168 100.843 123.168 100.843C122.798 100.012 121.453 94.776 121.035 92.9638C120.091 88.877 120.237 88.7073 120.237 88.7073C117.377 87.8421 113.035 86.0806 113.035 86.0806L107.306 85.8479C107.306 85.8479 102.048 87.0051 99.9774 87.9399C99.7809 88.0287 99.7802 92.6307 99.2412 93.8373L100.958 97.459C100.958 97.459 101.949 104.633 102.155 107.824C102.249 109.289 100.11 121.559 100.11 121.559Z" fill="#2A94F4"/>
<path d="M99.0027 99.8123C99.1522 100.295 99.8317 100.703 100.273 100.881C100.563 100.999 100.882 101.031 101.19 100.973L101.415 100.932V100.932L105.341 100.203C105.341 100.203 106.199 90.31 99.9772 87.9399C99.8125 87.994 97.6287 95.3827 99.0027 99.8123Z" fill="#2A94F4"/>
<path d="M106.7 71.8124C106.7 71.8124 101.996 72.2894 106.617 79.4315L106.7 71.8124ZM113.8 143.162C113.8 143.162 114.793 143.162 115.041 143.659C115.289 144.155 115.289 144.651 115.289 144.651H111.071L111.319 143.162L113.8 143.162Z" fill="#0B4870"/>
<path d="M145.318 93.1853C145.114 93.3159 144.877 93.352 144.651 93.414C143.86 93.6294 143.069 93.8411 142.276 94.0492C142.2 94.0694 142.203 94.0863 142.244 94.1423C143.097 95.2879 143.948 96.4348 144.799 97.5817C144.826 97.617 144.851 97.6538 144.874 97.6918C144.957 97.8324 144.936 97.9199 144.799 98.0047C144.702 98.0625 144.6 98.1107 144.494 98.1486C143.145 98.6541 141.788 99.1387 140.432 99.6233C139.532 99.9449 138.631 100.261 137.729 100.577C137.556 100.638 137.379 100.686 137.198 100.719C136.997 100.754 136.822 100.704 136.676 100.56C136.522 100.409 136.413 100.225 136.305 100.041C135.566 98.7887 134.874 97.5102 134.164 96.2419C134.087 96.1053 134.087 96.1053 133.937 96.1444C132.5 96.518 131.063 96.8919 129.625 97.2652C129.454 97.3096 129.281 97.3252 129.107 97.2874C128.833 97.2281 128.635 97.067 128.52 96.8154C127.062 93.652 125.606 90.4881 124.149 87.3244C124.08 87.1716 124.021 87.0141 123.974 86.853V86.6929C124.017 86.5073 124.151 86.4377 124.325 86.4244C124.814 86.3866 125.304 86.3535 125.793 86.3154C126.604 86.2517 127.414 86.1867 128.225 86.1195C128.296 86.1135 128.371 86.1238 128.439 86.0886H128.954C129.177 86.1529 129.282 86.3386 129.389 86.5179C129.998 87.5372 130.605 88.5575 131.212 89.5775C132.291 91.3887 133.37 93.1996 134.446 95.0118C134.484 95.0754 134.518 95.0854 134.585 95.0691C135.977 94.7337 137.369 94.4002 138.762 94.0667L140.884 93.5589C140.91 93.5529 140.935 93.5446 140.96 93.5373C140.954 93.4959 140.927 93.4707 140.907 93.4422C140.229 92.474 139.552 91.5057 138.874 90.5378C138.698 90.2868 138.746 90.1522 139.051 90.0952C139.385 90.0326 139.723 89.9869 140.058 89.9315C140.683 89.8287 141.308 89.724 141.933 89.6209C142.032 89.6046 142.132 89.5911 142.231 89.5775C142.393 89.5553 142.527 89.6166 142.646 89.7197C142.845 89.8917 142.992 90.1092 143.155 90.3117C143.842 91.1626 144.516 92.0231 145.214 92.8654C145.245 92.9035 145.273 92.9463 145.318 92.9718C145.318 93.0431 145.318 93.1144 145.318 93.1853ZM129.482 96.3095C129.518 96.3022 129.555 96.2959 129.593 96.287C129.921 96.2081 130.248 96.1282 130.576 96.049C131.536 95.8173 132.497 95.5859 133.457 95.3539C133.595 95.3207 133.614 95.2716 133.539 95.1546C133.522 95.1272 133.505 95.0993 133.489 95.0711C131.892 92.3142 130.296 89.5573 128.702 86.7987C128.653 86.7141 128.597 86.6912 128.509 86.7002C128.326 86.7188 128.143 86.7307 127.96 86.7466L126.65 86.8606C126.136 86.9054 125.623 86.9518 125.11 86.9952C124.977 87.0065 124.953 87.036 124.997 87.1606C125.007 87.1885 125.021 87.215 125.034 87.2412C125.107 87.3867 125.181 87.5316 125.253 87.6781C126.623 90.4967 127.993 93.3152 129.363 96.1342C129.384 96.1763 129.412 96.2157 129.415 96.2651C129.418 96.3052 129.449 96.3075 129.482 96.3095ZM137.274 99.6233C137.296 99.6174 137.328 99.6104 137.359 99.6001C138.937 99.0625 140.516 98.5245 142.094 97.9858C142.626 97.8045 143.157 97.6205 143.688 97.4376C143.782 97.4051 143.791 97.3815 143.743 97.296C143.721 97.2576 143.697 97.2204 143.671 97.1846C143.151 96.471 142.631 95.7579 142.112 95.0436C141.931 94.7943 141.755 94.5417 141.577 94.2908C141.526 94.2202 141.474 94.1658 141.371 94.194C140.852 94.3346 140.331 94.4715 139.811 94.6077C138.22 95.0237 136.63 95.439 135.038 95.8531C134.973 95.87 134.954 95.8842 134.995 95.9535C135.627 97.0308 136.256 98.1105 136.886 99.1888C136.956 99.3088 137.022 99.4321 137.114 99.5375C137.154 99.5836 137.2 99.6194 137.274 99.6233ZM142.26 90.1622C142.21 90.1725 142.152 90.1854 142.094 90.1957L139.893 90.5925C139.66 90.6346 139.652 90.6541 139.792 90.8434C140.398 91.6691 141.005 92.4942 141.611 93.3209C141.645 93.3676 141.673 93.3829 141.734 93.3673C142.367 93.2059 143.002 93.0477 143.636 92.8903C143.825 92.8432 144.016 92.8031 144.206 92.756C144.34 92.7226 144.35 92.6848 144.267 92.579C143.97 92.2058 143.674 91.8319 143.378 91.4576C143.068 91.0648 142.759 90.6713 142.449 90.2782C142.403 90.2192 142.35 90.1682 142.26 90.1622Z" fill="#FFBE55"/>
<path d="M282.541 152.592H23.9705C21.7777 152.592 20 150.814 20 148.622C20 146.429 21.7777 144.651 23.9705 144.651H282.541C284.734 144.651 286.511 146.429 286.511 148.622C286.511 150.814 284.733 152.592 282.541 152.592Z" fill="#D3D3D3"/>
<path d="M110.574 110.407H131.17V112.392H110.574V110.407Z" fill="#0B4870"/>
<path d="M112.602 123.78H106.353C101.991 123.78 98.4553 119.965 98.4553 115.26L100.431 98.1903C101.109 93.6404 105.321 90.7188 109.593 90.7188C113.912 90.7188 118.148 93.7127 118.774 98.3226L120.5 115.26C120.5 119.965 116.964 123.78 112.602 123.78Z" fill="#FFBE55"/>
<path d="M110.599 144.651H108.435C108.199 144.651 107.972 144.557 107.804 144.39C107.637 144.222 107.542 143.995 107.542 143.758V105.79C107.542 105.553 107.637 105.326 107.804 105.158C107.971 104.991 108.199 104.897 108.435 104.896H110.599C110.716 104.896 110.832 104.92 110.941 104.964C111.049 105.009 111.147 105.075 111.23 105.158C111.313 105.241 111.379 105.34 111.424 105.448C111.469 105.556 111.492 105.673 111.492 105.79V143.758C111.492 143.995 111.398 144.222 111.23 144.39C111.063 144.557 110.836 144.651 110.599 144.651Z" fill="#2A94F4"/>
<path d="M111.231 107.009H107.619C107.16 107.009 106.72 106.827 106.396 106.503C106.071 106.178 105.889 105.738 105.889 105.279V104.515C105.889 104.056 106.071 103.616 106.396 103.291C106.72 102.966 107.16 102.784 107.619 102.784H111.231C111.69 102.784 112.13 102.966 112.455 103.291C112.779 103.616 112.961 104.056 112.961 104.515V105.279C112.961 105.738 112.779 106.178 112.455 106.503C112.13 106.827 111.69 107.009 111.231 107.009Z" fill="#2A94F4"/>
<path d="M118.384 132.244H100.779C100.599 132.244 100.42 132.209 100.254 132.14C100.088 132.071 99.9363 131.97 99.809 131.842C99.6816 131.715 99.5806 131.564 99.5116 131.397C99.4427 131.231 99.4072 131.053 99.4072 130.872V128.405C99.4072 128.041 99.5517 127.692 99.809 127.435C100.066 127.178 100.415 127.033 100.779 127.033H118.384C118.747 127.033 119.096 127.178 119.353 127.435C119.611 127.692 119.755 128.041 119.755 128.405V130.872C119.755 131.053 119.72 131.231 119.651 131.397C119.582 131.564 119.481 131.715 119.354 131.842C119.226 131.97 119.075 132.071 118.909 132.14C118.742 132.209 118.564 132.244 118.384 132.244Z" fill="#FFBE55"/>
<path opacity="0.29" d="M155.864 45.2832C157.283 45.2832 158.434 44.1324 158.434 42.7129C158.434 41.2933 157.283 40.1426 155.864 40.1426C154.444 40.1426 153.293 41.2933 153.293 42.7129C153.293 44.1324 154.444 45.2832 155.864 45.2832Z" fill="#FFBE55"/>
<path d="M155.864 33.2273C150.625 33.2273 146.378 37.4742 146.378 42.713H165.349C165.349 37.4742 161.103 33.2273 155.864 33.2273Z" fill="#FFBE55"/>
<path d="M155.462 19H156.265V33.2272H155.462V19Z" fill="#0B4870"/>
<path d="M182.537 87.8816C182.294 88.2319 182.098 88.6105 181.885 88.9784C180.021 92.1902 178.16 95.4039 176.298 98.6173C176.209 98.7707 176.209 98.7707 176.12 98.6173C174.071 95.0803 172.022 91.5438 169.971 88.0075C169.946 87.9634 169.93 87.9097 169.881 87.8816V87.8501L172.416 87.8557C172.52 88.0383 172.624 88.2213 172.729 88.4033L174.503 91.4625C175.049 92.4049 175.595 93.3474 176.14 94.2908C176.191 94.3806 176.227 94.3806 176.278 94.2908C176.471 93.9526 176.667 93.6165 176.862 93.2794C177.501 92.1776 178.14 91.076 178.778 89.9742C179.187 89.2685 179.594 88.5618 180.002 87.8554L182.536 87.8497C182.537 87.8607 182.537 87.8709 182.537 87.8816Z" fill="#CCE9FF"/>
<path d="M172.416 87.8554C173.164 87.8537 173.912 87.8537 174.66 87.8474C174.756 87.8464 174.784 87.9018 174.822 87.9664C175.251 88.7076 175.681 89.4486 176.111 90.1893C176.139 90.2377 176.169 90.2845 176.2 90.3342C176.263 90.2951 176.279 90.2371 176.307 90.189C176.735 89.4531 177.164 88.7176 177.587 87.979C177.64 87.8865 177.694 87.8458 177.806 87.8471C178.538 87.8547 179.27 87.8537 180.003 87.8557C179.595 88.5621 179.188 89.2685 178.779 89.9745C178.141 91.0767 177.502 92.1782 176.863 93.2797C176.668 93.6165 176.471 93.953 176.279 94.2911C176.227 94.3809 176.192 94.3809 176.141 94.2911C175.596 93.3477 175.05 92.4053 174.504 91.4629C173.913 90.4429 173.321 89.4236 172.73 88.4036C172.624 88.221 172.52 88.038 172.416 87.8554Z" fill="#0B4870"/>
<path d="M113.694 142.17L113.552 143.162H111.567V142.17H113.694Z" fill="#FAB9AF"/>
<path d="M240.875 142.955C240.875 143.386 240.704 143.8 240.399 144.105C240.094 144.409 239.681 144.581 239.25 144.581H232.979C232.548 144.581 232.134 144.409 231.83 144.105C231.525 143.8 231.354 143.386 231.354 142.955V128.324C231.354 127.892 231.525 127.479 231.83 127.174C232.134 126.869 232.548 126.698 232.979 126.698H239.25C239.681 126.698 240.094 126.869 240.399 127.174C240.704 127.479 240.875 127.892 240.875 128.324V142.955Z" fill="#FFBE55"/>
<path d="M236.866 109.856C236.866 109.856 231.733 120.29 239.296 122.067C246.86 123.844 247.078 115.973 246.303 112.729C245.528 109.486 257.53 100.765 247.631 93.0498C237.732 85.3349 230.018 105.875 236.866 109.856Z" fill="#CCE9FF"/>
<path d="M227.308 115.52C227.308 115.52 227.066 122.387 231.573 121.514C236.08 120.642 234.292 116.347 233.09 114.786C231.887 113.225 236.246 105.62 229.043 103.857C221.841 102.094 222.653 115.032 227.308 115.52Z" fill="#CCE9FF"/>
<path d="M228.077 109.047L233.65 126.698M231.328 112.641L230.147 115.605L227.457 114.123M242.912 99.0604L238.13 126.698M245.717 103.241L241.756 105.743L239.214 102.312M244.633 109.037L240.672 111.538L238.13 108.108" stroke="#4D4D4D" stroke-miterlimit="10"/>
<path d="M77.346 142.955C77.346 143.386 77.1748 143.8 76.8699 144.105C76.565 144.409 76.1516 144.581 75.7204 144.581H69.4498C69.0187 144.581 68.6052 144.409 68.3003 144.105C67.9955 143.8 67.8242 143.386 67.8242 142.955V128.324C67.8242 127.892 67.9955 127.479 68.3003 127.174C68.6052 126.869 69.0187 126.698 69.4498 126.698H75.7204C76.1516 126.698 76.565 126.869 76.8699 127.174C77.1748 127.479 77.346 127.892 77.346 128.324V142.955Z" fill="#FFBE55"/>
<path d="M73.3365 109.856C73.3365 109.856 68.2032 120.29 75.7666 122.067C83.33 123.844 83.5482 115.973 82.7731 112.729C81.9981 109.486 94.0001 100.765 84.1014 93.0498C74.2027 85.3349 66.4881 105.875 73.3365 109.856Z" fill="#CCE9FF"/>
<path d="M63.778 115.52C63.778 115.52 63.5364 122.387 68.0432 121.514C72.55 120.642 70.7627 116.347 69.56 114.786C68.3571 113.225 72.7158 105.62 65.5133 103.857C58.3109 102.094 59.1237 115.032 63.778 115.52Z" fill="#CCE9FF"/>
<path d="M64.5467 109.047L70.1206 126.698M67.7982 112.641L66.6178 115.605L63.9275 114.123M79.3822 99.0604L74.6005 126.698M82.1875 103.241L78.2259 105.743L75.6845 102.312M81.1035 109.037L77.1423 111.538L74.6005 108.108" stroke="#4D4D4D" stroke-miterlimit="10"/>
</svg>
