<svg width="90" height="171" viewBox="0 0 90 171" fill="none" xmlns="http://www.w3.org/2000/svg">
<path d="M42.6548 163.517L42.4487 158.096H50.5693V163.517H42.6548Z" fill="#C6C6C7"/>
<path d="M63.7851 170.051C63.8097 167.223 63.4251 165.503 60.9705 164.347C58.516 163.191 56.2038 160.969 51.9573 159.064C51.9573 159.064 51.3984 158.959 50.4885 159.452C49.712 159.873 48.7147 160.904 47.212 160.892C45.5801 160.877 44.1259 160.531 43.2224 160.056C42.8321 158.985 41.9662 158.978 41.9662 158.978C41.9662 158.978 40.747 161.302 40.7267 163.637C40.7063 165.971 40.7083 169.849 40.7083 169.849L63.7851 170.051Z" fill="#504D5A"/>
<path d="M53.852 162.187C53.7816 162.442 54.0231 162.674 54.2753 162.593L55.9049 162.067V163.543C55.9049 163.796 56.1747 163.957 56.3966 163.837L57.5035 163.236V164.344C57.5035 164.528 57.6527 164.678 57.8366 164.678C58.0205 164.678 58.1696 164.528 58.1696 164.344V162.676C58.1696 162.423 57.8998 162.262 57.6779 162.383L56.571 162.983V161.609C56.571 161.382 56.3508 161.222 56.1358 161.291L54.6583 161.768L55.027 160.429C55.1017 160.158 54.8285 159.922 54.5716 160.036L52.7829 160.826C52.7926 160.605 52.8119 160.426 52.8477 160.231C52.8857 160.024 52.9398 159.839 53.012 159.677C53.0868 159.508 53.0111 159.311 52.843 159.236C52.675 159.161 52.4781 159.237 52.4034 159.405C52.3083 159.62 52.2396 159.855 52.1926 160.11C52.1234 160.487 52.1082 160.796 52.1082 161.341C52.1082 161.582 52.3555 161.744 52.5756 161.646L54.1983 160.93L53.852 162.187Z" fill="white"/>
<path d="M41.4509 160.208C41.9248 160.852 43.6341 161.238 44.2772 161.333C44.9203 161.428 45.6094 161.344 45.3336 162.41C45.1386 163.163 43.2647 162.858 42.532 162.852C41.9363 162.846 41.1008 164.65 40.7898 164.038C40.7898 161.943 41.1844 160.808 41.4509 160.208ZM62.8566 164.564C62.1035 164.29 61.306 164.083 59.7768 163.736L60.4267 165.61L60.408 167.744L64.7603 167.782C64.9378 167.784 65.2553 167.547 65.1038 166.585C64.9145 165.382 63.9267 164.952 62.8566 164.564Z" fill="#29282D"/>
<path d="M55.6565 164.18L53.6289 168.05L55.5163 169.042L57.5439 165.172L55.6565 164.18Z" fill="white"/>
<path d="M52.8628 162.714L50.4331 167.365L52.3218 168.355L54.7514 163.704L52.8628 162.714Z" fill="white"/>
<path d="M50.1234 161.104L46.7639 167.658L48.6602 168.633L52.0197 162.079L50.1234 161.104Z" fill="white"/>
<path d="M40.4452 169.483L40.5724 167.238L60.237 167.543L65.1402 167.186L65.29 168.906C65.3418 169.501 64.896 170.023 64.3012 170.063L60.2127 170.344L40.969 170.047C40.6662 170.042 40.4281 169.786 40.4452 169.483Z" fill="#DDDDDD"/>
<path d="M31.9948 163.517L32.2009 158.096H24.0803V163.517H31.9948Z" fill="#C6C6C7"/>
<path d="M10.8643 170.051C10.8397 167.223 11.2243 165.503 13.679 164.347C16.1335 163.191 18.4456 160.969 22.6921 159.064C22.6921 159.064 23.251 158.959 24.1609 159.452C24.9374 159.873 25.9348 160.904 27.4374 160.892C29.0693 160.877 30.5235 160.531 31.427 160.056C31.8173 158.985 32.6832 158.978 32.6832 158.978C32.6832 158.978 33.9024 161.302 33.9227 163.637C33.9431 165.971 33.9411 169.849 33.9411 169.849L10.8643 170.051Z" fill="#504D5A"/>
<path d="M20.7974 162.187C20.8678 162.442 20.6263 162.674 20.3741 162.593L18.7445 162.067V163.543C18.7445 163.796 18.4747 163.957 18.2528 163.837L17.1459 163.236V164.344C17.1459 164.528 16.9968 164.678 16.8128 164.678C16.6289 164.678 16.4798 164.528 16.4798 164.344V162.676C16.4798 162.423 16.7496 162.262 16.9715 162.383L18.0784 162.983V161.609C18.0784 161.382 18.2986 161.222 18.5137 161.291L19.9911 161.768L19.6224 160.429C19.5477 160.158 19.8209 159.922 20.0779 160.036L21.8665 160.826C21.8568 160.605 21.8376 160.426 21.8017 160.231C21.7637 160.024 21.7096 159.839 21.6374 159.677C21.5627 159.508 21.6383 159.311 21.8064 159.236C21.9744 159.161 22.1713 159.237 22.246 159.405C22.3411 159.62 22.4098 159.855 22.4568 160.11C22.526 160.487 22.5413 160.796 22.5413 161.341C22.5413 161.582 22.2939 161.744 22.0738 161.646L20.4511 160.93L20.7974 162.187Z" fill="white"/>
<path d="M33.1985 160.208C32.7246 160.852 31.0153 161.238 30.3722 161.333C29.7291 161.428 29.04 161.344 29.3158 162.41C29.5108 163.163 31.3847 162.858 32.1174 162.852C32.7131 162.846 33.5486 164.65 33.8596 164.038C33.8596 161.943 33.465 160.808 33.1985 160.208Z" fill="#29282D"/>
<path d="M11.793 164.564C12.5461 164.29 13.3437 164.083 14.8728 163.736L14.2229 165.61L14.2416 167.744L9.88935 167.782C9.7118 167.783 9.39436 167.547 9.54582 166.585C9.73518 165.382 10.7229 164.952 11.793 164.564Z" fill="#29282D"/>
<path d="M18.9927 164.18L21.0203 168.05L19.1328 169.042L17.1053 165.172L18.9927 164.18Z" fill="white"/>
<path d="M21.7867 162.714L24.2163 167.365L22.3277 168.355L19.898 163.704L21.7867 162.714Z" fill="white"/>
<path d="M24.5263 161.104L27.8857 167.658L25.9895 168.633L22.63 162.079L24.5263 161.104Z" fill="white"/>
<path d="M34.2042 169.483L34.077 167.238L14.4124 167.543L9.50926 167.186L9.3594 168.906C9.3076 169.501 9.75337 170.023 10.3483 170.063L14.4367 170.344L33.6804 170.047C33.9832 170.042 34.2213 169.786 34.2042 169.483Z" fill="#DDDDDD"/>
<path d="M53.5962 73.256C53.5962 69.2625 54.5353 60.0506 49.3606 54.2705C49.3606 54.2705 30.7493 53.1284 26.8492 56.6727C22.9491 60.217 21.1671 67.0555 20.2471 80.0871C19.3271 93.1187 15.5997 130.243 14.6414 136.111C18.6662 136.703 44.909 139.551 58.0742 136.111C58.0742 127.704 55.3473 101.131 55.0597 88.7825C54.8656 80.4412 53.5962 77.2497 53.5962 73.256Z" fill="#27292B"/>
<path d="M18.0059 113.332L33.4883 114.646V158.14H22.2735L18.0059 113.332Z" fill="#404B62"/>
<path d="M35.0465 117.343C43.2767 117.343 49.9486 114.178 49.9486 110.274C49.9486 106.37 43.2767 103.205 35.0465 103.205C26.8164 103.205 20.1445 106.37 20.1445 110.274C20.1445 114.178 26.8164 117.343 35.0465 117.343Z" fill="#404B62"/>
<path d="M36.8992 114.646H52.7752V158.14H41.2753L36.8992 114.646Z" fill="#404B62"/>
<path d="M32.9185 71.867C34.9662 65.541 31.5057 58.7502 25.1891 56.6994C18.8725 54.6486 12.0919 58.1143 10.0442 64.4404L3.70757 84.0158C1.65982 90.3418 5.12038 97.1326 11.4369 99.1834C17.7535 101.234 24.5341 97.7685 26.5819 91.4425L32.9185 71.867Z" fill="#36383A"/>
<path d="M17.194 71.0026C17.7557 64.1084 23.5064 58.8 30.4131 58.8H40.8173C48.1844 58.8 54.1399 64.813 54.0798 72.1909L53.9526 87.8583L54.1887 112.149H18.1883L15.9068 89.7073C15.8193 88.8475 15.8107 87.9813 15.8808 87.1199L17.194 71.0026Z" fill="#2D2928"/>
<path d="M56.0351 57.6558C52.1785 53.9205 45.9769 54.2106 42.4848 58.2896C39.0406 62.3129 39.6294 68.3977 43.7809 71.6835L66.6471 89.783C70.0388 92.4676 74.9585 91.9055 77.6591 88.5246C80.1926 85.353 79.9009 80.7716 76.9857 77.9481L56.0351 57.6558Z" fill="#36383A"/>
<path d="M21.2859 155.138H33.5898V158.589H21.8396L21.2859 155.138Z" fill="#343D51"/>
<path d="M53.3991 155.313L39.8647 155.138L40.5218 158.589H53.0244L53.3991 155.313Z" fill="#343D51"/>
<path d="M30.5909 73.2611C30.5909 69.2665 31.0196 60.0522 28.6579 54.2706C28.6579 54.2706 20.1641 53.1281 18.3841 56.6734C16.6042 60.2185 15.7909 67.0589 15.3711 80.0941C14.9512 93.1292 13.25 130.264 12.8127 136.134C14.6496 136.725 25.4741 138.695 31.5095 136.593C31.5095 128.183 31.6406 101.118 31.5094 88.7667C31.4208 80.4231 30.5909 77.2558 30.5909 73.2611Z" fill="#36383A"/>
<path d="M22.8604 64.9759C26.2717 62.4792 25.4844 53.6096 27.715 53.6096C34.7345 59.7855 33.652 70.3634 31.2575 85.3432C27.5837 67.0783 25.5173 68.7865 22.8604 64.9759Z" fill="#5A5E65"/>
<path d="M39.6087 72.9677C39.6087 68.9731 39.8868 59.6303 42.2484 53.8486H48.0738C50.3334 53.8486 52.3425 55.0645 52.806 57.2793C53.7724 61.8967 54.5193 70.1986 54.8287 79.8006C55.2485 92.8358 57.6985 129.965 58.1359 135.834C54.7246 136.36 42.0861 137.936 36.0505 135.834C36.0505 127.424 38.5591 100.825 38.6902 88.4732C38.7789 80.1296 39.6087 76.9623 39.6087 72.9677Z" fill="#36383A"/>
<path d="M47.3186 64.3846C43.9072 61.8878 44.6945 53.0182 42.4639 53.0182C35.4444 59.1941 36.5269 69.772 38.9214 84.7519C42.5952 66.487 44.6616 68.1951 47.3186 64.3846Z" fill="#5A5E65"/>
<path d="M31.4033 74.4763C36.4804 72.8625 41.0545 76.0336 44.3621 78.6664C47.4551 81.8066 51.7371 86.2304 51.6714 93.0868C51.6056 99.9431 43.136 102.51 40.1466 104.981C37.157 107.452 35.6137 115.326 31.3768 118.554C27.14 121.782 18.9468 124.825 10.574 117.077C2.20118 109.328 1.16558 102.603 4.58535 95.1662C8.00511 87.7298 18.186 85.9204 21.6974 83.9106C25.209 81.901 26.3262 76.09 31.4033 74.4763Z" fill="#D0B98E"/>
<path d="M22.2584 92.5393C22.2126 87.0795 27.1615 84.1713 31.3149 84.1792C35.4684 84.1871 39.292 88.1802 39.6791 92.914C40.0662 97.6479 36.2552 100.662 30.9516 101.118C25.6481 101.575 22.3041 97.9992 22.2584 92.5393Z" fill="#AB9265"/>
<path d="M24.4082 92.5953C24.3736 88.4657 28.1129 86.266 31.251 86.2719C34.3891 86.2777 37.278 89.2979 37.5703 92.8785C37.8628 96.4591 34.9833 98.7389 30.9762 99.0841C26.9691 99.4293 24.4426 96.725 24.4082 92.5953Z" fill="#342B29"/>
<path d="M16.2466 95.6742C17.4927 94.9614 19.8255 98.0929 22.4094 100.983C25.3034 103.757 28.4397 106.721 27.504 107.317C26.5682 107.913 24.4486 106.327 23.5392 105.691C22.6298 105.055 20.4863 104.578 18.8639 102.756C17.2417 100.934 17.1581 99.0833 16.8677 98.2758C16.5774 97.4684 15.0007 96.3869 16.2466 95.6742Z" fill="#967551"/>
<path d="M35.9275 83.1556L73.4549 48.6732L77.6378 53.0645L41.1437 89.2137L35.9275 83.1556Z" fill="#967551"/>
<path d="M74.504 46.2827C74.284 47.3626 73.4644 48.8486 73.0823 49.4566L76.993 53.6081C77.225 53.305 78.0842 52.6455 79.664 52.4331C81.6388 52.1674 83.0329 50.287 84.3694 48.2204C85.706 46.1539 92.0885 44.0726 88.2354 40.1073C84.3823 36.1421 83.1146 40.7367 79.8807 42.331C76.6467 43.9254 74.7791 44.9328 74.504 46.2827Z" fill="#D0B98E"/>
<path d="M80.5016 39.2015C80.4493 38.769 80.8316 38.161 81.5121 37.9907C82.4962 38.0119 89.4644 45.9267 89.5743 46.5453C89.684 47.1638 88.9314 47.8255 88.2588 47.6263C87.5862 47.4269 80.5538 39.634 80.5016 39.2015ZM78.1276 41.1841C78.0753 40.7515 78.4575 40.1436 79.1381 39.9734C80.1221 39.9945 87.0903 47.9092 87.2002 48.5279C87.31 49.1465 86.5573 49.8082 85.8848 49.6088C85.2122 49.4095 78.1798 41.6166 78.1276 41.1841ZM75.127 43.382C75.0727 42.9341 75.4694 42.3044 76.1755 42.1282C77.1968 42.1501 84.4283 50.3468 84.5422 50.9875C84.6561 51.6281 83.8752 52.3133 83.1772 52.1068C82.4792 51.9003 75.1813 43.8299 75.127 43.382Z" fill="#967551"/>
<path d="M76.6271 45.8705C76.4535 46.7256 75.8069 47.9022 75.5054 48.3837L78.59 51.6704C78.773 51.4304 79.4509 50.9082 80.697 50.7398C82.2548 50.5294 82.9086 48.7387 83.963 47.1024C84.2692 46.6272 84.9655 45.5396 85.3035 44.8511C86.1294 43.1686 86.9629 41.9843 86.6624 41.7374C86.3452 41.4765 85.88 40.9867 85.2009 41.0281C84.0045 42.2964 82.4635 41.952 80.8685 42.7414C78.3174 44.0039 76.8442 44.8017 76.6271 45.8705Z" fill="#E8D6B3"/>
<path d="M77.8469 45.052L19.9395 99.7627L20.1928 100.032L78.1002 45.3209L77.8469 45.052Z" fill="black"/>
<path d="M81.5787 43.2214L20.5378 100.576L20.7904 100.846L81.8313 43.491L81.5787 43.2214Z" fill="black"/>
<path d="M84.6212 41.9312L21.0791 101.718L21.3319 101.988L84.8741 42.2005L84.6212 41.9312Z" fill="black"/>
<path d="M85.2179 42.8069L21.8977 102.392L22.1506 102.662L85.4707 43.0763L85.2179 42.8069Z" fill="black"/>
<path d="M81.5234 49.0132L23.3672 103.842L23.6203 104.111L81.7765 49.2823L81.5234 49.0132Z" fill="black"/>
<path d="M83.6832 45.4856L22.573 103.209L22.8263 103.478L83.9366 45.7545L83.6832 45.4856Z" fill="black"/>
<path d="M24.9771 104.661L18.9054 98.702L18.4561 99.1577L24.1625 105.11L24.9771 104.661Z" fill="#292D34"/>
<path d="M83.8709 42.7866C84.5503 42.8012 85.1128 42.2615 85.1274 41.5811C85.142 40.9007 84.6031 40.3373 83.9237 40.3227C83.2443 40.3081 82.6818 40.8478 82.6672 41.5282C82.6526 42.2086 83.1915 42.772 83.8709 42.7866Z" fill="#231B12"/>
<path d="M85.9143 45.0492C86.5937 45.0638 87.1563 44.5241 87.1709 43.8437C87.1855 43.1633 86.6465 42.5999 85.9672 42.5853C85.2878 42.5707 84.7252 43.1104 84.7106 43.7908C84.6961 44.4712 85.235 45.0346 85.9143 45.0492Z" fill="#231B12"/>
<path d="M81.0071 44.3273C81.6865 44.3419 82.2491 43.8022 82.2636 43.1218C82.2782 42.4414 81.7393 41.878 81.0599 41.8634C80.3806 41.8488 79.818 42.3885 79.8034 43.0689C79.7888 43.7493 80.3277 44.3127 81.0071 44.3273Z" fill="#231B12"/>
<path d="M84.2544 47.8481C84.9338 47.8627 85.4964 47.323 85.511 46.6426C85.5255 45.9623 84.9866 45.3988 84.3073 45.3842C83.6279 45.3696 83.0653 45.9094 83.0507 46.5897C83.0362 47.2701 83.5751 47.8335 84.2544 47.8481Z" fill="#231B12"/>
<path d="M77.7666 46.2296C78.446 46.2442 79.0086 45.7045 79.0232 45.0241C79.0377 44.3437 78.4988 43.7803 77.8195 43.7657C77.1401 43.7511 76.5775 44.2908 76.5629 44.9712C76.5484 45.6516 77.0873 46.215 77.7666 46.2296Z" fill="#231B12"/>
<path d="M82.0999 50.7599C82.7793 50.7745 83.3418 50.2348 83.3564 49.5544C83.371 48.874 82.8321 48.3106 82.1527 48.296C81.4733 48.2814 80.9108 48.8211 80.8962 49.5015C80.8816 50.1819 81.4205 50.7453 82.0999 50.7599Z" fill="#231B12"/>
<path d="M77.4938 81.4647L68.769 62.6462C67.7101 60.3624 65.0031 59.3707 62.7227 60.4311C60.4423 61.4915 59.452 64.2026 60.5109 66.4864L69.2357 85.3049C70.2946 87.5887 73.0016 88.5804 75.282 87.52C77.5624 86.4596 78.5527 83.7485 77.4938 81.4647ZM31.4058 92.723L11.5602 86.3178C9.16711 85.5454 6.60198 86.8622 5.83078 89.2588C5.05958 91.6555 6.37435 94.2244 8.7674 94.9968L28.613 101.402C31.0061 102.174 33.5712 100.858 34.3424 98.4609C35.1136 96.0643 33.7989 93.4953 31.4058 92.723Z" fill="#F4D4C9"/>
<path d="M12.263 84.6779C8.71967 83.5038 4.89678 85.4287 3.72438 88.9773C2.55198 92.526 4.47404 96.3546 8.01741 97.5287L20.9571 101.817C24.5004 102.991 28.3233 101.066 29.4957 97.5171C30.6681 93.9685 28.7461 90.1399 25.2027 88.9657L12.263 84.6779Z" fill="#424648"/>
<path d="M73.3296 67.9443C71.8097 64.608 67.877 63.1374 64.5457 64.6596C61.2145 66.1818 59.746 70.1203 61.266 73.4566L67.0297 86.1082C68.5496 89.4445 72.4822 90.9151 75.8135 89.3929C79.1448 87.8708 80.6132 83.9322 79.0933 80.5959L73.3296 67.9443Z" fill="#424648"/>
<path d="M52.94 43.1431C56.9673 43.1431 60.2322 39.8735 60.2322 35.8402C60.2322 31.8068 56.9673 28.5371 52.94 28.5371C48.9127 28.5371 45.648 31.8068 45.648 35.8402C45.648 39.8735 48.9127 43.1431 52.94 43.1431ZM18.612 43.5128C14.5846 43.5128 11.3198 40.2432 11.3198 36.2099C11.3198 32.1765 14.5846 28.9068 18.612 28.9068C22.6393 28.9068 25.904 32.1765 25.904 36.2099C25.904 40.2432 22.6393 43.5128 18.612 43.5128Z" fill="#EBBAAA"/>
<path d="M16.3647 22.3143C16.3647 11.868 24.8205 3.39954 35.2513 3.39954C45.682 3.39954 54.1378 11.868 54.1378 22.3143V31.248L52.8887 42.5062C52.1151 49.4788 47.2707 55.3404 40.5837 57.4301C37.1223 58.5118 33.3989 58.495 29.9497 57.3751C23.5606 55.3005 18.9182 49.7503 17.9986 43.0869L16.3647 31.248V22.3143Z" fill="#F4D4C9"/>
<path d="M29.4684 16.2764C35.9895 12.3948 42.6336 15.0441 44.6023 15.3522C49.5853 22.1295 50.2005 18.3096 50.4466 20.2811C50.6927 22.2527 52.4768 23.3001 53.092 24.3475C53.7072 25.3949 52.8459 32.6035 53.7072 32.6035C54.5684 32.6035 54.3224 28.8452 54.63 28.7835C54.876 28.7343 55.5937 29.0094 55.9219 29.1532C56.4755 26.6066 57.6444 20.8726 57.8905 18.3096C58.1981 15.1058 56.414 12.9493 55.9219 12.1484C55.4297 11.3474 54.2608 9.0062 52.2922 6.60334C50.7173 4.68106 47.4937 3.70759 46.0787 4.50854C45.1559 3.27631 44.4423 0.208053 37.4045 0.0108947C28.6072 -0.235551 18.1487 3.70758 15.3803 10.9778C14.3389 13.7127 14.8883 14.2432 13.4732 17.0157C12.0581 19.7882 13.8423 30.2622 14.5806 30.139C15.3188 30.0158 15.9957 29.2764 15.9957 29.5229C15.9957 30.0774 15.9341 32.1722 16.4878 32.1722C17.0415 32.1722 16.7339 31.0016 16.8569 30.139C16.98 29.2764 17.0415 25.703 19.1947 24.3475C21.3479 22.9921 23.7471 17.0157 24.916 17.0157C26.0849 17.0157 24.3008 19.5418 25.9618 19.5418C27.6229 19.5418 26.5694 18.002 29.4684 16.2764Z" fill="#613F2B"/>
<path d="M31.4076 48.3429C33.8178 49.6839 36.6625 49.6491 39.7318 48.3916C40.216 48.1932 40.448 47.6392 40.2499 47.1542C40.0518 46.6693 39.4986 46.4369 39.0144 46.6353C36.4393 47.6903 34.1858 47.7179 32.3278 46.6841C31.8704 46.4296 31.2937 46.5947 31.0396 47.0527C30.7855 47.5108 30.9502 48.0884 31.4076 48.3429Z" fill="#C99584"/>
<path d="M43.0027 35.1912H45.9557C46.907 35.1912 47.6782 34.4189 47.6782 33.4661C47.6782 32.5133 46.907 31.741 45.9557 31.741H43.0027C42.0514 31.741 41.2802 32.5133 41.2802 33.4661C41.2802 34.4189 42.0514 35.1912 43.0027 35.1912ZM26.0846 35.1912H29.2836C30.235 35.1912 31.0062 34.4189 31.0062 33.4661C31.0062 32.5133 30.235 31.741 29.2836 31.741H26.0846C25.1333 31.741 24.3621 32.5133 24.3621 33.4661C24.3621 34.4189 25.1333 35.1912 26.0846 35.1912Z" fill="black"/>
<path d="M34.1705 36.7695C33.4235 38.0897 32.988 39.5324 33.0441 40.7096C33.1213 42.3266 34.1348 43.4137 35.8413 43.4137V41.3189C35.3082 41.3189 35.1597 41.1597 35.1334 40.6097C35.0986 39.8787 35.4224 38.806 35.9903 37.8024L34.1705 36.7695Z" fill="#EBBAAA"/>
<path d="M37.4678 32.2261C37.0843 30.791 38.1153 29.3656 39.5965 29.2833L49.8357 28.7142C51.3168 28.6318 52.499 29.9341 52.2765 31.4029L51.6352 35.6367C51.4693 36.7327 50.5587 37.5618 49.4535 37.6233L40.9609 38.0954C39.8557 38.1568 38.859 37.4337 38.5729 36.3629L37.4678 32.2261Z" fill="white" fill-opacity="0.48"/>
<path d="M37.322 33.5854C37.361 33.7857 37.5549 33.9165 37.755 33.8774C37.955 33.8384 38.0856 33.6442 38.0466 33.4438L37.322 33.5854ZM37.3805 31.955L37.7427 31.8842L37.7401 31.871L37.7365 31.858L37.3805 31.955ZM39.3672 29.3952L39.3597 29.0256L39.3429 29.026L39.3262 29.0278L39.3672 29.3952ZM50.0352 29.1757L50.0734 28.808L50.0505 28.8057L50.0277 28.8062L50.0352 29.1757ZM52.1863 31.3099L52.5527 31.3548L52.553 31.3515L52.5534 31.3483L52.1863 31.3099ZM51.5872 33.1763C51.5624 33.3789 51.7065 33.5632 51.9089 33.588C52.1112 33.6126 52.2953 33.4684 52.32 33.2657L51.5872 33.1763ZM38.0466 33.4438L37.7427 31.8842L37.0181 32.0259L37.322 33.5854L38.0466 33.4438ZM37.7365 31.858C37.6935 31.6991 37.6702 31.1212 38.1677 30.5548L37.6134 30.0665C36.9417 30.8313 36.9203 31.6694 37.0243 32.052L37.7365 31.858ZM38.1677 30.5548C38.6956 29.9536 39.2567 29.7795 39.4081 29.7626L39.3262 29.0278C38.9803 29.0665 38.2545 29.3364 37.6134 30.0665L38.1677 30.5548ZM39.3748 29.7648L50.0428 29.5453L50.0277 28.8062L39.3597 29.0256L39.3748 29.7648ZM49.9969 29.5434C50.1423 29.5586 50.4062 29.6146 50.682 29.7337C50.9588 29.8533 51.2183 30.0237 51.3901 30.2503L51.9781 29.8033C51.7027 29.44 51.3194 29.2039 50.9744 29.0548C50.6282 28.9054 50.2913 28.8308 50.0734 28.808L49.9969 29.5434ZM51.3901 30.2503C51.7934 30.7824 51.8264 31.2024 51.8191 31.2717L52.5534 31.3483C52.584 31.0538 52.4691 30.4511 51.9781 29.8033L51.3901 30.2503ZM51.8198 31.2652L51.5872 33.1763L52.32 33.2657L52.5527 31.3548L51.8198 31.2652Z" fill="black"/>
<path d="M19.2369 31.6478C19.0411 30.2 20.2026 28.9283 21.6598 28.9947L31.8241 29.4581C33.3324 29.5269 34.381 30.9882 33.9651 32.4417L32.8114 36.475C32.5065 37.5406 31.4973 38.246 30.3934 38.1652L21.907 37.5434C20.8046 37.4626 19.9094 36.6196 19.761 35.5227L19.2369 31.6478Z" fill="white" fill-opacity="0.48"/>
<path d="M19.037 33.3344C19.0695 33.536 19.259 33.673 19.4603 33.6404C19.6616 33.6078 19.7983 33.4181 19.7658 33.2165L19.037 33.3344ZM19.1482 31.7069L19.5126 31.6478L19.5105 31.6345L19.5074 31.6215L19.1482 31.7069ZM21.217 29.2129L21.2213 28.8434L21.2046 28.8431L21.188 28.8445L21.217 29.2129ZM31.8865 29.3406L31.9366 28.9744L31.9138 28.9712L31.8908 28.9709L31.8865 29.3406ZM33.9672 31.5437L34.3319 31.6004L34.3324 31.5972L34.3329 31.594L33.9672 31.5437ZM33.3078 33.3895C33.2766 33.5913 33.4146 33.7802 33.6161 33.8115C33.8175 33.8427 34.0061 33.7046 34.0373 33.5028L33.3078 33.3895ZM19.7658 33.2165L19.5126 31.6478L18.7838 31.7658L19.037 33.3344L19.7658 33.2165ZM19.5074 31.6215C19.4694 31.4611 19.4649 30.8829 19.9805 30.3329L19.4423 29.8268C18.7462 30.5694 18.6977 31.4063 18.7891 31.7922L19.5074 31.6215ZM19.9805 30.3329C20.5276 29.7493 21.0941 29.5934 21.2459 29.5815L21.188 28.8445C20.841 28.8719 20.1067 29.1181 19.4423 29.8268L19.9805 30.3329ZM21.2126 29.5826L31.8821 29.7103L31.8908 28.9709L21.2213 28.8434L21.2126 29.5826ZM31.8363 29.7068C31.9811 29.7268 32.2431 29.7913 32.5149 29.9194C32.7876 30.0478 33.0415 30.2267 33.2058 30.4587L33.808 30.031C33.5446 29.659 33.1692 29.4105 32.8291 29.2503C32.488 29.0896 32.1536 29.0042 31.9366 28.9744L31.8363 29.7068ZM33.2058 30.4587C33.5917 31.0036 33.6109 31.4244 33.6015 31.4934L34.3329 31.594C34.373 31.3006 34.2778 30.6944 33.808 30.031L33.2058 30.4587ZM33.6024 31.487L33.3078 33.3895L34.0373 33.5028L34.3319 31.6004L33.6024 31.487Z" fill="black"/>
<path d="M33.8835 31.9085C34.4601 31.73 36.0084 31.4716 37.5568 31.9085" stroke="black" stroke-width="10"/>
<path d="M46.5959 24.729L39.111 25.7553C38.9817 25.7729 38.8888 25.8886 38.8991 26.0189L38.996 27.2434C39.0067 27.3778 39.1231 27.4787 39.2575 27.4698L46.646 26.9847C46.6698 26.9831 46.6937 26.9851 46.7168 26.9904L49.4073 27.6057C49.5614 27.641 49.7082 27.5237 49.7082 27.3655V26.6812C49.7082 26.5947 49.663 26.5146 49.5891 26.47L46.7562 24.762C46.7081 24.7329 46.6515 24.7213 46.5959 24.729ZM24.1523 24.729L31.6372 25.7553C31.7665 25.7729 31.8594 25.8886 31.8492 26.0189L31.7522 27.2434C31.7415 27.3778 31.6251 27.4787 31.4907 27.4698L24.1022 26.9847C24.0784 26.9831 24.0545 26.9851 24.0314 26.9904L21.3409 27.6057C21.1868 27.641 21.04 27.5237 21.04 27.3655V26.6812C21.04 26.5947 21.0852 26.5146 21.1591 26.47L23.992 24.762C24.0401 24.7329 24.0967 24.7213 24.1523 24.729Z" fill="#613F2B"/>
</svg>
