<svg width="64" height="64" viewBox="0 0 64 64" fill="none" xmlns="http://www.w3.org/2000/svg">
<g clip-path="url(#clip0_70_1209)">
<path d="M32 21C37.5228 21 42 16.5228 42 11C42 5.47715 37.5228 1 32 1C26.4772 1 22 5.47715 22 11C22 16.5228 26.4772 21 32 21Z" fill="#A0D468"/>
<path d="M38 25C41.7128 25.0007 45.2734 26.4759 47.8987 29.1013C50.5241 31.7266 51.9993 35.2872 52 39V45C52 45.7957 51.6839 46.5587 51.1213 47.1213C50.5587 47.6839 49.7956 48 49 48C48.2043 48 47.4413 47.6839 46.8787 47.1213C46.3161 46.5587 46 45.7957 46 45V39C45.9996 35.8061 44.9077 32.7083 42.9052 30.2202C40.9027 27.7321 38.1099 26.0031 34.99 25.32C35.9791 25.1066 36.9881 24.9994 38 25Z" fill="#965353"/>
<path d="M32 63.0001H18C17.996 59.975 18.9752 57.0304 20.79 54.6101C21.9998 55.5308 23.4797 56.0265 25 56.0201C25.0045 57.8734 25.7441 59.6492 27.0564 60.9578C28.3688 62.2664 30.1467 63.0009 32 63.0001ZM46 63.0001H32C33.8533 63.0009 35.6312 62.2664 36.9436 60.9578C38.2559 59.6492 38.9955 57.8734 39 56.0201C40.5203 56.0265 42.0002 55.5308 43.21 54.6101C45.0249 57.0304 46.004 59.975 46 63.0001Z" fill="#F7C292"/>
<path d="M29 46H35C35 46.7956 34.6839 47.5587 34.1213 48.1213C33.5587 48.6839 32.7956 49 32 49C31.2044 49 30.4413 48.6839 29.8787 48.1213C29.3161 47.5587 29 46.7956 29 46Z" fill="#ED5565"/>
<path d="M25 56.02C26.8564 56.0197 28.6367 55.2821 29.9494 53.9694C31.2621 52.6567 31.9997 50.8764 32 49.02C32.0003 50.8764 32.7379 52.6567 34.0506 53.9694C35.3633 55.2821 37.1436 56.0197 39 56.02C39 57.8765 38.2625 59.657 36.9497 60.9698C35.637 62.2825 33.8565 63.02 32 63.02C30.1435 63.02 28.363 62.2825 27.0503 60.9698C25.7375 59.657 25 57.8765 25 56.02Z" fill="#ED5565"/>
<path d="M32 49C32.3941 49.0005 32.7845 48.9233 33.1487 48.7727C33.5129 48.6221 33.8438 48.4012 34.1225 48.1225C34.4012 47.8438 34.6221 47.5129 34.7727 47.1487C34.9233 46.7845 35.0005 46.3941 35 46H29C28.9995 46.3941 29.0767 46.7845 29.2273 47.1487C29.3779 47.5129 29.5988 47.8438 29.8775 48.1225C30.1562 48.4012 30.4871 48.6221 30.8513 48.7727C31.2155 48.9233 31.6059 49.0005 32 49ZM39 56.02C37.1436 56.0197 35.3633 55.2821 34.0506 53.9694C32.7379 52.6567 32.0003 50.8764 32 49.02C31.9997 50.8764 31.2621 52.6567 29.9494 53.9694C28.6367 55.2821 26.8564 56.0197 25 56.02C23.4797 56.0264 21.9998 55.5307 20.79 54.61C19.9227 53.959 19.2189 53.1149 18.7346 52.1446C18.2503 51.1743 17.9988 50.1045 18 49.02V39C18 35.287 19.475 31.726 22.1005 29.1005C24.726 26.475 28.287 25 32 25C35.713 25 39.274 26.475 41.8995 29.1005C44.525 31.726 46 35.287 46 39V49.02C46.0012 50.1045 45.7497 51.1743 45.2654 52.1446C44.7811 53.1149 44.0774 53.959 43.21 54.61C42.0002 55.5307 40.5203 56.0264 39 56.02Z" fill="#FFD2A6"/>
<path d="M26 25C27.0119 24.9994 28.0209 25.1066 29.01 25.32C25.89 26.0031 23.0973 27.7321 21.0948 30.2202C19.0923 32.7083 18.0003 35.8061 18 39V45C18 45.7957 17.6839 46.5587 17.1213 47.1213C16.5587 47.6839 15.7956 48 15 48C14.2044 48 13.4413 47.6839 12.8787 47.1213C12.3161 46.5587 12 45.7957 12 45V39C12.0007 35.2872 13.4759 31.7266 16.1012 29.1013C18.7266 26.4759 22.2872 25.0007 26 25Z" fill="#965353"/>
<path d="M32 22C29.8244 22 27.6977 21.3549 25.8887 20.1462C24.0798 18.9375 22.6699 17.2195 21.8373 15.2095C21.0048 13.1995 20.7869 10.9878 21.2114 8.85401C21.6358 6.72022 22.6835 4.76021 24.2218 3.22183C25.7602 1.68345 27.7202 0.635804 29.854 0.211367C31.9878 -0.213071 34.1995 0.00476617 36.2095 0.83733C38.2195 1.66989 39.9375 3.07979 41.1462 4.88873C42.3549 6.69767 43 8.82441 43 11C42.9967 13.9164 41.8367 16.7124 39.7745 18.7745C37.7124 20.8367 34.9164 21.9967 32 22ZM32 2.00001C30.22 2.00001 28.4799 2.52785 26.9999 3.51678C25.5198 4.50571 24.3663 5.91132 23.6851 7.55585C23.0039 9.20039 22.8257 11.01 23.1729 12.7558C23.5202 14.5016 24.3774 16.1053 25.636 17.364C26.8947 18.6226 28.4984 19.4798 30.2442 19.8271C31.99 20.1743 33.7996 19.9961 35.4442 19.3149C37.0887 18.6337 38.4943 17.4802 39.4832 16.0001C40.4722 14.5201 41 12.78 41 11C40.9974 8.61386 40.0484 6.32618 38.3611 4.63892C36.6738 2.95166 34.3862 2.00261 32 2.00001Z" fill="black"/>
<path d="M29.875 15.8751C29.7436 15.8752 29.6135 15.8494 29.4922 15.7991C29.3709 15.7489 29.2607 15.6751 29.168 15.5821L26.293 12.7071C26.1082 12.519 26.0053 12.2656 26.0065 12.002C26.0077 11.7383 26.1129 11.4859 26.2993 11.2995C26.4857 11.113 26.7382 11.0078 27.0018 11.0066C27.2654 11.0054 27.5189 11.1084 27.707 11.2931L30.582 14.1681C30.7218 14.3079 30.817 14.4861 30.8555 14.68C30.8941 14.874 30.8743 15.075 30.7986 15.2577C30.723 15.4404 30.5948 15.5966 30.4304 15.7065C30.266 15.8164 30.0727 15.875 29.875 15.8751Z" fill="black"/>
<path d="M30 15.9999C29.8022 15.9999 29.609 15.9412 29.4445 15.8313C29.2801 15.7215 29.152 15.5653 29.0763 15.3826C29.0007 15.1999 28.9808 14.9989 29.0194 14.8049C29.058 14.611 29.1532 14.4328 29.293 14.2929L36.293 7.29295C36.3855 7.19872 36.4958 7.12375 36.6175 7.07239C36.7392 7.02102 36.8698 6.99426 37.0019 6.99366C37.1339 6.99306 37.2648 7.01864 37.387 7.0689C37.5091 7.11916 37.62 7.19313 37.7134 7.28651C37.8068 7.3799 37.8808 7.49086 37.931 7.61299C37.9813 7.73512 38.0069 7.866 38.0063 7.99807C38.0057 8.13014 37.9789 8.26078 37.9276 8.38245C37.8762 8.50412 37.8012 8.61441 37.707 8.70695L30.707 15.7069C30.6143 15.8 30.5041 15.8737 30.3827 15.924C30.2614 15.9743 30.1313 16.0001 30 15.9999ZM46 39.9999C45.8687 40 45.7386 39.9742 45.6172 39.924C45.4959 39.8737 45.3856 39.8001 45.2927 39.7072C45.1999 39.6143 45.1262 39.5041 45.076 39.3827C45.0257 39.2614 44.9999 39.1313 45 38.9999C45 35.5521 43.6304 32.2455 41.1924 29.8076C38.7544 27.3696 35.4478 25.9999 32 25.9999C28.5522 25.9999 25.2456 27.3696 22.8076 29.8076C20.3696 32.2455 19 35.5521 19 38.9999C19 39.2652 18.8946 39.5195 18.7071 39.7071C18.5196 39.8946 18.2652 39.9999 18 39.9999C17.7348 39.9999 17.4804 39.8946 17.2929 39.7071C17.1054 39.5195 17 39.2652 17 38.9999C17 35.0217 18.5804 31.2064 21.3934 28.3933C24.2064 25.5803 28.0218 23.9999 32 23.9999C35.9782 23.9999 39.7936 25.5803 42.6066 28.3933C45.4196 31.2064 47 35.0217 47 38.9999C47.0001 39.1313 46.9743 39.2614 46.924 39.3827C46.8738 39.5041 46.8001 39.6143 46.7073 39.7072C46.6144 39.8001 46.5041 39.8737 46.3828 39.924C46.2614 39.9742 46.1313 40 46 39.9999Z" fill="black"/>
<path d="M52.0001 40C51.8687 40.0001 51.7387 39.9743 51.6173 39.924C51.4959 39.8738 51.3857 39.8002 51.2928 39.7073C51.1999 39.6144 51.1263 39.5041 51.076 39.3828C51.0258 39.2614 51 39.1313 51.0001 39C50.9961 35.5534 49.6252 32.2491 47.188 29.812C44.7509 27.3749 41.4467 26.004 38.0001 26C37.0597 26.0001 36.1221 26.1009 35.2032 26.3008C34.9442 26.3575 34.6733 26.309 34.45 26.166C34.2268 26.023 34.0695 25.7971 34.0128 25.5381C33.956 25.2791 34.0045 25.0082 34.1476 24.7849C34.2906 24.5617 34.5164 24.4044 34.7754 24.3477C36.9667 23.8677 39.2376 23.8849 41.4213 24.398C43.605 24.911 45.646 25.9069 47.3942 27.3125C49.1424 28.718 50.5535 30.4975 51.5236 32.52C52.4937 34.5426 52.9982 36.7568 53.0001 39C53.0001 39.1313 52.9743 39.2614 52.9241 39.3828C52.8739 39.5041 52.8002 39.6144 52.7073 39.7073C52.6145 39.8002 52.5042 39.8738 52.3828 39.924C52.2615 39.9743 52.1314 40.0001 52.0001 40ZM46.0001 63.999C45.8687 63.9991 45.7386 63.9733 45.6173 63.923C45.4959 63.8728 45.3857 63.7992 45.2928 63.7063C45.1999 63.6134 45.1263 63.5031 45.076 63.3818C45.0258 63.2604 45 63.1303 45.0001 62.999C45.0086 60.1901 44.0992 57.4553 42.4102 55.2109C42.3315 55.1059 42.2742 54.9864 42.2416 54.8592C42.2091 54.732 42.2019 54.5997 42.2205 54.4698C42.258 54.2073 42.3983 53.9705 42.6104 53.8115C42.8225 53.6525 43.0891 53.5842 43.3516 53.6218C43.614 53.6593 43.8508 53.7996 44.0098 54.0117C45.9595 56.6015 47.0095 59.7574 47.0001 62.999C47.0001 63.1303 46.9743 63.2604 46.9241 63.3818C46.8739 63.5031 46.8002 63.6134 46.7073 63.7063C46.6145 63.7992 46.5042 63.8728 46.3828 63.923C46.2615 63.9733 46.1314 63.9991 46.0001 63.999ZM18.0001 63.999C17.8687 63.9991 17.7386 63.9733 17.6173 63.923C17.4959 63.8728 17.3857 63.7992 17.2928 63.7063C17.1999 63.6134 17.1263 63.5031 17.076 63.3818C17.0258 63.2604 17 63.1303 17.0001 62.999C16.9909 59.7574 18.0409 56.6016 19.9903 54.0117C20.069 53.9067 20.1677 53.8182 20.2806 53.7513C20.3936 53.6844 20.5186 53.6404 20.6485 53.6218C20.7785 53.6032 20.9108 53.6104 21.038 53.6429C21.1652 53.6755 21.2847 53.7328 21.3897 53.8115C21.4947 53.8902 21.5832 53.9889 21.6501 54.1019C21.717 54.2148 21.761 54.3398 21.7796 54.4698C21.7982 54.5997 21.791 54.732 21.7585 54.8592C21.7259 54.9864 21.6686 55.1059 21.5899 55.2109C19.9012 57.4555 18.9918 60.1902 19.0001 62.999C19.0001 63.1303 18.9743 63.2604 18.9241 63.3818C18.8739 63.5031 18.8002 63.6134 18.7073 63.7063C18.6145 63.7992 18.5042 63.8728 18.3828 63.923C18.2615 63.9733 18.1314 63.9991 18.0001 63.999Z" fill="black"/>
<path d="M25 57.0176C22.879 57.0152 20.8456 56.1715 19.3458 54.6718C17.8461 53.172 17.0024 51.1386 17 49.0176C17 48.7524 17.1054 48.498 17.2929 48.3105C17.4804 48.1229 17.7348 48.0176 18 48.0176C18.2652 48.0176 18.5196 48.1229 18.7071 48.3105C18.8946 48.498 19 48.7524 19 49.0176C19 49.8055 19.1552 50.5857 19.4567 51.3137C19.7583 52.0416 20.2002 52.7031 20.7574 53.2602C21.3145 53.8174 21.9759 54.2593 22.7039 54.5609C23.4319 54.8624 24.2121 55.0176 25 55.0176C25.7879 55.0176 26.5681 54.8624 27.2961 54.5609C28.0241 54.2593 28.6855 53.8174 29.2426 53.2602C29.7998 52.7031 30.2417 52.0416 30.5433 51.3137C30.8448 50.5857 31 49.8055 31 49.0176C31 48.7524 31.1054 48.498 31.2929 48.3105C31.4804 48.1229 31.7348 48.0176 32 48.0176C32.2652 48.0176 32.5196 48.1229 32.7071 48.3105C32.8946 48.498 33 48.7524 33 49.0176C32.9976 51.1386 32.1539 53.172 30.6542 54.6718C29.1544 56.1715 27.121 57.0152 25 57.0176Z" fill="black"/>
<path d="M39 57.0176C36.879 57.0152 34.8456 56.1715 33.3458 54.6718C31.8461 53.172 31.0024 51.1386 31 49.0176C31 48.7524 31.1054 48.498 31.2929 48.3105C31.4804 48.1229 31.7348 48.0176 32 48.0176C32.2652 48.0176 32.5196 48.1229 32.7071 48.3105C32.8946 48.498 33 48.7524 33 49.0176C33 50.6089 33.6321 52.135 34.7574 53.2602C35.8826 54.3854 37.4087 55.0176 39 55.0176C40.5913 55.0176 42.1174 54.3854 43.2426 53.2602C44.3679 52.135 45 50.6089 45 49.0176C45 48.7524 45.1054 48.498 45.2929 48.3105C45.4804 48.1229 45.7348 48.0176 46 48.0176C46.2652 48.0176 46.5196 48.1229 46.7071 48.3105C46.8946 48.498 47 48.7524 47 49.0176C46.9976 51.1386 46.1539 53.172 44.6542 54.6718C43.1544 56.1715 41.121 57.0152 39 57.0176Z" fill="black"/>
<path d="M32 64C29.879 63.9975 27.8456 63.1539 26.3458 61.6541C24.8461 60.1544 24.0024 58.121 24 56C24 55.7348 24.1054 55.4804 24.2929 55.2929C24.4804 55.1053 24.7348 55 25 55C25.2652 55 25.5196 55.1053 25.7071 55.2929C25.8946 55.4804 26 55.7348 26 56C26 57.5913 26.6321 59.1174 27.7574 60.2426C28.8826 61.3678 30.4087 62 32 62C33.5913 62 35.1174 61.3678 36.2426 60.2426C37.3679 59.1174 38 57.5913 38 56C38 55.7348 38.1054 55.4804 38.2929 55.2929C38.4804 55.1053 38.7348 55 39 55C39.2652 55 39.5196 55.1053 39.7071 55.2929C39.8946 55.4804 40 55.7348 40 56C39.9976 58.121 39.1539 60.1544 37.6542 61.6541C36.1544 63.1539 34.121 63.9975 32 64ZM32 49.999C30.9398 49.9978 29.9233 49.5761 29.1736 48.8264C28.4239 48.0767 28.0022 47.0602 28.001 46C28.001 45.7348 28.1064 45.4804 28.2939 45.2929C28.4814 45.1053 28.7358 45 29.001 45C29.2662 45 29.5206 45.1053 29.7081 45.2929C29.8956 45.4804 30.001 45.7348 30.001 46C30.001 46.5301 30.2116 47.0386 30.5865 47.4135C30.9614 47.7884 31.4698 47.999 32 47.999C32.5302 47.999 33.0386 47.7884 33.4135 47.4135C33.7884 47.0386 33.999 46.5301 33.999 46C33.999 45.7348 34.1044 45.4804 34.2919 45.2929C34.4794 45.1053 34.7338 45 34.999 45C35.2642 45 35.5186 45.1053 35.7061 45.2929C35.8936 45.4804 35.999 45.7348 35.999 46C35.9978 47.0602 35.5761 48.0767 34.8264 48.8264C34.0767 49.5761 33.0602 49.9978 32 49.999ZM27.9834 40.9834C27.8521 40.9834 27.722 40.9576 27.6006 40.9074C27.4793 40.8572 27.369 40.7835 27.2761 40.6907C27.1832 40.5978 27.1096 40.4875 27.0594 40.3661C27.0091 40.2448 26.9833 40.1147 26.9834 39.9834C26.9834 39.4532 26.7728 38.9448 26.3979 38.5699C26.023 38.195 25.5146 37.9844 24.9844 37.9844C24.4542 37.9844 23.9458 38.195 23.5709 38.5699C23.196 38.9448 22.9854 39.4532 22.9854 39.9834C22.9854 40.2486 22.88 40.5029 22.6925 40.6905C22.505 40.878 22.2506 40.9834 21.9854 40.9834C21.7202 40.9834 21.4658 40.878 21.2783 40.6905C21.0908 40.5029 20.9854 40.2486 20.9854 39.9834C20.9854 38.9228 21.4067 37.9056 22.1567 37.1557C22.9066 36.4057 23.9238 35.9844 24.9844 35.9844C26.045 35.9844 27.0622 36.4057 27.8121 37.1557C28.5621 37.9056 28.9834 38.9228 28.9834 39.9834C28.9835 40.1147 28.9577 40.2448 28.9074 40.3661C28.8572 40.4875 28.7835 40.5978 28.6907 40.6906C28.5978 40.7835 28.4875 40.8572 28.3662 40.9074C28.2448 40.9576 28.1147 40.9834 27.9834 40.9834ZM41.999 40.9834C41.8677 40.9834 41.7376 40.9576 41.6162 40.9074C41.4949 40.8572 41.3846 40.7835 41.2917 40.6906C41.1989 40.5978 41.1252 40.4875 41.075 40.3661C41.0247 40.2448 40.9989 40.1147 40.999 39.9834C40.999 39.4532 40.7884 38.9448 40.4135 38.5699C40.0386 38.195 39.5302 37.9844 39 37.9844C38.4698 37.9844 37.9614 38.195 37.5865 38.5699C37.2116 38.9448 37.001 39.4532 37.001 39.9834C37.001 40.2486 36.8956 40.5029 36.7081 40.6905C36.5206 40.878 36.2662 40.9834 36.001 40.9834C35.7358 40.9834 35.4814 40.878 35.2939 40.6905C35.1064 40.5029 35.001 40.2486 35.001 39.9834C35.001 38.9228 35.4223 37.9056 36.1723 37.1557C36.9222 36.4057 37.9394 35.9844 39 35.9844C40.0606 35.9844 41.0778 36.4057 41.8277 37.1557C42.5777 37.9056 42.999 38.9228 42.999 39.9834C42.9991 40.1147 42.9733 40.2448 42.923 40.3661C42.8728 40.4875 42.7992 40.5978 42.7063 40.6907C42.6134 40.7835 42.5031 40.8572 42.3818 40.9074C42.2604 40.9576 42.1303 40.9834 41.999 40.9834ZM18 50.0176C17.8687 50.0176 17.7386 49.9918 17.6172 49.9416C17.4959 49.8914 17.3856 49.8177 17.2927 49.7248C17.1999 49.632 17.1262 49.5217 17.076 49.4003C17.0257 49.279 16.9999 49.1489 17 49.0176V39C17 38.7348 17.1054 38.4804 17.2929 38.2929C17.4804 38.1053 17.7348 38 18 38C18.2652 38 18.5196 38.1053 18.7071 38.2929C18.8946 38.4804 19 38.7348 19 39V49.0176C19.0001 49.1489 18.9743 49.279 18.924 49.4003C18.8738 49.5217 18.8001 49.632 18.7073 49.7248C18.6144 49.8177 18.5041 49.8914 18.3828 49.9416C18.2614 49.9918 18.1313 50.0176 18 50.0176ZM46 50.0176C45.8687 50.0176 45.7386 49.9918 45.6172 49.9416C45.4959 49.8914 45.3856 49.8177 45.2927 49.7248C45.1999 49.632 45.1262 49.5217 45.076 49.4003C45.0257 49.279 44.9999 49.1489 45 49.0176V39C45 38.7348 45.1054 38.4804 45.2929 38.2929C45.4804 38.1053 45.7348 38 46 38C46.2652 38 46.5196 38.1053 46.7071 38.2929C46.8946 38.4804 47 38.7348 47 39V49.0176C47.0001 49.1489 46.9743 49.279 46.924 49.4003C46.8738 49.5217 46.8001 49.632 46.7073 49.7248C46.6144 49.8177 46.5041 49.8914 46.3828 49.9416C46.2614 49.9918 46.1313 50.0176 46 50.0176Z" fill="black"/>
<path d="M34.999 47H29.001C28.7358 47 28.4814 46.8946 28.2939 46.7071C28.1063 46.5196 28.001 46.2652 28.001 46C28.001 45.7348 28.1063 45.4804 28.2939 45.2929C28.4814 45.1054 28.7358 45 29.001 45H34.999C35.2642 45 35.5185 45.1054 35.7061 45.2929C35.8936 45.4804 35.999 45.7348 35.999 46C35.999 46.2652 35.8936 46.5196 35.7061 46.7071C35.5185 46.8946 35.2642 47 34.999 47ZM32 58C31.8686 58.0001 31.7386 57.9743 31.6172 57.924C31.4958 57.8738 31.3856 57.8001 31.2927 57.7073C31.1998 57.6144 31.1262 57.5041 31.0759 57.3828C31.0257 57.2614 30.9999 57.1313 31 57V49.0176C31 48.7524 31.1053 48.498 31.2929 48.3105C31.4804 48.1229 31.7348 48.0176 32 48.0176C32.2652 48.0176 32.5195 48.1229 32.7071 48.3105C32.8946 48.498 33 48.7524 33 49.0176V57C33.0001 57.1313 32.9742 57.2614 32.924 57.3828C32.8738 57.5041 32.8001 57.6144 32.7073 57.7073C32.6144 57.8001 32.5041 57.8738 32.3827 57.924C32.2614 57.9743 32.1313 58.0001 32 58ZM49 49C47.9394 48.9989 46.9226 48.5772 46.1727 47.8273C45.4228 47.0773 45.001 46.0605 45 45C45 44.7348 45.1053 44.4804 45.2929 44.2929C45.4804 44.1054 45.7348 44 46 44C46.2652 44 46.5195 44.1054 46.7071 44.2929C46.8946 44.4804 47 44.7348 47 45C47 45.5304 47.2107 46.0391 47.5858 46.4142C47.9608 46.7893 48.4695 47 49 47C49.5304 47 50.0391 46.7893 50.4142 46.4142C50.7893 46.0391 51 45.5304 51 45C51 44.7348 51.1053 44.4804 51.2929 44.2929C51.4804 44.1054 51.7348 44 52 44C52.2652 44 52.5195 44.1054 52.7071 44.2929C52.8946 44.4804 53 44.7348 53 45C52.9989 46.0605 52.5772 47.0773 51.8272 47.8273C51.0773 48.5772 50.0605 48.9989 49 49Z" fill="black"/>
<path d="M52 46C51.8687 46.0001 51.7386 45.9743 51.6172 45.924C51.4959 45.8738 51.3856 45.8001 51.2927 45.7073C51.1999 45.6144 51.1262 45.5041 51.076 45.3828C51.0257 45.2614 50.9999 45.1313 51 45V39C51 38.7348 51.1054 38.4804 51.2929 38.2929C51.4804 38.1054 51.7348 38 52 38C52.2652 38 52.5196 38.1054 52.7071 38.2929C52.8946 38.4804 53 38.7348 53 39V45C53.0001 45.1313 52.9743 45.2614 52.924 45.3828C52.8738 45.5041 52.8001 45.6144 52.7073 45.7073C52.6144 45.8001 52.5041 45.8738 52.3828 45.924C52.2614 45.9743 52.1313 46.0001 52 46Z" fill="black"/>
<path d="M52 40C51.8686 40.0001 51.7385 39.9743 51.6172 39.924C51.4958 39.8738 51.3855 39.8002 51.2927 39.7073C51.1998 39.6144 51.1261 39.5041 51.0759 39.3828C51.0257 39.2614 50.9999 39.1313 51 39C50.996 35.5534 49.625 32.2491 47.1879 29.812C44.7508 27.3749 41.4465 26.004 38 26C37.0596 26.0001 36.1219 26.1009 35.2031 26.3008C34.9441 26.3575 34.6732 26.309 34.4499 26.166C34.2267 26.023 34.0694 25.7971 34.0127 25.5381C33.9559 25.2791 34.0044 25.0082 34.1475 24.7849C34.2905 24.5617 34.5163 24.4044 34.7753 24.3477C36.9666 23.8677 39.2375 23.8849 41.4212 24.398C43.6049 24.911 45.6459 25.9069 47.3941 27.3125C49.1423 28.718 50.5533 30.4975 51.5235 32.52C52.4936 34.5426 52.9981 36.7568 53 39C53 39.1313 52.9742 39.2614 52.924 39.3828C52.8738 39.5041 52.8001 39.6144 52.7072 39.7073C52.6144 39.8002 52.5041 39.8738 52.3827 39.924C52.2614 39.9743 52.1313 40.0001 52 40ZM49 49C47.9394 48.9989 46.9226 48.5772 46.1727 47.8273C45.4228 47.0773 45.001 46.0605 45 45C45 44.7348 45.1053 44.4804 45.2928 44.2929C45.4804 44.1054 45.7347 44 46 44C46.2652 44 46.5195 44.1054 46.7071 44.2929C46.8946 44.4804 47 44.7348 47 45C47 45.5304 47.2107 46.0391 47.5857 46.4142C47.9608 46.7893 48.4695 47 49 47C49.5304 47 50.0391 46.7893 50.4142 46.4142C50.7892 46.0391 51 45.5304 51 45C51 44.7348 51.1053 44.4804 51.2928 44.2929C51.4804 44.1054 51.7347 44 52 44C52.2652 44 52.5195 44.1054 52.7071 44.2929C52.8946 44.4804 53 44.7348 53 45C52.9989 46.0605 52.5771 47.0773 51.8272 47.8273C51.0773 48.5772 50.0605 48.9989 49 49Z" fill="black"/>
<path d="M52 46C51.8687 46.0001 51.7386 45.9743 51.6172 45.924C51.4959 45.8738 51.3856 45.8002 51.2927 45.7073C51.1999 45.6144 51.1262 45.5041 51.076 45.3828C51.0257 45.2614 50.9999 45.1313 51 45V39C51 38.7348 51.1054 38.4804 51.2929 38.2929C51.4804 38.1054 51.7348 38 52 38C52.2652 38 52.5196 38.1054 52.7071 38.2929C52.8946 38.4804 53 38.7348 53 39V45C53.0001 45.1313 52.9743 45.2614 52.924 45.3828C52.8738 45.5041 52.8001 45.6144 52.7073 45.7073C52.6144 45.8002 52.5041 45.8738 52.3828 45.924C52.2614 45.9743 52.1313 46.0001 52 46ZM12 40C11.8687 40.0001 11.7386 39.9743 11.6172 39.924C11.4959 39.8738 11.3856 39.8002 11.2927 39.7073C11.1999 39.6144 11.1262 39.5041 11.076 39.3828C11.0257 39.2614 10.9999 39.1313 11 39C11.0019 36.7568 11.5064 34.5426 12.4765 32.52C13.4466 30.4975 14.8576 28.718 16.6058 27.3125C18.3541 25.9069 20.395 24.911 22.5787 24.398C24.7625 23.8849 27.0334 23.8677 29.2246 24.3477C29.4836 24.4044 29.7095 24.5617 29.8525 24.7849C29.9955 25.0082 30.044 25.2791 29.9873 25.5381C29.9306 25.7971 29.7733 26.0229 29.5501 26.166C29.3268 26.309 29.0559 26.3575 28.7969 26.3008C27.878 26.1009 26.9404 26.0001 26 26C22.5534 26.004 19.2491 27.3749 16.812 29.812C14.3749 32.2491 13.004 35.5534 13 39C13.0001 39.1313 12.9743 39.2614 12.924 39.3828C12.8738 39.5041 12.8001 39.6144 12.7073 39.7073C12.6144 39.8002 12.5041 39.8738 12.3828 39.924C12.2614 39.9743 12.1313 40.0001 12 40ZM15 49C13.9395 48.9989 12.9227 48.5772 12.1727 47.8273C11.4228 47.0773 11.0011 46.0605 11 45C11 44.7348 11.1054 44.4804 11.2929 44.2929C11.4804 44.1054 11.7348 44 12 44C12.2652 44 12.5196 44.1054 12.7071 44.2929C12.8946 44.4804 13 44.7348 13 45C13 45.5304 13.2107 46.0391 13.5858 46.4142C13.9609 46.7893 14.4696 47 15 47C15.5304 47 16.0391 46.7893 16.4142 46.4142C16.7893 46.0391 17 45.5304 17 45C17 44.7348 17.1054 44.4804 17.2929 44.2929C17.4804 44.1054 17.7348 44 18 44C18.2652 44 18.5196 44.1054 18.7071 44.2929C18.8946 44.4804 19 44.7348 19 45C18.9989 46.0605 18.5772 47.0773 17.8273 47.8273C17.0773 48.5772 16.0605 48.9989 15 49Z" fill="black"/>
<path d="M12 46C11.8687 46.0001 11.7386 45.9743 11.6172 45.924C11.4959 45.8738 11.3856 45.8001 11.2927 45.7073C11.1999 45.6144 11.1262 45.5041 11.076 45.3828C11.0257 45.2614 10.9999 45.1313 11 45V39C11 38.7348 11.1054 38.4804 11.2929 38.2929C11.4804 38.1054 11.7348 38 12 38C12.2652 38 12.5196 38.1054 12.7071 38.2929C12.8946 38.4804 13 38.7348 13 39V45C13.0001 45.1313 12.9743 45.2614 12.924 45.3828C12.8738 45.5041 12.8001 45.6144 12.7073 45.7073C12.6144 45.8001 12.5041 45.8738 12.3828 45.924C12.2614 45.9743 12.1313 46.0001 12 46Z" fill="black"/>
</g>
<defs>
<clipPath id="clip0_70_1209">
<rect width="64" height="64" fill="white"/>
</clipPath>
</defs>
</svg>
